M48
; DRILL file {KiCad 7.0.6-1.fc38} date Çrş 09 Ağu 2023 19:30:38
; FORMAT={-:-/ absolute / metric / decimal}
; #@! TF.CreationDate,2023-08-09T19:30:38+03:00
; #@! TF.GenerationSoftware,Kicad,Pcbnew,7.0.6-1.fc38
; #@! TF.FileFunction,MixedPlating,1,2
FMAT,2
METRIC
; #@! TA.AperFunction,Plated,PTH,ViaDrill
T1C0.300
; #@! TA.AperFunction,Plated,PTH,ComponentDrill
T2C0.800
; #@! TA.AperFunction,Plated,PTH,ComponentDrill
T3C1.000
; #@! TA.AperFunction,NonPlated,NPTH,ComponentDrill
T4C0.900
%
G90
G05
T1
X72.8Y-46.1
X74.2Y-43.2
X74.9Y-35.1
X76.1Y-43.2
X77.3Y-46.2
X80.6Y-35.1
X81.6Y-43.2
X85.3Y-34.1
X88.4Y-42.4
X88.8Y-48.6
X91.3Y-42.4
T2
X82.0Y-52.175
X82.0Y-54.715
X82.0Y-57.255
X82.0Y-59.795
X82.0Y-62.335
X82.0Y-64.875
X82.0Y-67.415
X82.0Y-69.955
X82.0Y-72.495
X82.0Y-75.035
X89.62Y-52.175
X89.62Y-54.715
X89.62Y-57.255
X89.62Y-59.795
X89.62Y-62.335
X89.62Y-64.875
X89.62Y-67.415
X89.62Y-69.955
X89.62Y-72.495
X89.62Y-75.035
T3
X73.0Y-52.175
X73.0Y-54.715
X73.0Y-57.255
X73.0Y-59.795
X73.0Y-62.335
X73.0Y-64.875
X73.0Y-67.415
X73.0Y-69.955
X73.0Y-72.495
X73.0Y-75.035
X92.85Y-43.95
X92.85Y-48.45
X98.75Y-52.16
X98.75Y-54.7
X98.75Y-57.24
X98.75Y-59.78
X98.75Y-62.32
X98.75Y-64.86
X98.75Y-67.4
X98.75Y-69.94
X98.75Y-72.48
X98.75Y-75.02
X99.35Y-43.95
X99.35Y-48.45
T4
X75.6Y-38.825
X80.0Y-38.825
T0
M30
