%TF.GenerationSoftware,KiCad,Pcbnew,7.0.6-1.fc38*%
%TF.CreationDate,2023-08-09T19:30:43+03:00*%
%TF.ProjectId,msp430-breakout,6d737034-3330-42d6-9272-65616b6f7574,v.1.0*%
%TF.SameCoordinates,Original*%
%TF.FileFunction,Copper,L2,Bot*%
%TF.FilePolarity,Positive*%
%FSLAX46Y46*%
G04 Gerber Fmt 4.6, Leading zero omitted, Abs format (unit mm)*
G04 Created by KiCad (PCBNEW 7.0.6-1.fc38) date 2023-08-09 19:30:43*
%MOMM*%
%LPD*%
G01*
G04 APERTURE LIST*
%TA.AperFunction,ComponentPad*%
%ADD10O,1.700000X1.700000*%
%TD*%
%TA.AperFunction,ComponentPad*%
%ADD11R,1.700000X1.700000*%
%TD*%
%TA.AperFunction,ComponentPad*%
%ADD12O,1.600000X1.600000*%
%TD*%
%TA.AperFunction,ComponentPad*%
%ADD13R,1.600000X1.600000*%
%TD*%
%TA.AperFunction,ComponentPad*%
%ADD14C,1.700000*%
%TD*%
%TA.AperFunction,ViaPad*%
%ADD15C,0.700000*%
%TD*%
G04 APERTURE END LIST*
D10*
%TO.P,J2,10,Pin_10*%
%TO.N,GND*%
X98750000Y-52160000D03*
%TO.P,J2,9,Pin_9*%
%TO.N,/XIN*%
X98750000Y-54700000D03*
%TO.P,J2,8,Pin_8*%
%TO.N,/XOUT*%
X98750000Y-57240000D03*
%TO.P,J2,7,Pin_7*%
%TO.N,/TEST*%
X98750000Y-59780000D03*
%TO.P,J2,6,Pin_6*%
%TO.N,/RST*%
X98750000Y-62320000D03*
%TO.P,J2,5,Pin_5*%
%TO.N,/P1.7*%
X98750000Y-64860000D03*
%TO.P,J2,4,Pin_4*%
%TO.N,/P1.6*%
X98750000Y-67400000D03*
%TO.P,J2,3,Pin_3*%
%TO.N,/P2.5*%
X98750000Y-69940000D03*
%TO.P,J2,2,Pin_2*%
%TO.N,/P2.4*%
X98750000Y-72480000D03*
D11*
%TO.P,J2,1,Pin_1*%
%TO.N,/P2.3*%
X98750000Y-75020000D03*
%TD*%
D12*
%TO.P,U1,20,DVSS*%
%TO.N,GND*%
X89620000Y-52175000D03*
%TO.P,U1,19,P2.6/XIN/TA0.1*%
%TO.N,/XIN*%
X89620000Y-54715000D03*
%TO.P,U1,18,P2.7/XOUT*%
%TO.N,/XOUT*%
X89620000Y-57255000D03*
%TO.P,U1,17,TEST/SBWTCK*%
%TO.N,/TEST*%
X89620000Y-59795000D03*
%TO.P,U1,16,~{RST}/NMI/SBWTDIO*%
%TO.N,/RST*%
X89620000Y-62335000D03*
%TO.P,U1,15,TDO/TDI/UCB0SIMO/UCB0SDA/CAOUT/CA7/A7/P1.7*%
%TO.N,/P1.7*%
X89620000Y-64875000D03*
%TO.P,U1,14,TDI/TCLK/UCB0SOMI/UCB0SCL/TA0.1/CA6/A6/P1.6*%
%TO.N,/P1.6*%
X89620000Y-67415000D03*
%TO.P,U1,13,P2.5/TA1.2*%
%TO.N,/P2.5*%
X89620000Y-69955000D03*
%TO.P,U1,12,P2.4/TA1.2*%
%TO.N,/P2.4*%
X89620000Y-72495000D03*
%TO.P,U1,11,P2.3/TA1.0*%
%TO.N,/P2.3*%
X89620000Y-75035000D03*
%TO.P,U1,10,P2.2/TA1.1*%
%TO.N,/P2.2*%
X82000000Y-75035000D03*
%TO.P,U1,9,P2.1/TA1.1*%
%TO.N,/P2.1*%
X82000000Y-72495000D03*
%TO.P,U1,8,P2.0/TA1.0*%
%TO.N,/P2.0*%
X82000000Y-69955000D03*
%TO.P,U1,7,TMS/UCB0CLK/UCA0STE/TA0.0/CA5/A5/P1.5*%
%TO.N,/P1.5*%
X82000000Y-67415000D03*
%TO.P,U1,6,TCK/SMCLK/UCB0STE/UCA0CLK/VREF+/VeREF+/CA4/A4/P1.4*%
%TO.N,/P1.4*%
X82000000Y-64875000D03*
%TO.P,U1,5,CAOUT/VREF-/VeREF-/CA3/A3/P1.3*%
%TO.N,/P1.3*%
X82000000Y-62335000D03*
%TO.P,U1,4,UCA0TXD/UCA0SIMO/TA0.1/CA2/A2/P1.2*%
%TO.N,/P1.2*%
X82000000Y-59795000D03*
%TO.P,U1,3,UCA0RXD/UCA0SOMI/TA0.0/CA1/A1/P1.1*%
%TO.N,/P1.1*%
X82000000Y-57255000D03*
%TO.P,U1,2,TA0CLK/ACLK/CA0/A0/P1.0*%
%TO.N,/P1.0*%
X82000000Y-54715000D03*
D13*
%TO.P,U1,1,DVCC*%
%TO.N,+3.3V*%
X82000000Y-52175000D03*
%TD*%
D14*
%TO.P,SW1,2,2*%
%TO.N,/RST*%
X92850000Y-48450000D03*
X99350000Y-48450000D03*
D11*
%TO.P,SW1,1,1*%
%TO.N,GND*%
X92850000Y-43950000D03*
D14*
X99350000Y-43950000D03*
%TD*%
D11*
%TO.P,J1,1,Pin_1*%
%TO.N,+3.3V*%
X73000000Y-52175000D03*
D10*
%TO.P,J1,2,Pin_2*%
%TO.N,/P1.0*%
X73000000Y-54715000D03*
%TO.P,J1,3,Pin_3*%
%TO.N,/P1.1*%
X73000000Y-57255000D03*
%TO.P,J1,4,Pin_4*%
%TO.N,/P1.2*%
X73000000Y-59795000D03*
%TO.P,J1,5,Pin_5*%
%TO.N,/P1.3*%
X73000000Y-62335000D03*
%TO.P,J1,6,Pin_6*%
%TO.N,/P1.4*%
X73000000Y-64875000D03*
%TO.P,J1,7,Pin_7*%
%TO.N,/P1.5*%
X73000000Y-67415000D03*
%TO.P,J1,8,Pin_8*%
%TO.N,/P2.0*%
X73000000Y-69955000D03*
%TO.P,J1,9,Pin_9*%
%TO.N,/P2.1*%
X73000000Y-72495000D03*
%TO.P,J1,10,Pin_10*%
%TO.N,/P2.2*%
X73000000Y-75035000D03*
%TD*%
D15*
%TO.N,GND*%
X77300000Y-46200000D03*
X91300000Y-42400000D03*
X88400000Y-42400000D03*
X85300000Y-34100000D03*
X88800000Y-48600000D03*
X81600000Y-43200000D03*
X80600000Y-35100000D03*
X74900000Y-35100000D03*
X76100000Y-43200000D03*
X72800000Y-46100000D03*
X74200000Y-43200000D03*
%TD*%
%TA.AperFunction,Conductor*%
%TO.N,GND*%
G36*
X100742539Y-33420185D02*
G01*
X100788294Y-33472989D01*
X100799500Y-33524500D01*
X100799500Y-43304763D01*
X100779815Y-43371802D01*
X100727011Y-43417557D01*
X100657853Y-43427501D01*
X100594297Y-43398476D01*
X100563118Y-43357168D01*
X100523600Y-43272423D01*
X100523599Y-43272421D01*
X100464925Y-43188626D01*
X100464925Y-43188625D01*
X99833076Y-43820475D01*
X99809493Y-43740156D01*
X99731761Y-43619202D01*
X99623100Y-43525048D01*
X99492315Y-43465320D01*
X99482532Y-43463913D01*
X100111373Y-42835073D01*
X100111373Y-42835072D01*
X100027583Y-42776402D01*
X100027579Y-42776400D01*
X99813492Y-42676570D01*
X99813483Y-42676566D01*
X99585326Y-42615432D01*
X99585315Y-42615430D01*
X99350002Y-42594843D01*
X99349998Y-42594843D01*
X99114684Y-42615430D01*
X99114673Y-42615432D01*
X98886516Y-42676566D01*
X98886507Y-42676570D01*
X98672419Y-42776401D01*
X98588625Y-42835072D01*
X98588625Y-42835073D01*
X99217465Y-43463913D01*
X99207685Y-43465320D01*
X99076900Y-43525048D01*
X98968239Y-43619202D01*
X98890507Y-43740156D01*
X98866923Y-43820476D01*
X98235072Y-43188625D01*
X98176401Y-43272419D01*
X98076570Y-43486507D01*
X98076566Y-43486516D01*
X98015432Y-43714673D01*
X98015430Y-43714684D01*
X97994843Y-43949998D01*
X97994843Y-43950001D01*
X98015430Y-44185315D01*
X98015432Y-44185326D01*
X98076566Y-44413483D01*
X98076570Y-44413492D01*
X98176400Y-44627579D01*
X98176402Y-44627583D01*
X98235072Y-44711373D01*
X98235073Y-44711373D01*
X98866923Y-44079523D01*
X98890507Y-44159844D01*
X98968239Y-44280798D01*
X99076900Y-44374952D01*
X99207685Y-44434680D01*
X99217466Y-44436086D01*
X98588625Y-45064925D01*
X98672421Y-45123599D01*
X98886507Y-45223429D01*
X98886516Y-45223433D01*
X99114673Y-45284567D01*
X99114684Y-45284569D01*
X99349998Y-45305157D01*
X99350002Y-45305157D01*
X99585315Y-45284569D01*
X99585326Y-45284567D01*
X99813483Y-45223433D01*
X99813492Y-45223429D01*
X100027578Y-45123600D01*
X100027582Y-45123598D01*
X100111373Y-45064926D01*
X100111373Y-45064925D01*
X99482533Y-44436086D01*
X99492315Y-44434680D01*
X99623100Y-44374952D01*
X99731761Y-44280798D01*
X99809493Y-44159844D01*
X99833076Y-44079524D01*
X100464925Y-44711373D01*
X100464926Y-44711373D01*
X100523598Y-44627582D01*
X100523602Y-44627574D01*
X100563118Y-44542833D01*
X100609290Y-44490393D01*
X100676483Y-44471241D01*
X100743365Y-44491456D01*
X100788699Y-44544622D01*
X100799500Y-44595237D01*
X100799500Y-47803579D01*
X100779815Y-47870618D01*
X100727011Y-47916373D01*
X100657853Y-47926317D01*
X100594297Y-47897292D01*
X100563118Y-47855984D01*
X100524035Y-47772171D01*
X100524034Y-47772169D01*
X100388494Y-47578597D01*
X100221402Y-47411506D01*
X100221395Y-47411501D01*
X100027834Y-47275967D01*
X100027830Y-47275965D01*
X100027828Y-47275964D01*
X99813663Y-47176097D01*
X99813659Y-47176096D01*
X99813655Y-47176094D01*
X99585413Y-47114938D01*
X99585403Y-47114936D01*
X99350001Y-47094341D01*
X99349999Y-47094341D01*
X99114596Y-47114936D01*
X99114586Y-47114938D01*
X98886344Y-47176094D01*
X98886335Y-47176098D01*
X98672171Y-47275964D01*
X98672169Y-47275965D01*
X98478597Y-47411505D01*
X98311505Y-47578597D01*
X98175965Y-47772169D01*
X98175964Y-47772171D01*
X98076098Y-47986335D01*
X98076094Y-47986344D01*
X98014938Y-48214586D01*
X98014936Y-48214596D01*
X97994341Y-48449999D01*
X97994341Y-48450000D01*
X98014936Y-48685403D01*
X98014938Y-48685413D01*
X98076094Y-48913655D01*
X98076096Y-48913659D01*
X98076097Y-48913663D01*
X98103498Y-48972424D01*
X98175965Y-49127830D01*
X98175967Y-49127834D01*
X98284281Y-49282521D01*
X98311505Y-49321401D01*
X98478599Y-49488495D01*
X98575384Y-49556265D01*
X98672165Y-49624032D01*
X98672167Y-49624033D01*
X98672170Y-49624035D01*
X98886337Y-49723903D01*
X99114592Y-49785063D01*
X99302918Y-49801539D01*
X99349999Y-49805659D01*
X99350000Y-49805659D01*
X99350001Y-49805659D01*
X99389234Y-49802226D01*
X99585408Y-49785063D01*
X99813663Y-49723903D01*
X100027830Y-49624035D01*
X100221401Y-49488495D01*
X100388495Y-49321401D01*
X100524035Y-49127830D01*
X100563118Y-49044015D01*
X100609290Y-48991576D01*
X100676483Y-48972424D01*
X100743365Y-48992640D01*
X100788699Y-49045805D01*
X100799500Y-49096420D01*
X100799500Y-76875500D01*
X100779815Y-76942539D01*
X100727011Y-76988294D01*
X100675500Y-76999500D01*
X70924500Y-76999500D01*
X70857461Y-76979815D01*
X70811706Y-76927011D01*
X70800500Y-76875500D01*
X70800500Y-75035000D01*
X71644341Y-75035000D01*
X71664936Y-75270403D01*
X71664938Y-75270413D01*
X71726094Y-75498655D01*
X71726096Y-75498659D01*
X71726097Y-75498663D01*
X71814262Y-75687732D01*
X71825965Y-75712830D01*
X71825967Y-75712834D01*
X71934281Y-75867521D01*
X71961505Y-75906401D01*
X72128599Y-76073495D01*
X72225384Y-76141264D01*
X72322165Y-76209032D01*
X72322167Y-76209033D01*
X72322170Y-76209035D01*
X72536337Y-76308903D01*
X72764592Y-76370063D01*
X72952918Y-76386539D01*
X72999999Y-76390659D01*
X73000000Y-76390659D01*
X73000001Y-76390659D01*
X73039234Y-76387226D01*
X73235408Y-76370063D01*
X73463663Y-76308903D01*
X73677830Y-76209035D01*
X73871401Y-76073495D01*
X74038495Y-75906401D01*
X74174035Y-75712830D01*
X74273903Y-75498663D01*
X74335063Y-75270408D01*
X74355659Y-75035001D01*
X80694532Y-75035001D01*
X80714364Y-75261686D01*
X80714366Y-75261697D01*
X80773258Y-75481488D01*
X80773261Y-75481497D01*
X80869431Y-75687732D01*
X80869432Y-75687734D01*
X80999954Y-75874141D01*
X81160858Y-76035045D01*
X81160861Y-76035047D01*
X81347266Y-76165568D01*
X81553504Y-76261739D01*
X81773308Y-76320635D01*
X81935230Y-76334801D01*
X81999998Y-76340468D01*
X82000000Y-76340468D01*
X82000002Y-76340468D01*
X82056673Y-76335509D01*
X82226692Y-76320635D01*
X82446496Y-76261739D01*
X82652734Y-76165568D01*
X82839139Y-76035047D01*
X83000047Y-75874139D01*
X83130568Y-75687734D01*
X83226739Y-75481496D01*
X83285635Y-75261692D01*
X83305468Y-75035001D01*
X88314532Y-75035001D01*
X88334364Y-75261686D01*
X88334366Y-75261697D01*
X88393258Y-75481488D01*
X88393261Y-75481497D01*
X88489431Y-75687732D01*
X88489432Y-75687734D01*
X88619954Y-75874141D01*
X88780858Y-76035045D01*
X88780861Y-76035047D01*
X88967266Y-76165568D01*
X89173504Y-76261739D01*
X89393308Y-76320635D01*
X89555230Y-76334801D01*
X89619998Y-76340468D01*
X89620000Y-76340468D01*
X89620002Y-76340468D01*
X89676673Y-76335509D01*
X89846692Y-76320635D01*
X90066496Y-76261739D01*
X90272734Y-76165568D01*
X90459139Y-76035047D01*
X90620047Y-75874139D01*
X90750568Y-75687734D01*
X90846739Y-75481496D01*
X90905635Y-75261692D01*
X90925468Y-75035000D01*
X90905635Y-74808308D01*
X90846739Y-74588504D01*
X90750568Y-74382266D01*
X90620047Y-74195861D01*
X90620045Y-74195858D01*
X90459141Y-74034954D01*
X90272734Y-73904432D01*
X90272728Y-73904429D01*
X90214725Y-73877382D01*
X90162285Y-73831210D01*
X90143133Y-73764017D01*
X90163348Y-73697135D01*
X90214725Y-73652618D01*
X90272734Y-73625568D01*
X90459139Y-73495047D01*
X90620047Y-73334139D01*
X90750568Y-73147734D01*
X90846739Y-72941496D01*
X90905635Y-72721692D01*
X90925468Y-72495000D01*
X90924156Y-72480000D01*
X97394341Y-72480000D01*
X97414936Y-72715403D01*
X97414938Y-72715413D01*
X97476094Y-72943655D01*
X97476096Y-72943659D01*
X97476097Y-72943663D01*
X97571256Y-73147732D01*
X97575965Y-73157830D01*
X97575967Y-73157834D01*
X97684281Y-73312521D01*
X97711501Y-73351396D01*
X97711506Y-73351402D01*
X97833430Y-73473326D01*
X97866915Y-73534649D01*
X97861931Y-73604341D01*
X97820059Y-73660274D01*
X97789083Y-73677189D01*
X97657669Y-73726203D01*
X97657664Y-73726206D01*
X97542455Y-73812452D01*
X97542452Y-73812455D01*
X97456206Y-73927664D01*
X97456202Y-73927671D01*
X97405908Y-74062517D01*
X97399501Y-74122116D01*
X97399501Y-74122123D01*
X97399500Y-74122135D01*
X97399500Y-75917870D01*
X97399501Y-75917876D01*
X97405908Y-75977483D01*
X97456202Y-76112328D01*
X97456206Y-76112335D01*
X97542452Y-76227544D01*
X97542455Y-76227547D01*
X97657664Y-76313793D01*
X97657671Y-76313797D01*
X97792517Y-76364091D01*
X97792516Y-76364091D01*
X97799444Y-76364835D01*
X97852127Y-76370500D01*
X99647872Y-76370499D01*
X99707483Y-76364091D01*
X99842331Y-76313796D01*
X99957546Y-76227546D01*
X100043796Y-76112331D01*
X100094091Y-75977483D01*
X100100500Y-75917873D01*
X100100499Y-74122128D01*
X100094091Y-74062517D01*
X100083810Y-74034953D01*
X100043797Y-73927671D01*
X100043793Y-73927664D01*
X99957547Y-73812455D01*
X99957544Y-73812452D01*
X99842335Y-73726206D01*
X99842328Y-73726202D01*
X99710917Y-73677189D01*
X99654983Y-73635318D01*
X99630566Y-73569853D01*
X99645418Y-73501580D01*
X99666563Y-73473332D01*
X99788495Y-73351401D01*
X99924035Y-73157830D01*
X100023903Y-72943663D01*
X100085063Y-72715408D01*
X100105659Y-72480000D01*
X100085063Y-72244592D01*
X100032522Y-72048504D01*
X100023905Y-72016344D01*
X100023904Y-72016343D01*
X100023903Y-72016337D01*
X99924035Y-71802171D01*
X99788495Y-71608599D01*
X99788494Y-71608597D01*
X99621402Y-71441506D01*
X99621396Y-71441501D01*
X99435842Y-71311575D01*
X99392217Y-71256998D01*
X99385023Y-71187500D01*
X99416546Y-71125145D01*
X99435842Y-71108425D01*
X99468486Y-71085567D01*
X99621401Y-70978495D01*
X99788495Y-70811401D01*
X99924035Y-70617830D01*
X100023903Y-70403663D01*
X100085063Y-70175408D01*
X100105659Y-69940000D01*
X100085063Y-69704592D01*
X100032522Y-69508504D01*
X100023905Y-69476344D01*
X100023904Y-69476343D01*
X100023903Y-69476337D01*
X99924035Y-69262171D01*
X99788495Y-69068599D01*
X99788494Y-69068597D01*
X99621402Y-68901506D01*
X99621396Y-68901501D01*
X99435842Y-68771575D01*
X99392217Y-68716998D01*
X99385023Y-68647500D01*
X99416546Y-68585145D01*
X99435842Y-68568425D01*
X99468486Y-68545567D01*
X99621401Y-68438495D01*
X99788495Y-68271401D01*
X99924035Y-68077830D01*
X100023903Y-67863663D01*
X100085063Y-67635408D01*
X100105659Y-67400000D01*
X100085063Y-67164592D01*
X100032522Y-66968504D01*
X100023905Y-66936344D01*
X100023904Y-66936343D01*
X100023903Y-66936337D01*
X99924035Y-66722171D01*
X99788495Y-66528599D01*
X99788494Y-66528597D01*
X99621402Y-66361506D01*
X99621396Y-66361501D01*
X99435842Y-66231575D01*
X99392217Y-66176998D01*
X99385023Y-66107500D01*
X99416546Y-66045145D01*
X99435842Y-66028425D01*
X99468488Y-66005566D01*
X99621401Y-65898495D01*
X99788495Y-65731401D01*
X99924035Y-65537830D01*
X100023903Y-65323663D01*
X100085063Y-65095408D01*
X100105659Y-64860000D01*
X100085063Y-64624592D01*
X100032522Y-64428504D01*
X100023905Y-64396344D01*
X100023904Y-64396343D01*
X100023903Y-64396337D01*
X99924035Y-64182171D01*
X99788495Y-63988599D01*
X99788494Y-63988597D01*
X99621402Y-63821506D01*
X99621396Y-63821501D01*
X99435842Y-63691575D01*
X99392217Y-63636998D01*
X99385023Y-63567500D01*
X99416546Y-63505145D01*
X99435842Y-63488425D01*
X99468488Y-63465566D01*
X99621401Y-63358495D01*
X99788495Y-63191401D01*
X99924035Y-62997830D01*
X100023903Y-62783663D01*
X100085063Y-62555408D01*
X100105659Y-62320000D01*
X100085063Y-62084592D01*
X100032522Y-61888504D01*
X100023905Y-61856344D01*
X100023904Y-61856343D01*
X100023903Y-61856337D01*
X99924035Y-61642171D01*
X99788495Y-61448599D01*
X99788494Y-61448597D01*
X99621402Y-61281506D01*
X99621396Y-61281501D01*
X99435842Y-61151575D01*
X99392217Y-61096998D01*
X99385023Y-61027500D01*
X99416546Y-60965145D01*
X99435842Y-60948425D01*
X99468486Y-60925567D01*
X99621401Y-60818495D01*
X99788495Y-60651401D01*
X99924035Y-60457830D01*
X100023903Y-60243663D01*
X100085063Y-60015408D01*
X100105659Y-59780000D01*
X100085063Y-59544592D01*
X100032522Y-59348504D01*
X100023905Y-59316344D01*
X100023904Y-59316343D01*
X100023903Y-59316337D01*
X99924035Y-59102171D01*
X99788495Y-58908599D01*
X99788494Y-58908597D01*
X99621402Y-58741506D01*
X99621396Y-58741501D01*
X99435842Y-58611575D01*
X99392217Y-58556998D01*
X99385023Y-58487500D01*
X99416546Y-58425145D01*
X99435842Y-58408425D01*
X99468486Y-58385567D01*
X99621401Y-58278495D01*
X99788495Y-58111401D01*
X99924035Y-57917830D01*
X100023903Y-57703663D01*
X100085063Y-57475408D01*
X100105659Y-57240000D01*
X100085063Y-57004592D01*
X100032522Y-56808504D01*
X100023905Y-56776344D01*
X100023904Y-56776343D01*
X100023903Y-56776337D01*
X99924035Y-56562171D01*
X99788495Y-56368599D01*
X99788494Y-56368597D01*
X99621402Y-56201506D01*
X99621396Y-56201501D01*
X99435842Y-56071575D01*
X99392217Y-56016998D01*
X99385023Y-55947500D01*
X99416546Y-55885145D01*
X99435842Y-55868425D01*
X99468486Y-55845567D01*
X99621401Y-55738495D01*
X99788495Y-55571401D01*
X99924035Y-55377830D01*
X100023903Y-55163663D01*
X100085063Y-54935408D01*
X100105659Y-54700000D01*
X100085063Y-54464592D01*
X100032522Y-54268504D01*
X100023905Y-54236344D01*
X100023904Y-54236343D01*
X100023903Y-54236337D01*
X99924035Y-54022171D01*
X99788495Y-53828599D01*
X99788494Y-53828597D01*
X99621402Y-53661506D01*
X99621401Y-53661505D01*
X99435405Y-53531269D01*
X99391781Y-53476692D01*
X99384588Y-53407193D01*
X99416110Y-53344839D01*
X99435405Y-53328119D01*
X99621082Y-53198105D01*
X99788105Y-53031082D01*
X99923600Y-52837578D01*
X100023429Y-52623492D01*
X100023432Y-52623486D01*
X100080636Y-52410000D01*
X99183686Y-52410000D01*
X99209493Y-52369844D01*
X99250000Y-52231889D01*
X99250000Y-52088111D01*
X99209493Y-51950156D01*
X99183686Y-51910000D01*
X100080636Y-51910000D01*
X100080635Y-51909999D01*
X100023432Y-51696513D01*
X100023429Y-51696507D01*
X99923600Y-51482422D01*
X99923599Y-51482420D01*
X99788113Y-51288926D01*
X99788108Y-51288920D01*
X99621082Y-51121894D01*
X99427578Y-50986399D01*
X99213492Y-50886570D01*
X99213486Y-50886567D01*
X99000000Y-50829364D01*
X99000000Y-51724498D01*
X98892315Y-51675320D01*
X98785763Y-51660000D01*
X98714237Y-51660000D01*
X98607685Y-51675320D01*
X98500000Y-51724498D01*
X98500000Y-50829364D01*
X98499999Y-50829364D01*
X98286513Y-50886567D01*
X98286507Y-50886570D01*
X98072422Y-50986399D01*
X98072420Y-50986400D01*
X97878926Y-51121886D01*
X97878920Y-51121891D01*
X97711891Y-51288920D01*
X97711886Y-51288926D01*
X97576400Y-51482420D01*
X97576399Y-51482422D01*
X97476570Y-51696507D01*
X97476567Y-51696513D01*
X97419364Y-51909999D01*
X97419364Y-51910000D01*
X98316314Y-51910000D01*
X98290507Y-51950156D01*
X98250000Y-52088111D01*
X98250000Y-52231889D01*
X98290507Y-52369844D01*
X98316314Y-52410000D01*
X97419364Y-52410000D01*
X97476567Y-52623486D01*
X97476570Y-52623492D01*
X97576399Y-52837578D01*
X97711894Y-53031082D01*
X97878917Y-53198105D01*
X98064595Y-53328119D01*
X98108219Y-53382696D01*
X98115412Y-53452195D01*
X98083890Y-53514549D01*
X98064595Y-53531269D01*
X97878594Y-53661508D01*
X97711505Y-53828597D01*
X97575965Y-54022169D01*
X97575964Y-54022171D01*
X97476098Y-54236335D01*
X97476094Y-54236344D01*
X97414938Y-54464586D01*
X97414936Y-54464596D01*
X97394341Y-54699999D01*
X97394341Y-54700000D01*
X97414936Y-54935403D01*
X97414938Y-54935413D01*
X97476094Y-55163655D01*
X97476096Y-55163659D01*
X97476097Y-55163663D01*
X97571256Y-55367732D01*
X97575965Y-55377830D01*
X97575967Y-55377834D01*
X97684281Y-55532521D01*
X97699419Y-55554141D01*
X97711501Y-55571395D01*
X97711506Y-55571402D01*
X97878597Y-55738493D01*
X97878603Y-55738498D01*
X98064158Y-55868425D01*
X98107783Y-55923002D01*
X98114977Y-55992500D01*
X98083454Y-56054855D01*
X98064158Y-56071575D01*
X97878597Y-56201505D01*
X97711505Y-56368597D01*
X97575965Y-56562169D01*
X97575964Y-56562171D01*
X97476098Y-56776335D01*
X97476094Y-56776344D01*
X97414938Y-57004586D01*
X97414936Y-57004596D01*
X97394341Y-57239999D01*
X97394341Y-57240000D01*
X97414936Y-57475403D01*
X97414938Y-57475413D01*
X97476094Y-57703655D01*
X97476096Y-57703659D01*
X97476097Y-57703663D01*
X97571256Y-57907732D01*
X97575965Y-57917830D01*
X97575967Y-57917834D01*
X97684281Y-58072521D01*
X97699419Y-58094141D01*
X97711501Y-58111395D01*
X97711506Y-58111402D01*
X97878597Y-58278493D01*
X97878603Y-58278498D01*
X98064158Y-58408425D01*
X98107783Y-58463002D01*
X98114977Y-58532500D01*
X98083454Y-58594855D01*
X98064158Y-58611575D01*
X97878597Y-58741505D01*
X97711505Y-58908597D01*
X97575965Y-59102169D01*
X97575964Y-59102171D01*
X97476098Y-59316335D01*
X97476094Y-59316344D01*
X97414938Y-59544586D01*
X97414936Y-59544596D01*
X97394341Y-59779999D01*
X97394341Y-59780000D01*
X97414936Y-60015403D01*
X97414938Y-60015413D01*
X97476094Y-60243655D01*
X97476096Y-60243659D01*
X97476097Y-60243663D01*
X97571256Y-60447732D01*
X97575965Y-60457830D01*
X97575967Y-60457834D01*
X97684281Y-60612521D01*
X97699419Y-60634141D01*
X97711501Y-60651395D01*
X97711506Y-60651402D01*
X97878597Y-60818493D01*
X97878603Y-60818498D01*
X98064158Y-60948425D01*
X98107783Y-61003002D01*
X98114977Y-61072500D01*
X98083454Y-61134855D01*
X98064158Y-61151575D01*
X97878597Y-61281505D01*
X97711505Y-61448597D01*
X97575965Y-61642169D01*
X97575964Y-61642171D01*
X97476098Y-61856335D01*
X97476094Y-61856344D01*
X97414938Y-62084586D01*
X97414936Y-62084596D01*
X97394341Y-62319999D01*
X97394341Y-62320000D01*
X97414936Y-62555403D01*
X97414938Y-62555413D01*
X97476094Y-62783655D01*
X97476096Y-62783659D01*
X97476097Y-62783663D01*
X97571256Y-62987732D01*
X97575965Y-62997830D01*
X97575967Y-62997834D01*
X97684281Y-63152521D01*
X97699419Y-63174141D01*
X97711501Y-63191395D01*
X97711506Y-63191402D01*
X97878597Y-63358493D01*
X97878603Y-63358498D01*
X98064158Y-63488425D01*
X98107783Y-63543002D01*
X98114977Y-63612500D01*
X98083454Y-63674855D01*
X98064158Y-63691575D01*
X97878597Y-63821505D01*
X97711505Y-63988597D01*
X97575965Y-64182169D01*
X97575964Y-64182171D01*
X97476098Y-64396335D01*
X97476094Y-64396344D01*
X97414938Y-64624586D01*
X97414936Y-64624596D01*
X97394341Y-64859999D01*
X97394341Y-64860000D01*
X97414936Y-65095403D01*
X97414938Y-65095413D01*
X97476094Y-65323655D01*
X97476096Y-65323659D01*
X97476097Y-65323663D01*
X97571256Y-65527732D01*
X97575965Y-65537830D01*
X97575967Y-65537834D01*
X97684281Y-65692521D01*
X97699419Y-65714141D01*
X97711501Y-65731395D01*
X97711506Y-65731402D01*
X97878597Y-65898493D01*
X97878603Y-65898498D01*
X98064158Y-66028425D01*
X98107783Y-66083002D01*
X98114977Y-66152500D01*
X98083454Y-66214855D01*
X98064158Y-66231575D01*
X97878597Y-66361505D01*
X97711505Y-66528597D01*
X97575965Y-66722169D01*
X97575964Y-66722171D01*
X97476098Y-66936335D01*
X97476094Y-66936344D01*
X97414938Y-67164586D01*
X97414936Y-67164596D01*
X97394341Y-67399999D01*
X97394341Y-67400000D01*
X97414936Y-67635403D01*
X97414938Y-67635413D01*
X97476094Y-67863655D01*
X97476096Y-67863659D01*
X97476097Y-67863663D01*
X97571256Y-68067732D01*
X97575965Y-68077830D01*
X97575967Y-68077834D01*
X97684281Y-68232521D01*
X97699419Y-68254141D01*
X97711501Y-68271395D01*
X97711506Y-68271402D01*
X97878597Y-68438493D01*
X97878603Y-68438498D01*
X98064158Y-68568425D01*
X98107783Y-68623002D01*
X98114977Y-68692500D01*
X98083454Y-68754855D01*
X98064158Y-68771575D01*
X97878597Y-68901505D01*
X97711505Y-69068597D01*
X97575965Y-69262169D01*
X97575964Y-69262171D01*
X97476098Y-69476335D01*
X97476094Y-69476344D01*
X97414938Y-69704586D01*
X97414936Y-69704596D01*
X97394341Y-69939999D01*
X97394341Y-69940000D01*
X97414936Y-70175403D01*
X97414938Y-70175413D01*
X97476094Y-70403655D01*
X97476096Y-70403659D01*
X97476097Y-70403663D01*
X97571256Y-70607732D01*
X97575965Y-70617830D01*
X97575967Y-70617834D01*
X97684281Y-70772521D01*
X97699419Y-70794141D01*
X97711501Y-70811395D01*
X97711506Y-70811402D01*
X97878597Y-70978493D01*
X97878603Y-70978498D01*
X98064158Y-71108425D01*
X98107783Y-71163002D01*
X98114977Y-71232500D01*
X98083454Y-71294855D01*
X98064158Y-71311575D01*
X97878597Y-71441505D01*
X97711505Y-71608597D01*
X97575965Y-71802169D01*
X97575964Y-71802171D01*
X97476098Y-72016335D01*
X97476094Y-72016344D01*
X97414938Y-72244586D01*
X97414936Y-72244596D01*
X97394341Y-72479999D01*
X97394341Y-72480000D01*
X90924156Y-72480000D01*
X90905635Y-72268308D01*
X90846739Y-72048504D01*
X90750568Y-71842266D01*
X90620047Y-71655861D01*
X90620045Y-71655858D01*
X90459141Y-71494954D01*
X90272734Y-71364432D01*
X90272728Y-71364429D01*
X90214725Y-71337382D01*
X90162285Y-71291210D01*
X90143133Y-71224017D01*
X90163348Y-71157135D01*
X90214725Y-71112618D01*
X90223717Y-71108425D01*
X90272734Y-71085568D01*
X90459139Y-70955047D01*
X90620047Y-70794139D01*
X90750568Y-70607734D01*
X90846739Y-70401496D01*
X90905635Y-70181692D01*
X90925468Y-69955000D01*
X90905635Y-69728308D01*
X90846739Y-69508504D01*
X90750568Y-69302266D01*
X90620047Y-69115861D01*
X90620045Y-69115858D01*
X90459141Y-68954954D01*
X90272734Y-68824432D01*
X90272728Y-68824429D01*
X90214725Y-68797382D01*
X90162285Y-68751210D01*
X90143133Y-68684017D01*
X90163348Y-68617135D01*
X90214725Y-68572618D01*
X90223717Y-68568425D01*
X90272734Y-68545568D01*
X90459139Y-68415047D01*
X90620047Y-68254139D01*
X90750568Y-68067734D01*
X90846739Y-67861496D01*
X90905635Y-67641692D01*
X90925468Y-67415000D01*
X90905635Y-67188308D01*
X90846739Y-66968504D01*
X90750568Y-66762266D01*
X90620047Y-66575861D01*
X90620045Y-66575858D01*
X90459141Y-66414954D01*
X90272735Y-66284433D01*
X90272736Y-66284433D01*
X90272734Y-66284432D01*
X90214722Y-66257380D01*
X90162284Y-66211208D01*
X90143133Y-66144014D01*
X90163349Y-66077133D01*
X90214721Y-66032619D01*
X90272734Y-66005568D01*
X90459139Y-65875047D01*
X90620047Y-65714139D01*
X90750568Y-65527734D01*
X90846739Y-65321496D01*
X90905635Y-65101692D01*
X90925468Y-64875000D01*
X90905635Y-64648308D01*
X90846739Y-64428504D01*
X90750568Y-64222266D01*
X90620047Y-64035861D01*
X90620045Y-64035858D01*
X90459141Y-63874954D01*
X90272734Y-63744432D01*
X90272728Y-63744429D01*
X90214725Y-63717382D01*
X90162285Y-63671210D01*
X90143133Y-63604017D01*
X90163348Y-63537135D01*
X90214725Y-63492618D01*
X90272734Y-63465568D01*
X90459139Y-63335047D01*
X90620047Y-63174139D01*
X90750568Y-62987734D01*
X90846739Y-62781496D01*
X90905635Y-62561692D01*
X90925468Y-62335000D01*
X90905635Y-62108308D01*
X90846739Y-61888504D01*
X90750568Y-61682266D01*
X90620047Y-61495861D01*
X90620045Y-61495858D01*
X90459141Y-61334954D01*
X90272734Y-61204432D01*
X90272728Y-61204429D01*
X90214725Y-61177382D01*
X90162285Y-61131210D01*
X90143133Y-61064017D01*
X90163348Y-60997135D01*
X90214725Y-60952618D01*
X90272734Y-60925568D01*
X90459139Y-60795047D01*
X90620047Y-60634139D01*
X90750568Y-60447734D01*
X90846739Y-60241496D01*
X90905635Y-60021692D01*
X90925468Y-59795000D01*
X90905635Y-59568308D01*
X90846739Y-59348504D01*
X90750568Y-59142266D01*
X90620047Y-58955861D01*
X90620045Y-58955858D01*
X90459141Y-58794954D01*
X90272734Y-58664432D01*
X90272728Y-58664429D01*
X90214725Y-58637382D01*
X90162285Y-58591210D01*
X90143133Y-58524017D01*
X90163348Y-58457135D01*
X90214725Y-58412618D01*
X90223717Y-58408425D01*
X90272734Y-58385568D01*
X90459139Y-58255047D01*
X90620047Y-58094139D01*
X90750568Y-57907734D01*
X90846739Y-57701496D01*
X90905635Y-57481692D01*
X90925468Y-57255000D01*
X90905635Y-57028308D01*
X90846739Y-56808504D01*
X90750568Y-56602266D01*
X90620047Y-56415861D01*
X90620045Y-56415858D01*
X90459141Y-56254954D01*
X90272734Y-56124432D01*
X90272728Y-56124429D01*
X90214725Y-56097382D01*
X90162285Y-56051210D01*
X90143133Y-55984017D01*
X90163348Y-55917135D01*
X90214725Y-55872618D01*
X90223717Y-55868425D01*
X90272734Y-55845568D01*
X90459139Y-55715047D01*
X90620047Y-55554139D01*
X90750568Y-55367734D01*
X90846739Y-55161496D01*
X90905635Y-54941692D01*
X90925468Y-54715000D01*
X90905635Y-54488308D01*
X90846739Y-54268504D01*
X90750568Y-54062266D01*
X90620047Y-53875861D01*
X90620045Y-53875858D01*
X90459141Y-53714954D01*
X90272734Y-53584432D01*
X90272732Y-53584431D01*
X90249612Y-53573650D01*
X90214132Y-53557105D01*
X90161694Y-53510934D01*
X90142542Y-53443740D01*
X90162758Y-53376859D01*
X90214134Y-53332341D01*
X90272484Y-53305132D01*
X90458820Y-53174657D01*
X90619657Y-53013820D01*
X90750134Y-52827482D01*
X90846265Y-52621326D01*
X90846269Y-52621317D01*
X90898872Y-52425000D01*
X89935686Y-52425000D01*
X89947641Y-52413045D01*
X90005165Y-52300148D01*
X90024986Y-52175000D01*
X90005165Y-52049852D01*
X89947641Y-51936955D01*
X89935686Y-51925000D01*
X90898872Y-51925000D01*
X90898872Y-51924999D01*
X90846269Y-51728682D01*
X90846265Y-51728673D01*
X90750134Y-51522517D01*
X90619657Y-51336179D01*
X90458820Y-51175342D01*
X90272482Y-51044865D01*
X90066328Y-50948734D01*
X89870000Y-50896127D01*
X89870000Y-51859314D01*
X89858045Y-51847359D01*
X89745148Y-51789835D01*
X89651481Y-51775000D01*
X89588519Y-51775000D01*
X89494852Y-51789835D01*
X89381955Y-51847359D01*
X89370000Y-51859314D01*
X89370000Y-50896127D01*
X89173671Y-50948734D01*
X88967517Y-51044865D01*
X88781179Y-51175342D01*
X88620342Y-51336179D01*
X88489865Y-51522517D01*
X88393734Y-51728673D01*
X88393730Y-51728682D01*
X88341127Y-51924999D01*
X88341128Y-51925000D01*
X89304314Y-51925000D01*
X89292359Y-51936955D01*
X89234835Y-52049852D01*
X89215014Y-52175000D01*
X89234835Y-52300148D01*
X89292359Y-52413045D01*
X89304314Y-52425000D01*
X88341128Y-52425000D01*
X88393730Y-52621317D01*
X88393734Y-52621326D01*
X88489865Y-52827482D01*
X88620342Y-53013820D01*
X88781179Y-53174657D01*
X88967518Y-53305134D01*
X88967520Y-53305135D01*
X89025865Y-53332342D01*
X89078305Y-53378514D01*
X89097457Y-53445707D01*
X89077242Y-53512589D01*
X89025867Y-53557105D01*
X88990388Y-53573650D01*
X88967264Y-53584433D01*
X88780858Y-53714954D01*
X88619954Y-53875858D01*
X88489432Y-54062265D01*
X88489431Y-54062267D01*
X88393261Y-54268502D01*
X88393258Y-54268511D01*
X88334366Y-54488302D01*
X88334364Y-54488313D01*
X88314532Y-54714998D01*
X88314532Y-54715001D01*
X88334364Y-54941686D01*
X88334366Y-54941697D01*
X88393258Y-55161488D01*
X88393261Y-55161497D01*
X88489431Y-55367732D01*
X88489432Y-55367734D01*
X88619954Y-55554141D01*
X88780858Y-55715045D01*
X88814353Y-55738498D01*
X88967266Y-55845568D01*
X89016283Y-55868425D01*
X89025275Y-55872618D01*
X89077714Y-55918791D01*
X89096866Y-55985984D01*
X89076650Y-56052865D01*
X89025275Y-56097382D01*
X88967267Y-56124431D01*
X88967265Y-56124432D01*
X88780858Y-56254954D01*
X88619954Y-56415858D01*
X88489432Y-56602265D01*
X88489431Y-56602267D01*
X88393261Y-56808502D01*
X88393258Y-56808511D01*
X88334366Y-57028302D01*
X88334364Y-57028313D01*
X88314532Y-57254998D01*
X88314532Y-57255001D01*
X88334364Y-57481686D01*
X88334366Y-57481697D01*
X88393258Y-57701488D01*
X88393261Y-57701497D01*
X88489431Y-57907732D01*
X88489432Y-57907734D01*
X88619954Y-58094141D01*
X88780858Y-58255045D01*
X88814353Y-58278498D01*
X88967266Y-58385568D01*
X89016283Y-58408425D01*
X89025275Y-58412618D01*
X89077714Y-58458791D01*
X89096866Y-58525984D01*
X89076650Y-58592865D01*
X89025275Y-58637382D01*
X88967267Y-58664431D01*
X88967265Y-58664432D01*
X88780858Y-58794954D01*
X88619954Y-58955858D01*
X88489432Y-59142265D01*
X88489431Y-59142267D01*
X88393261Y-59348502D01*
X88393258Y-59348511D01*
X88334366Y-59568302D01*
X88334364Y-59568313D01*
X88314532Y-59794998D01*
X88314532Y-59795001D01*
X88334364Y-60021686D01*
X88334366Y-60021697D01*
X88393258Y-60241488D01*
X88393261Y-60241497D01*
X88489431Y-60447732D01*
X88489432Y-60447734D01*
X88619954Y-60634141D01*
X88780858Y-60795045D01*
X88814353Y-60818498D01*
X88967266Y-60925568D01*
X89025275Y-60952618D01*
X89077714Y-60998791D01*
X89096866Y-61065984D01*
X89076650Y-61132865D01*
X89025275Y-61177382D01*
X88967267Y-61204431D01*
X88967265Y-61204432D01*
X88780858Y-61334954D01*
X88619954Y-61495858D01*
X88489432Y-61682265D01*
X88489431Y-61682267D01*
X88393261Y-61888502D01*
X88393258Y-61888511D01*
X88334366Y-62108302D01*
X88334364Y-62108313D01*
X88314532Y-62334998D01*
X88314532Y-62335001D01*
X88334364Y-62561686D01*
X88334366Y-62561697D01*
X88393258Y-62781488D01*
X88393261Y-62781497D01*
X88489431Y-62987732D01*
X88489432Y-62987734D01*
X88619954Y-63174141D01*
X88780858Y-63335045D01*
X88814349Y-63358495D01*
X88967266Y-63465568D01*
X89025278Y-63492619D01*
X89077713Y-63538788D01*
X89096866Y-63605982D01*
X89076651Y-63672863D01*
X89025277Y-63717380D01*
X88967268Y-63744430D01*
X88967265Y-63744432D01*
X88780858Y-63874954D01*
X88619954Y-64035858D01*
X88489432Y-64222265D01*
X88489431Y-64222267D01*
X88393261Y-64428502D01*
X88393258Y-64428511D01*
X88334366Y-64648302D01*
X88334364Y-64648313D01*
X88314532Y-64874998D01*
X88314532Y-64875001D01*
X88334364Y-65101686D01*
X88334366Y-65101697D01*
X88393258Y-65321488D01*
X88393261Y-65321497D01*
X88489431Y-65527732D01*
X88489432Y-65527734D01*
X88619954Y-65714141D01*
X88780858Y-65875045D01*
X88814349Y-65898495D01*
X88967266Y-66005568D01*
X89025278Y-66032619D01*
X89077713Y-66078788D01*
X89096866Y-66145982D01*
X89076651Y-66212863D01*
X89025277Y-66257380D01*
X88967268Y-66284430D01*
X88967265Y-66284432D01*
X88780858Y-66414954D01*
X88619954Y-66575858D01*
X88489432Y-66762265D01*
X88489431Y-66762267D01*
X88393261Y-66968502D01*
X88393258Y-66968511D01*
X88334366Y-67188302D01*
X88334364Y-67188313D01*
X88314532Y-67414998D01*
X88314532Y-67415001D01*
X88334364Y-67641686D01*
X88334366Y-67641697D01*
X88393258Y-67861488D01*
X88393261Y-67861497D01*
X88489431Y-68067732D01*
X88489432Y-68067734D01*
X88619954Y-68254141D01*
X88780858Y-68415045D01*
X88814353Y-68438498D01*
X88967266Y-68545568D01*
X89016283Y-68568425D01*
X89025275Y-68572618D01*
X89077714Y-68618791D01*
X89096866Y-68685984D01*
X89076650Y-68752865D01*
X89025275Y-68797382D01*
X88967267Y-68824431D01*
X88967265Y-68824432D01*
X88780858Y-68954954D01*
X88619954Y-69115858D01*
X88489432Y-69302265D01*
X88489431Y-69302267D01*
X88393261Y-69508502D01*
X88393258Y-69508511D01*
X88334366Y-69728302D01*
X88334364Y-69728313D01*
X88314532Y-69954998D01*
X88314532Y-69955001D01*
X88334364Y-70181686D01*
X88334366Y-70181697D01*
X88393258Y-70401488D01*
X88393261Y-70401497D01*
X88489431Y-70607732D01*
X88489432Y-70607734D01*
X88619954Y-70794141D01*
X88780858Y-70955045D01*
X88814353Y-70978498D01*
X88967266Y-71085568D01*
X89016283Y-71108425D01*
X89025275Y-71112618D01*
X89077714Y-71158791D01*
X89096866Y-71225984D01*
X89076650Y-71292865D01*
X89025275Y-71337382D01*
X88967267Y-71364431D01*
X88967265Y-71364432D01*
X88780858Y-71494954D01*
X88619954Y-71655858D01*
X88489432Y-71842265D01*
X88489431Y-71842267D01*
X88393261Y-72048502D01*
X88393258Y-72048511D01*
X88334366Y-72268302D01*
X88334364Y-72268313D01*
X88314532Y-72494998D01*
X88314532Y-72495001D01*
X88334364Y-72721686D01*
X88334366Y-72721697D01*
X88393258Y-72941488D01*
X88393261Y-72941497D01*
X88489431Y-73147732D01*
X88489432Y-73147734D01*
X88619954Y-73334141D01*
X88780858Y-73495045D01*
X88827693Y-73527839D01*
X88967266Y-73625568D01*
X89025275Y-73652618D01*
X89077714Y-73698791D01*
X89096866Y-73765984D01*
X89076650Y-73832865D01*
X89025275Y-73877382D01*
X88967267Y-73904431D01*
X88967265Y-73904432D01*
X88780858Y-74034954D01*
X88619954Y-74195858D01*
X88489432Y-74382265D01*
X88489431Y-74382267D01*
X88393261Y-74588502D01*
X88393258Y-74588511D01*
X88334366Y-74808302D01*
X88334364Y-74808313D01*
X88314532Y-75034998D01*
X88314532Y-75035001D01*
X83305468Y-75035001D01*
X83305468Y-75035000D01*
X83285635Y-74808308D01*
X83226739Y-74588504D01*
X83130568Y-74382266D01*
X83000047Y-74195861D01*
X83000045Y-74195858D01*
X82839141Y-74034954D01*
X82652734Y-73904432D01*
X82652728Y-73904429D01*
X82594725Y-73877382D01*
X82542285Y-73831210D01*
X82523133Y-73764017D01*
X82543348Y-73697135D01*
X82594725Y-73652618D01*
X82652734Y-73625568D01*
X82839139Y-73495047D01*
X83000047Y-73334139D01*
X83130568Y-73147734D01*
X83226739Y-72941496D01*
X83285635Y-72721692D01*
X83305468Y-72495000D01*
X83285635Y-72268308D01*
X83226739Y-72048504D01*
X83130568Y-71842266D01*
X83000047Y-71655861D01*
X83000045Y-71655858D01*
X82839141Y-71494954D01*
X82652734Y-71364432D01*
X82652728Y-71364429D01*
X82594725Y-71337382D01*
X82542285Y-71291210D01*
X82523133Y-71224017D01*
X82543348Y-71157135D01*
X82594725Y-71112618D01*
X82603717Y-71108425D01*
X82652734Y-71085568D01*
X82839139Y-70955047D01*
X83000047Y-70794139D01*
X83130568Y-70607734D01*
X83226739Y-70401496D01*
X83285635Y-70181692D01*
X83305468Y-69955000D01*
X83285635Y-69728308D01*
X83226739Y-69508504D01*
X83130568Y-69302266D01*
X83000047Y-69115861D01*
X83000045Y-69115858D01*
X82839141Y-68954954D01*
X82652734Y-68824432D01*
X82652728Y-68824429D01*
X82594725Y-68797382D01*
X82542285Y-68751210D01*
X82523133Y-68684017D01*
X82543348Y-68617135D01*
X82594725Y-68572618D01*
X82603717Y-68568425D01*
X82652734Y-68545568D01*
X82839139Y-68415047D01*
X83000047Y-68254139D01*
X83130568Y-68067734D01*
X83226739Y-67861496D01*
X83285635Y-67641692D01*
X83305468Y-67415000D01*
X83285635Y-67188308D01*
X83226739Y-66968504D01*
X83130568Y-66762266D01*
X83000047Y-66575861D01*
X83000045Y-66575858D01*
X82839141Y-66414954D01*
X82652735Y-66284433D01*
X82652736Y-66284433D01*
X82652734Y-66284432D01*
X82594722Y-66257380D01*
X82542284Y-66211208D01*
X82523133Y-66144014D01*
X82543349Y-66077133D01*
X82594721Y-66032619D01*
X82652734Y-66005568D01*
X82839139Y-65875047D01*
X83000047Y-65714139D01*
X83130568Y-65527734D01*
X83226739Y-65321496D01*
X83285635Y-65101692D01*
X83305468Y-64875000D01*
X83285635Y-64648308D01*
X83226739Y-64428504D01*
X83130568Y-64222266D01*
X83000047Y-64035861D01*
X83000045Y-64035858D01*
X82839141Y-63874954D01*
X82652735Y-63744433D01*
X82652736Y-63744433D01*
X82652734Y-63744432D01*
X82594722Y-63717380D01*
X82542284Y-63671208D01*
X82523133Y-63604014D01*
X82543349Y-63537133D01*
X82594721Y-63492619D01*
X82652734Y-63465568D01*
X82839139Y-63335047D01*
X83000047Y-63174139D01*
X83130568Y-62987734D01*
X83226739Y-62781496D01*
X83285635Y-62561692D01*
X83305468Y-62335000D01*
X83285635Y-62108308D01*
X83226739Y-61888504D01*
X83130568Y-61682266D01*
X83000047Y-61495861D01*
X83000045Y-61495858D01*
X82839141Y-61334954D01*
X82652735Y-61204433D01*
X82652736Y-61204433D01*
X82652734Y-61204432D01*
X82594722Y-61177380D01*
X82542284Y-61131208D01*
X82523133Y-61064014D01*
X82543349Y-60997133D01*
X82594721Y-60952619D01*
X82652734Y-60925568D01*
X82839139Y-60795047D01*
X83000047Y-60634139D01*
X83130568Y-60447734D01*
X83226739Y-60241496D01*
X83285635Y-60021692D01*
X83305468Y-59795000D01*
X83285635Y-59568308D01*
X83226739Y-59348504D01*
X83130568Y-59142266D01*
X83000047Y-58955861D01*
X83000045Y-58955858D01*
X82839141Y-58794954D01*
X82652734Y-58664432D01*
X82652728Y-58664429D01*
X82594725Y-58637382D01*
X82542285Y-58591210D01*
X82523133Y-58524017D01*
X82543348Y-58457135D01*
X82594725Y-58412618D01*
X82603717Y-58408425D01*
X82652734Y-58385568D01*
X82839139Y-58255047D01*
X83000047Y-58094139D01*
X83130568Y-57907734D01*
X83226739Y-57701496D01*
X83285635Y-57481692D01*
X83305468Y-57255000D01*
X83285635Y-57028308D01*
X83226739Y-56808504D01*
X83130568Y-56602266D01*
X83000047Y-56415861D01*
X83000045Y-56415858D01*
X82839141Y-56254954D01*
X82652734Y-56124432D01*
X82652728Y-56124429D01*
X82594725Y-56097382D01*
X82542285Y-56051210D01*
X82523133Y-55984017D01*
X82543348Y-55917135D01*
X82594725Y-55872618D01*
X82603717Y-55868425D01*
X82652734Y-55845568D01*
X82839139Y-55715047D01*
X83000047Y-55554139D01*
X83130568Y-55367734D01*
X83226739Y-55161496D01*
X83285635Y-54941692D01*
X83305468Y-54715000D01*
X83285635Y-54488308D01*
X83226739Y-54268504D01*
X83130568Y-54062266D01*
X83000047Y-53875861D01*
X83000045Y-53875858D01*
X82839143Y-53714956D01*
X82814536Y-53697726D01*
X82770912Y-53643149D01*
X82763719Y-53573650D01*
X82795241Y-53511296D01*
X82855471Y-53475882D01*
X82872404Y-53472861D01*
X82907483Y-53469091D01*
X83042331Y-53418796D01*
X83157546Y-53332546D01*
X83243796Y-53217331D01*
X83294091Y-53082483D01*
X83300500Y-53022873D01*
X83300499Y-51327128D01*
X83294091Y-51267517D01*
X83275442Y-51217517D01*
X83243797Y-51132671D01*
X83243793Y-51132664D01*
X83157547Y-51017455D01*
X83157544Y-51017452D01*
X83042335Y-50931206D01*
X83042328Y-50931202D01*
X82907482Y-50880908D01*
X82907483Y-50880908D01*
X82847883Y-50874501D01*
X82847881Y-50874500D01*
X82847873Y-50874500D01*
X82847864Y-50874500D01*
X81152129Y-50874500D01*
X81152123Y-50874501D01*
X81092516Y-50880908D01*
X80957671Y-50931202D01*
X80957664Y-50931206D01*
X80842455Y-51017452D01*
X80842452Y-51017455D01*
X80756206Y-51132664D01*
X80756202Y-51132671D01*
X80705908Y-51267517D01*
X80699501Y-51327116D01*
X80699501Y-51327123D01*
X80699500Y-51327135D01*
X80699500Y-53022870D01*
X80699501Y-53022876D01*
X80705908Y-53082483D01*
X80756202Y-53217328D01*
X80756206Y-53217335D01*
X80842452Y-53332544D01*
X80842455Y-53332547D01*
X80957664Y-53418793D01*
X80957671Y-53418797D01*
X80977244Y-53426097D01*
X81092517Y-53469091D01*
X81127596Y-53472862D01*
X81192144Y-53499599D01*
X81231993Y-53556991D01*
X81234488Y-53626816D01*
X81198836Y-53686905D01*
X81185464Y-53697725D01*
X81160858Y-53714954D01*
X80999954Y-53875858D01*
X80869432Y-54062265D01*
X80869431Y-54062267D01*
X80773261Y-54268502D01*
X80773258Y-54268511D01*
X80714366Y-54488302D01*
X80714364Y-54488313D01*
X80694532Y-54714998D01*
X80694532Y-54715001D01*
X80714364Y-54941686D01*
X80714366Y-54941697D01*
X80773258Y-55161488D01*
X80773261Y-55161497D01*
X80869431Y-55367732D01*
X80869432Y-55367734D01*
X80999954Y-55554141D01*
X81160858Y-55715045D01*
X81194353Y-55738498D01*
X81347266Y-55845568D01*
X81396283Y-55868425D01*
X81405275Y-55872618D01*
X81457714Y-55918791D01*
X81476866Y-55985984D01*
X81456650Y-56052865D01*
X81405275Y-56097382D01*
X81347267Y-56124431D01*
X81347265Y-56124432D01*
X81160858Y-56254954D01*
X80999954Y-56415858D01*
X80869432Y-56602265D01*
X80869431Y-56602267D01*
X80773261Y-56808502D01*
X80773258Y-56808511D01*
X80714366Y-57028302D01*
X80714364Y-57028313D01*
X80694532Y-57254998D01*
X80694532Y-57255001D01*
X80714364Y-57481686D01*
X80714366Y-57481697D01*
X80773258Y-57701488D01*
X80773261Y-57701497D01*
X80869431Y-57907732D01*
X80869432Y-57907734D01*
X80999954Y-58094141D01*
X81160858Y-58255045D01*
X81194353Y-58278498D01*
X81347266Y-58385568D01*
X81396283Y-58408425D01*
X81405275Y-58412618D01*
X81457714Y-58458791D01*
X81476866Y-58525984D01*
X81456650Y-58592865D01*
X81405275Y-58637382D01*
X81347267Y-58664431D01*
X81347265Y-58664432D01*
X81160858Y-58794954D01*
X80999954Y-58955858D01*
X80869432Y-59142265D01*
X80869431Y-59142267D01*
X80773261Y-59348502D01*
X80773258Y-59348511D01*
X80714366Y-59568302D01*
X80714364Y-59568313D01*
X80694532Y-59794998D01*
X80694532Y-59795001D01*
X80714364Y-60021686D01*
X80714366Y-60021697D01*
X80773258Y-60241488D01*
X80773261Y-60241497D01*
X80869431Y-60447732D01*
X80869432Y-60447734D01*
X80999954Y-60634141D01*
X81160858Y-60795045D01*
X81194353Y-60818498D01*
X81347266Y-60925568D01*
X81405275Y-60952618D01*
X81457714Y-60998791D01*
X81476866Y-61065984D01*
X81456650Y-61132865D01*
X81405275Y-61177382D01*
X81347267Y-61204431D01*
X81347265Y-61204432D01*
X81160858Y-61334954D01*
X80999954Y-61495858D01*
X80869432Y-61682265D01*
X80869431Y-61682267D01*
X80773261Y-61888502D01*
X80773258Y-61888511D01*
X80714366Y-62108302D01*
X80714364Y-62108313D01*
X80694532Y-62334998D01*
X80694532Y-62335001D01*
X80714364Y-62561686D01*
X80714366Y-62561697D01*
X80773258Y-62781488D01*
X80773261Y-62781497D01*
X80869431Y-62987732D01*
X80869432Y-62987734D01*
X80999954Y-63174141D01*
X81160858Y-63335045D01*
X81194353Y-63358498D01*
X81347266Y-63465568D01*
X81405275Y-63492618D01*
X81457714Y-63538791D01*
X81476866Y-63605984D01*
X81456650Y-63672865D01*
X81405275Y-63717382D01*
X81347267Y-63744431D01*
X81347265Y-63744432D01*
X81160858Y-63874954D01*
X80999954Y-64035858D01*
X80869432Y-64222265D01*
X80869431Y-64222267D01*
X80773261Y-64428502D01*
X80773258Y-64428511D01*
X80714366Y-64648302D01*
X80714364Y-64648313D01*
X80694532Y-64874998D01*
X80694532Y-64875001D01*
X80714364Y-65101686D01*
X80714366Y-65101697D01*
X80773258Y-65321488D01*
X80773261Y-65321497D01*
X80869431Y-65527732D01*
X80869432Y-65527734D01*
X80999954Y-65714141D01*
X81160858Y-65875045D01*
X81194349Y-65898495D01*
X81347266Y-66005568D01*
X81405278Y-66032619D01*
X81457713Y-66078788D01*
X81476866Y-66145982D01*
X81456651Y-66212863D01*
X81405277Y-66257380D01*
X81347268Y-66284430D01*
X81347265Y-66284432D01*
X81160858Y-66414954D01*
X80999954Y-66575858D01*
X80869432Y-66762265D01*
X80869431Y-66762267D01*
X80773261Y-66968502D01*
X80773258Y-66968511D01*
X80714366Y-67188302D01*
X80714364Y-67188313D01*
X80694532Y-67414998D01*
X80694532Y-67415001D01*
X80714364Y-67641686D01*
X80714366Y-67641697D01*
X80773258Y-67861488D01*
X80773261Y-67861497D01*
X80869431Y-68067732D01*
X80869432Y-68067734D01*
X80999954Y-68254141D01*
X81160858Y-68415045D01*
X81194353Y-68438498D01*
X81347266Y-68545568D01*
X81396283Y-68568425D01*
X81405275Y-68572618D01*
X81457714Y-68618791D01*
X81476866Y-68685984D01*
X81456650Y-68752865D01*
X81405275Y-68797382D01*
X81347267Y-68824431D01*
X81347265Y-68824432D01*
X81160858Y-68954954D01*
X80999954Y-69115858D01*
X80869432Y-69302265D01*
X80869431Y-69302267D01*
X80773261Y-69508502D01*
X80773258Y-69508511D01*
X80714366Y-69728302D01*
X80714364Y-69728313D01*
X80694532Y-69954998D01*
X80694532Y-69955001D01*
X80714364Y-70181686D01*
X80714366Y-70181697D01*
X80773258Y-70401488D01*
X80773261Y-70401497D01*
X80869431Y-70607732D01*
X80869432Y-70607734D01*
X80999954Y-70794141D01*
X81160858Y-70955045D01*
X81194353Y-70978498D01*
X81347266Y-71085568D01*
X81396283Y-71108425D01*
X81405275Y-71112618D01*
X81457714Y-71158791D01*
X81476866Y-71225984D01*
X81456650Y-71292865D01*
X81405275Y-71337382D01*
X81347267Y-71364431D01*
X81347265Y-71364432D01*
X81160858Y-71494954D01*
X80999954Y-71655858D01*
X80869432Y-71842265D01*
X80869431Y-71842267D01*
X80773261Y-72048502D01*
X80773258Y-72048511D01*
X80714366Y-72268302D01*
X80714364Y-72268313D01*
X80694532Y-72494998D01*
X80694532Y-72495001D01*
X80714364Y-72721686D01*
X80714366Y-72721697D01*
X80773258Y-72941488D01*
X80773261Y-72941497D01*
X80869431Y-73147732D01*
X80869432Y-73147734D01*
X80999954Y-73334141D01*
X81160858Y-73495045D01*
X81207693Y-73527839D01*
X81347266Y-73625568D01*
X81405275Y-73652618D01*
X81457714Y-73698791D01*
X81476866Y-73765984D01*
X81456650Y-73832865D01*
X81405275Y-73877382D01*
X81347267Y-73904431D01*
X81347265Y-73904432D01*
X81160858Y-74034954D01*
X80999954Y-74195858D01*
X80869432Y-74382265D01*
X80869431Y-74382267D01*
X80773261Y-74588502D01*
X80773258Y-74588511D01*
X80714366Y-74808302D01*
X80714364Y-74808313D01*
X80694532Y-75034998D01*
X80694532Y-75035001D01*
X74355659Y-75035001D01*
X74355659Y-75035000D01*
X74335063Y-74799592D01*
X74273903Y-74571337D01*
X74174035Y-74357171D01*
X74038495Y-74163599D01*
X74038494Y-74163597D01*
X73871402Y-73996506D01*
X73871396Y-73996501D01*
X73685842Y-73866575D01*
X73642217Y-73811998D01*
X73635023Y-73742500D01*
X73666546Y-73680145D01*
X73685842Y-73663425D01*
X73739909Y-73625567D01*
X73871401Y-73533495D01*
X74038495Y-73366401D01*
X74174035Y-73172830D01*
X74273903Y-72958663D01*
X74335063Y-72730408D01*
X74355659Y-72495000D01*
X74335063Y-72259592D01*
X74273903Y-72031337D01*
X74174035Y-71817171D01*
X74038495Y-71623599D01*
X74038494Y-71623597D01*
X73871402Y-71456506D01*
X73871396Y-71456501D01*
X73685842Y-71326575D01*
X73642217Y-71271998D01*
X73635023Y-71202500D01*
X73666546Y-71140145D01*
X73685842Y-71123425D01*
X73739909Y-71085567D01*
X73871401Y-70993495D01*
X74038495Y-70826401D01*
X74174035Y-70632830D01*
X74273903Y-70418663D01*
X74335063Y-70190408D01*
X74355659Y-69955000D01*
X74335063Y-69719592D01*
X74273903Y-69491337D01*
X74174035Y-69277171D01*
X74038495Y-69083599D01*
X74038494Y-69083597D01*
X73871402Y-68916506D01*
X73871396Y-68916501D01*
X73685842Y-68786575D01*
X73642217Y-68731998D01*
X73635023Y-68662500D01*
X73666546Y-68600145D01*
X73685842Y-68583425D01*
X73739909Y-68545567D01*
X73871401Y-68453495D01*
X74038495Y-68286401D01*
X74174035Y-68092830D01*
X74273903Y-67878663D01*
X74335063Y-67650408D01*
X74355659Y-67415000D01*
X74335063Y-67179592D01*
X74273903Y-66951337D01*
X74174035Y-66737171D01*
X74038495Y-66543599D01*
X74038494Y-66543597D01*
X73871402Y-66376506D01*
X73871396Y-66376501D01*
X73685842Y-66246575D01*
X73642217Y-66191998D01*
X73635023Y-66122500D01*
X73666546Y-66060145D01*
X73685842Y-66043425D01*
X73739910Y-66005566D01*
X73871401Y-65913495D01*
X74038495Y-65746401D01*
X74174035Y-65552830D01*
X74273903Y-65338663D01*
X74335063Y-65110408D01*
X74355659Y-64875000D01*
X74335063Y-64639592D01*
X74273903Y-64411337D01*
X74174035Y-64197171D01*
X74038495Y-64003599D01*
X74038494Y-64003597D01*
X73871402Y-63836506D01*
X73871396Y-63836501D01*
X73685842Y-63706575D01*
X73642217Y-63651998D01*
X73635023Y-63582500D01*
X73666546Y-63520145D01*
X73685842Y-63503425D01*
X73739910Y-63465566D01*
X73871401Y-63373495D01*
X74038495Y-63206401D01*
X74174035Y-63012830D01*
X74273903Y-62798663D01*
X74335063Y-62570408D01*
X74355659Y-62335000D01*
X74335063Y-62099592D01*
X74273903Y-61871337D01*
X74174035Y-61657171D01*
X74038495Y-61463599D01*
X74038494Y-61463597D01*
X73871402Y-61296506D01*
X73871396Y-61296501D01*
X73685842Y-61166575D01*
X73642217Y-61111998D01*
X73635023Y-61042500D01*
X73666546Y-60980145D01*
X73685842Y-60963425D01*
X73739909Y-60925567D01*
X73871401Y-60833495D01*
X74038495Y-60666401D01*
X74174035Y-60472830D01*
X74273903Y-60258663D01*
X74335063Y-60030408D01*
X74355659Y-59795000D01*
X74335063Y-59559592D01*
X74273903Y-59331337D01*
X74174035Y-59117171D01*
X74038495Y-58923599D01*
X74038494Y-58923597D01*
X73871402Y-58756506D01*
X73871396Y-58756501D01*
X73685842Y-58626575D01*
X73642217Y-58571998D01*
X73635023Y-58502500D01*
X73666546Y-58440145D01*
X73685842Y-58423425D01*
X73739909Y-58385567D01*
X73871401Y-58293495D01*
X74038495Y-58126401D01*
X74174035Y-57932830D01*
X74273903Y-57718663D01*
X74335063Y-57490408D01*
X74355659Y-57255000D01*
X74335063Y-57019592D01*
X74273903Y-56791337D01*
X74174035Y-56577171D01*
X74038495Y-56383599D01*
X74038494Y-56383597D01*
X73871402Y-56216506D01*
X73871396Y-56216501D01*
X73685842Y-56086575D01*
X73642217Y-56031998D01*
X73635023Y-55962500D01*
X73666546Y-55900145D01*
X73685842Y-55883425D01*
X73739909Y-55845567D01*
X73871401Y-55753495D01*
X74038495Y-55586401D01*
X74174035Y-55392830D01*
X74273903Y-55178663D01*
X74335063Y-54950408D01*
X74355659Y-54715000D01*
X74335063Y-54479592D01*
X74273903Y-54251337D01*
X74174035Y-54037171D01*
X74038495Y-53843599D01*
X73916567Y-53721671D01*
X73883084Y-53660351D01*
X73888068Y-53590659D01*
X73929939Y-53534725D01*
X73960915Y-53517810D01*
X74092331Y-53468796D01*
X74207546Y-53382546D01*
X74293796Y-53267331D01*
X74344091Y-53132483D01*
X74350500Y-53072873D01*
X74350499Y-51277128D01*
X74344091Y-51217517D01*
X74293796Y-51082669D01*
X74293795Y-51082668D01*
X74293793Y-51082664D01*
X74207547Y-50967455D01*
X74207544Y-50967452D01*
X74092335Y-50881206D01*
X74092328Y-50881202D01*
X73957482Y-50830908D01*
X73957483Y-50830908D01*
X73897883Y-50824501D01*
X73897881Y-50824500D01*
X73897873Y-50824500D01*
X73897864Y-50824500D01*
X72102129Y-50824500D01*
X72102123Y-50824501D01*
X72042516Y-50830908D01*
X71907671Y-50881202D01*
X71907664Y-50881206D01*
X71792455Y-50967452D01*
X71792452Y-50967455D01*
X71706206Y-51082664D01*
X71706202Y-51082671D01*
X71655908Y-51217517D01*
X71650533Y-51267516D01*
X71649501Y-51277123D01*
X71649500Y-51277135D01*
X71649500Y-53072870D01*
X71649501Y-53072876D01*
X71655908Y-53132483D01*
X71706202Y-53267328D01*
X71706206Y-53267335D01*
X71792452Y-53382544D01*
X71792455Y-53382547D01*
X71907664Y-53468793D01*
X71907671Y-53468797D01*
X72039081Y-53517810D01*
X72095015Y-53559681D01*
X72119432Y-53625145D01*
X72104580Y-53693418D01*
X72083430Y-53721673D01*
X71961503Y-53843600D01*
X71825965Y-54037169D01*
X71825964Y-54037171D01*
X71726098Y-54251335D01*
X71726094Y-54251344D01*
X71664938Y-54479586D01*
X71664936Y-54479596D01*
X71644341Y-54714999D01*
X71644341Y-54715000D01*
X71664936Y-54950403D01*
X71664938Y-54950413D01*
X71726094Y-55178655D01*
X71726096Y-55178659D01*
X71726097Y-55178663D01*
X71814262Y-55367732D01*
X71825965Y-55392830D01*
X71825967Y-55392834D01*
X71961501Y-55586395D01*
X71961506Y-55586402D01*
X72128597Y-55753493D01*
X72128603Y-55753498D01*
X72314158Y-55883425D01*
X72357783Y-55938002D01*
X72364977Y-56007500D01*
X72333454Y-56069855D01*
X72314158Y-56086575D01*
X72128597Y-56216505D01*
X71961505Y-56383597D01*
X71825965Y-56577169D01*
X71825964Y-56577171D01*
X71726098Y-56791335D01*
X71726094Y-56791344D01*
X71664938Y-57019586D01*
X71664936Y-57019596D01*
X71644341Y-57254999D01*
X71644341Y-57255000D01*
X71664936Y-57490403D01*
X71664938Y-57490413D01*
X71726094Y-57718655D01*
X71726096Y-57718659D01*
X71726097Y-57718663D01*
X71814262Y-57907732D01*
X71825965Y-57932830D01*
X71825967Y-57932834D01*
X71961501Y-58126395D01*
X71961506Y-58126402D01*
X72128597Y-58293493D01*
X72128603Y-58293498D01*
X72314158Y-58423425D01*
X72357783Y-58478002D01*
X72364977Y-58547500D01*
X72333454Y-58609855D01*
X72314158Y-58626575D01*
X72128597Y-58756505D01*
X71961505Y-58923597D01*
X71825965Y-59117169D01*
X71825964Y-59117171D01*
X71726098Y-59331335D01*
X71726094Y-59331344D01*
X71664938Y-59559586D01*
X71664936Y-59559596D01*
X71644341Y-59794999D01*
X71644341Y-59795000D01*
X71664936Y-60030403D01*
X71664938Y-60030413D01*
X71726094Y-60258655D01*
X71726096Y-60258659D01*
X71726097Y-60258663D01*
X71814262Y-60447732D01*
X71825965Y-60472830D01*
X71825967Y-60472834D01*
X71961501Y-60666395D01*
X71961506Y-60666402D01*
X72128597Y-60833493D01*
X72128603Y-60833498D01*
X72314158Y-60963425D01*
X72357783Y-61018002D01*
X72364977Y-61087500D01*
X72333454Y-61149855D01*
X72314158Y-61166575D01*
X72128597Y-61296505D01*
X71961505Y-61463597D01*
X71825965Y-61657169D01*
X71825964Y-61657171D01*
X71726098Y-61871335D01*
X71726094Y-61871344D01*
X71664938Y-62099586D01*
X71664936Y-62099596D01*
X71644341Y-62334999D01*
X71644341Y-62335000D01*
X71664936Y-62570403D01*
X71664938Y-62570413D01*
X71726094Y-62798655D01*
X71726096Y-62798659D01*
X71726097Y-62798663D01*
X71814262Y-62987732D01*
X71825965Y-63012830D01*
X71825967Y-63012834D01*
X71961501Y-63206395D01*
X71961506Y-63206402D01*
X72128597Y-63373493D01*
X72128603Y-63373498D01*
X72314158Y-63503425D01*
X72357783Y-63558002D01*
X72364977Y-63627500D01*
X72333454Y-63689855D01*
X72314158Y-63706575D01*
X72128597Y-63836505D01*
X71961505Y-64003597D01*
X71825965Y-64197169D01*
X71825964Y-64197171D01*
X71726098Y-64411335D01*
X71726094Y-64411344D01*
X71664938Y-64639586D01*
X71664936Y-64639596D01*
X71644341Y-64874999D01*
X71644341Y-64875000D01*
X71664936Y-65110403D01*
X71664938Y-65110413D01*
X71726094Y-65338655D01*
X71726096Y-65338659D01*
X71726097Y-65338663D01*
X71814262Y-65527732D01*
X71825965Y-65552830D01*
X71825967Y-65552834D01*
X71961501Y-65746395D01*
X71961506Y-65746402D01*
X72128597Y-65913493D01*
X72128603Y-65913498D01*
X72314158Y-66043425D01*
X72357783Y-66098002D01*
X72364977Y-66167500D01*
X72333454Y-66229855D01*
X72314158Y-66246575D01*
X72128597Y-66376505D01*
X71961505Y-66543597D01*
X71825965Y-66737169D01*
X71825964Y-66737171D01*
X71726098Y-66951335D01*
X71726094Y-66951344D01*
X71664938Y-67179586D01*
X71664936Y-67179596D01*
X71644341Y-67414999D01*
X71644341Y-67415000D01*
X71664936Y-67650403D01*
X71664938Y-67650413D01*
X71726094Y-67878655D01*
X71726096Y-67878659D01*
X71726097Y-67878663D01*
X71814262Y-68067732D01*
X71825965Y-68092830D01*
X71825967Y-68092834D01*
X71961501Y-68286395D01*
X71961506Y-68286402D01*
X72128597Y-68453493D01*
X72128603Y-68453498D01*
X72314158Y-68583425D01*
X72357783Y-68638002D01*
X72364977Y-68707500D01*
X72333454Y-68769855D01*
X72314158Y-68786575D01*
X72128597Y-68916505D01*
X71961505Y-69083597D01*
X71825965Y-69277169D01*
X71825964Y-69277171D01*
X71726098Y-69491335D01*
X71726094Y-69491344D01*
X71664938Y-69719586D01*
X71664936Y-69719596D01*
X71644341Y-69954999D01*
X71644341Y-69955000D01*
X71664936Y-70190403D01*
X71664938Y-70190413D01*
X71726094Y-70418655D01*
X71726096Y-70418659D01*
X71726097Y-70418663D01*
X71814262Y-70607732D01*
X71825965Y-70632830D01*
X71825967Y-70632834D01*
X71961501Y-70826395D01*
X71961506Y-70826402D01*
X72128597Y-70993493D01*
X72128603Y-70993498D01*
X72314158Y-71123425D01*
X72357783Y-71178002D01*
X72364977Y-71247500D01*
X72333454Y-71309855D01*
X72314158Y-71326575D01*
X72128597Y-71456505D01*
X71961505Y-71623597D01*
X71825965Y-71817169D01*
X71825964Y-71817171D01*
X71726098Y-72031335D01*
X71726094Y-72031344D01*
X71664938Y-72259586D01*
X71664936Y-72259596D01*
X71644341Y-72494999D01*
X71644341Y-72495000D01*
X71664936Y-72730403D01*
X71664938Y-72730413D01*
X71726094Y-72958655D01*
X71726096Y-72958659D01*
X71726097Y-72958663D01*
X71814262Y-73147732D01*
X71825965Y-73172830D01*
X71825967Y-73172834D01*
X71961501Y-73366395D01*
X71961506Y-73366402D01*
X72128597Y-73533493D01*
X72128603Y-73533498D01*
X72314158Y-73663425D01*
X72357783Y-73718002D01*
X72364977Y-73787500D01*
X72333454Y-73849855D01*
X72314158Y-73866575D01*
X72128597Y-73996505D01*
X71961505Y-74163597D01*
X71825965Y-74357169D01*
X71825964Y-74357171D01*
X71726098Y-74571335D01*
X71726094Y-74571344D01*
X71664938Y-74799586D01*
X71664936Y-74799596D01*
X71644341Y-75034999D01*
X71644341Y-75035000D01*
X70800500Y-75035000D01*
X70800500Y-48450000D01*
X91494341Y-48450000D01*
X91514936Y-48685403D01*
X91514938Y-48685413D01*
X91576094Y-48913655D01*
X91576096Y-48913659D01*
X91576097Y-48913663D01*
X91603498Y-48972424D01*
X91675965Y-49127830D01*
X91675967Y-49127834D01*
X91784281Y-49282521D01*
X91811505Y-49321401D01*
X91978599Y-49488495D01*
X92075384Y-49556265D01*
X92172165Y-49624032D01*
X92172167Y-49624033D01*
X92172170Y-49624035D01*
X92386337Y-49723903D01*
X92614592Y-49785063D01*
X92802918Y-49801539D01*
X92849999Y-49805659D01*
X92850000Y-49805659D01*
X92850001Y-49805659D01*
X92889234Y-49802226D01*
X93085408Y-49785063D01*
X93313663Y-49723903D01*
X93527830Y-49624035D01*
X93721401Y-49488495D01*
X93888495Y-49321401D01*
X94024035Y-49127830D01*
X94123903Y-48913663D01*
X94185063Y-48685408D01*
X94205659Y-48450000D01*
X94185063Y-48214592D01*
X94123903Y-47986337D01*
X94024035Y-47772171D01*
X93888495Y-47578599D01*
X93888494Y-47578597D01*
X93721402Y-47411506D01*
X93721395Y-47411501D01*
X93527834Y-47275967D01*
X93527830Y-47275965D01*
X93527828Y-47275964D01*
X93313663Y-47176097D01*
X93313659Y-47176096D01*
X93313655Y-47176094D01*
X93085413Y-47114938D01*
X93085403Y-47114936D01*
X92850001Y-47094341D01*
X92849999Y-47094341D01*
X92614596Y-47114936D01*
X92614586Y-47114938D01*
X92386344Y-47176094D01*
X92386335Y-47176098D01*
X92172171Y-47275964D01*
X92172169Y-47275965D01*
X91978597Y-47411505D01*
X91811505Y-47578597D01*
X91675965Y-47772169D01*
X91675964Y-47772171D01*
X91576098Y-47986335D01*
X91576094Y-47986344D01*
X91514938Y-48214586D01*
X91514936Y-48214596D01*
X91494341Y-48449999D01*
X91494341Y-48450000D01*
X70800500Y-48450000D01*
X70800500Y-44847844D01*
X91500000Y-44847844D01*
X91506401Y-44907372D01*
X91506403Y-44907379D01*
X91556645Y-45042086D01*
X91556649Y-45042093D01*
X91642809Y-45157187D01*
X91642812Y-45157190D01*
X91757906Y-45243350D01*
X91757913Y-45243354D01*
X91892620Y-45293596D01*
X91892627Y-45293598D01*
X91952155Y-45299999D01*
X91952172Y-45300000D01*
X92600000Y-45300000D01*
X92600000Y-44385501D01*
X92707685Y-44434680D01*
X92814237Y-44450000D01*
X92885763Y-44450000D01*
X92992315Y-44434680D01*
X93100000Y-44385501D01*
X93100000Y-45300000D01*
X93747828Y-45300000D01*
X93747844Y-45299999D01*
X93807372Y-45293598D01*
X93807379Y-45293596D01*
X93942086Y-45243354D01*
X93942093Y-45243350D01*
X94057187Y-45157190D01*
X94057190Y-45157187D01*
X94143350Y-45042093D01*
X94143354Y-45042086D01*
X94193596Y-44907379D01*
X94193598Y-44907372D01*
X94199999Y-44847844D01*
X94200000Y-44847827D01*
X94200000Y-44200000D01*
X93283686Y-44200000D01*
X93309493Y-44159844D01*
X93350000Y-44021889D01*
X93350000Y-43878111D01*
X93309493Y-43740156D01*
X93283686Y-43700000D01*
X94199999Y-43700000D01*
X94200000Y-43052172D01*
X94199999Y-43052155D01*
X94193598Y-42992627D01*
X94193596Y-42992620D01*
X94143354Y-42857913D01*
X94143350Y-42857906D01*
X94057190Y-42742812D01*
X94057187Y-42742809D01*
X93942093Y-42656649D01*
X93942086Y-42656645D01*
X93807379Y-42606403D01*
X93807372Y-42606401D01*
X93747844Y-42600000D01*
X93100000Y-42600000D01*
X93100000Y-43514498D01*
X92992315Y-43465320D01*
X92885763Y-43450000D01*
X92814237Y-43450000D01*
X92707685Y-43465320D01*
X92600000Y-43514498D01*
X92600000Y-42600000D01*
X91952155Y-42600000D01*
X91892627Y-42606401D01*
X91892620Y-42606403D01*
X91757913Y-42656645D01*
X91757906Y-42656649D01*
X91642812Y-42742809D01*
X91642809Y-42742812D01*
X91556649Y-42857906D01*
X91556645Y-42857913D01*
X91506403Y-42992620D01*
X91506401Y-42992627D01*
X91500000Y-43052155D01*
X91500000Y-43700000D01*
X92416314Y-43700000D01*
X92390507Y-43740156D01*
X92350000Y-43878111D01*
X92350000Y-44021889D01*
X92390507Y-44159844D01*
X92416314Y-44200000D01*
X91500000Y-44200000D01*
X91500000Y-44847844D01*
X70800500Y-44847844D01*
X70800500Y-38910055D01*
X74899500Y-38910055D01*
X74940210Y-39075226D01*
X75019263Y-39225849D01*
X75019266Y-39225852D01*
X75132071Y-39353183D01*
X75222318Y-39415476D01*
X75272068Y-39449817D01*
X75272069Y-39449817D01*
X75272070Y-39449818D01*
X75431128Y-39510140D01*
X75507028Y-39519356D01*
X75557626Y-39525500D01*
X75557628Y-39525500D01*
X75642374Y-39525500D01*
X75684538Y-39520380D01*
X75768872Y-39510140D01*
X75927930Y-39449818D01*
X76067929Y-39353183D01*
X76180734Y-39225852D01*
X76259790Y-39075225D01*
X76300500Y-38910056D01*
X76300500Y-38910055D01*
X79299500Y-38910055D01*
X79340210Y-39075226D01*
X79419263Y-39225849D01*
X79419266Y-39225852D01*
X79532071Y-39353183D01*
X79622318Y-39415476D01*
X79672068Y-39449817D01*
X79672069Y-39449817D01*
X79672070Y-39449818D01*
X79831128Y-39510140D01*
X79907028Y-39519356D01*
X79957626Y-39525500D01*
X79957628Y-39525500D01*
X80042374Y-39525500D01*
X80084538Y-39520380D01*
X80168872Y-39510140D01*
X80327930Y-39449818D01*
X80467929Y-39353183D01*
X80580734Y-39225852D01*
X80659790Y-39075225D01*
X80700500Y-38910056D01*
X80700500Y-38739944D01*
X80659790Y-38574775D01*
X80659789Y-38574773D01*
X80580736Y-38424150D01*
X80561560Y-38402505D01*
X80467929Y-38296817D01*
X80418177Y-38262475D01*
X80327931Y-38200182D01*
X80168874Y-38139860D01*
X80168868Y-38139859D01*
X80042374Y-38124500D01*
X80042372Y-38124500D01*
X79957628Y-38124500D01*
X79957626Y-38124500D01*
X79831131Y-38139859D01*
X79831125Y-38139860D01*
X79672068Y-38200182D01*
X79532072Y-38296816D01*
X79419263Y-38424150D01*
X79340210Y-38574773D01*
X79299500Y-38739944D01*
X79299500Y-38910055D01*
X76300500Y-38910055D01*
X76300500Y-38739944D01*
X76259790Y-38574775D01*
X76259789Y-38574773D01*
X76180736Y-38424150D01*
X76161560Y-38402505D01*
X76067929Y-38296817D01*
X76018177Y-38262475D01*
X75927931Y-38200182D01*
X75768874Y-38139860D01*
X75768868Y-38139859D01*
X75642374Y-38124500D01*
X75642372Y-38124500D01*
X75557628Y-38124500D01*
X75557626Y-38124500D01*
X75431131Y-38139859D01*
X75431125Y-38139860D01*
X75272068Y-38200182D01*
X75132072Y-38296816D01*
X75019263Y-38424150D01*
X74940210Y-38574773D01*
X74899500Y-38739944D01*
X74899500Y-38910055D01*
X70800500Y-38910055D01*
X70800500Y-33524500D01*
X70820185Y-33457461D01*
X70872989Y-33411706D01*
X70924500Y-33400500D01*
X100675500Y-33400500D01*
X100742539Y-33420185D01*
G37*
%TD.AperFunction*%
%TD*%
M02*
