%TF.GenerationSoftware,KiCad,Pcbnew,7.0.6-1.fc38*%
%TF.CreationDate,2023-08-09T19:30:43+03:00*%
%TF.ProjectId,msp430-breakout,6d737034-3330-42d6-9272-65616b6f7574,v.1.0*%
%TF.SameCoordinates,Original*%
%TF.FileFunction,Copper,L1,Top*%
%TF.FilePolarity,Positive*%
%FSLAX46Y46*%
G04 Gerber Fmt 4.6, Leading zero omitted, Abs format (unit mm)*
G04 Created by KiCad (PCBNEW 7.0.6-1.fc38) date 2023-08-09 19:30:43*
%MOMM*%
%LPD*%
G01*
G04 APERTURE LIST*
G04 Aperture macros list*
%AMRoundRect*
0 Rectangle with rounded corners*
0 $1 Rounding radius*
0 $2 $3 $4 $5 $6 $7 $8 $9 X,Y pos of 4 corners*
0 Add a 4 corners polygon primitive as box body*
4,1,4,$2,$3,$4,$5,$6,$7,$8,$9,$2,$3,0*
0 Add four circle primitives for the rounded corners*
1,1,$1+$1,$2,$3*
1,1,$1+$1,$4,$5*
1,1,$1+$1,$6,$7*
1,1,$1+$1,$8,$9*
0 Add four rect primitives between the rounded corners*
20,1,$1+$1,$2,$3,$4,$5,0*
20,1,$1+$1,$4,$5,$6,$7,0*
20,1,$1+$1,$6,$7,$8,$9,0*
20,1,$1+$1,$8,$9,$2,$3,0*%
G04 Aperture macros list end*
%TA.AperFunction,SMDPad,CuDef*%
%ADD10R,2.000000X2.500000*%
%TD*%
%TA.AperFunction,SMDPad,CuDef*%
%ADD11R,0.500000X2.500000*%
%TD*%
%TA.AperFunction,ComponentPad*%
%ADD12O,1.700000X1.700000*%
%TD*%
%TA.AperFunction,ComponentPad*%
%ADD13R,1.700000X1.700000*%
%TD*%
%TA.AperFunction,SMDPad,CuDef*%
%ADD14R,2.000000X1.500000*%
%TD*%
%TA.AperFunction,SMDPad,CuDef*%
%ADD15R,2.000000X3.800000*%
%TD*%
%TA.AperFunction,ComponentPad*%
%ADD16O,1.600000X1.600000*%
%TD*%
%TA.AperFunction,ComponentPad*%
%ADD17R,1.600000X1.600000*%
%TD*%
%TA.AperFunction,ComponentPad*%
%ADD18C,1.700000*%
%TD*%
%TA.AperFunction,SMDPad,CuDef*%
%ADD19RoundRect,0.237500X-0.250000X-0.237500X0.250000X-0.237500X0.250000X0.237500X-0.250000X0.237500X0*%
%TD*%
%TA.AperFunction,SMDPad,CuDef*%
%ADD20RoundRect,0.237500X0.237500X-0.250000X0.237500X0.250000X-0.237500X0.250000X-0.237500X-0.250000X0*%
%TD*%
%TA.AperFunction,SMDPad,CuDef*%
%ADD21RoundRect,0.237500X0.237500X-0.287500X0.237500X0.287500X-0.237500X0.287500X-0.237500X-0.287500X0*%
%TD*%
%TA.AperFunction,SMDPad,CuDef*%
%ADD22RoundRect,0.237500X0.300000X0.237500X-0.300000X0.237500X-0.300000X-0.237500X0.300000X-0.237500X0*%
%TD*%
%TA.AperFunction,SMDPad,CuDef*%
%ADD23RoundRect,0.237500X-0.300000X-0.237500X0.300000X-0.237500X0.300000X0.237500X-0.300000X0.237500X0*%
%TD*%
%TA.AperFunction,ViaPad*%
%ADD24C,0.700000*%
%TD*%
%TA.AperFunction,Conductor*%
%ADD25C,0.250000*%
%TD*%
%TA.AperFunction,Conductor*%
%ADD26C,0.750000*%
%TD*%
%TA.AperFunction,Conductor*%
%ADD27C,0.500000*%
%TD*%
G04 APERTURE END LIST*
D10*
%TO.P,J3,6,Shield*%
%TO.N,GND*%
X82200000Y-35925000D03*
X82200000Y-41425000D03*
X73400000Y-41425000D03*
X73400000Y-35925000D03*
D11*
%TO.P,J3,5,GND*%
X76200000Y-41425000D03*
%TO.P,J3,4,ID*%
%TO.N,unconnected-(J3-ID-Pad4)*%
X77000000Y-41425000D03*
%TO.P,J3,3,D+*%
%TO.N,unconnected-(J3-D+-Pad3)*%
X77800000Y-41425000D03*
%TO.P,J3,2,D-*%
%TO.N,unconnected-(J3-D--Pad2)*%
X78600000Y-41425000D03*
%TO.P,J3,1,VBUS*%
%TO.N,+5V*%
X79400000Y-41425000D03*
%TD*%
D12*
%TO.P,J2,10,Pin_10*%
%TO.N,GND*%
X98750000Y-52160000D03*
%TO.P,J2,9,Pin_9*%
%TO.N,/XIN*%
X98750000Y-54700000D03*
%TO.P,J2,8,Pin_8*%
%TO.N,/XOUT*%
X98750000Y-57240000D03*
%TO.P,J2,7,Pin_7*%
%TO.N,/TEST*%
X98750000Y-59780000D03*
%TO.P,J2,6,Pin_6*%
%TO.N,/RST*%
X98750000Y-62320000D03*
%TO.P,J2,5,Pin_5*%
%TO.N,/P1.7*%
X98750000Y-64860000D03*
%TO.P,J2,4,Pin_4*%
%TO.N,/P1.6*%
X98750000Y-67400000D03*
%TO.P,J2,3,Pin_3*%
%TO.N,/P2.5*%
X98750000Y-69940000D03*
%TO.P,J2,2,Pin_2*%
%TO.N,/P2.4*%
X98750000Y-72480000D03*
D13*
%TO.P,J2,1,Pin_1*%
%TO.N,/P2.3*%
X98750000Y-75020000D03*
%TD*%
D14*
%TO.P,U2,1,GND*%
%TO.N,GND*%
X86750000Y-34700000D03*
D15*
%TO.P,U2,2,VO*%
%TO.N,+3.3V*%
X93050000Y-37000000D03*
D14*
X86750000Y-37000000D03*
%TO.P,U2,3,VI*%
%TO.N,+5V*%
X86750000Y-39300000D03*
%TD*%
D16*
%TO.P,U1,20,DVSS*%
%TO.N,GND*%
X89620000Y-52175000D03*
%TO.P,U1,19,P2.6/XIN/TA0.1*%
%TO.N,/XIN*%
X89620000Y-54715000D03*
%TO.P,U1,18,P2.7/XOUT*%
%TO.N,/XOUT*%
X89620000Y-57255000D03*
%TO.P,U1,17,TEST/SBWTCK*%
%TO.N,/TEST*%
X89620000Y-59795000D03*
%TO.P,U1,16,~{RST}/NMI/SBWTDIO*%
%TO.N,/RST*%
X89620000Y-62335000D03*
%TO.P,U1,15,TDO/TDI/UCB0SIMO/UCB0SDA/CAOUT/CA7/A7/P1.7*%
%TO.N,/P1.7*%
X89620000Y-64875000D03*
%TO.P,U1,14,TDI/TCLK/UCB0SOMI/UCB0SCL/TA0.1/CA6/A6/P1.6*%
%TO.N,/P1.6*%
X89620000Y-67415000D03*
%TO.P,U1,13,P2.5/TA1.2*%
%TO.N,/P2.5*%
X89620000Y-69955000D03*
%TO.P,U1,12,P2.4/TA1.2*%
%TO.N,/P2.4*%
X89620000Y-72495000D03*
%TO.P,U1,11,P2.3/TA1.0*%
%TO.N,/P2.3*%
X89620000Y-75035000D03*
%TO.P,U1,10,P2.2/TA1.1*%
%TO.N,/P2.2*%
X82000000Y-75035000D03*
%TO.P,U1,9,P2.1/TA1.1*%
%TO.N,/P2.1*%
X82000000Y-72495000D03*
%TO.P,U1,8,P2.0/TA1.0*%
%TO.N,/P2.0*%
X82000000Y-69955000D03*
%TO.P,U1,7,TMS/UCB0CLK/UCA0STE/TA0.0/CA5/A5/P1.5*%
%TO.N,/P1.5*%
X82000000Y-67415000D03*
%TO.P,U1,6,TCK/SMCLK/UCB0STE/UCA0CLK/VREF+/VeREF+/CA4/A4/P1.4*%
%TO.N,/P1.4*%
X82000000Y-64875000D03*
%TO.P,U1,5,CAOUT/VREF-/VeREF-/CA3/A3/P1.3*%
%TO.N,/P1.3*%
X82000000Y-62335000D03*
%TO.P,U1,4,UCA0TXD/UCA0SIMO/TA0.1/CA2/A2/P1.2*%
%TO.N,/P1.2*%
X82000000Y-59795000D03*
%TO.P,U1,3,UCA0RXD/UCA0SOMI/TA0.0/CA1/A1/P1.1*%
%TO.N,/P1.1*%
X82000000Y-57255000D03*
%TO.P,U1,2,TA0CLK/ACLK/CA0/A0/P1.0*%
%TO.N,/P1.0*%
X82000000Y-54715000D03*
D17*
%TO.P,U1,1,DVCC*%
%TO.N,+3.3V*%
X82000000Y-52175000D03*
%TD*%
D18*
%TO.P,SW1,2,2*%
%TO.N,/RST*%
X92850000Y-48450000D03*
X99350000Y-48450000D03*
D13*
%TO.P,SW1,1,1*%
%TO.N,GND*%
X92850000Y-43950000D03*
D18*
X99350000Y-43950000D03*
%TD*%
D19*
%TO.P,R3,1*%
%TO.N,+3.3V*%
X82987500Y-49500000D03*
%TO.P,R3,2*%
%TO.N,/RST*%
X84812500Y-49500000D03*
%TD*%
D20*
%TO.P,R2,2*%
%TO.N,GND*%
X72500000Y-46987500D03*
%TO.P,R2,1*%
%TO.N,Net-(D1-K)*%
X72500000Y-48812500D03*
%TD*%
D19*
%TO.P,R1,2*%
%TO.N,/P1.0*%
X79212500Y-48800000D03*
%TO.P,R1,1*%
%TO.N,Net-(D2-K)*%
X77387500Y-48800000D03*
%TD*%
D13*
%TO.P,J1,1,Pin_1*%
%TO.N,+3.3V*%
X73000000Y-52175000D03*
D12*
%TO.P,J1,2,Pin_2*%
%TO.N,/P1.0*%
X73000000Y-54715000D03*
%TO.P,J1,3,Pin_3*%
%TO.N,/P1.1*%
X73000000Y-57255000D03*
%TO.P,J1,4,Pin_4*%
%TO.N,/P1.2*%
X73000000Y-59795000D03*
%TO.P,J1,5,Pin_5*%
%TO.N,/P1.3*%
X73000000Y-62335000D03*
%TO.P,J1,6,Pin_6*%
%TO.N,/P1.4*%
X73000000Y-64875000D03*
%TO.P,J1,7,Pin_7*%
%TO.N,/P1.5*%
X73000000Y-67415000D03*
%TO.P,J1,8,Pin_8*%
%TO.N,/P2.0*%
X73000000Y-69955000D03*
%TO.P,J1,9,Pin_9*%
%TO.N,/P2.1*%
X73000000Y-72495000D03*
%TO.P,J1,10,Pin_10*%
%TO.N,/P2.2*%
X73000000Y-75035000D03*
%TD*%
D21*
%TO.P,D2,1,K*%
%TO.N,Net-(D2-K)*%
X75700000Y-48775000D03*
%TO.P,D2,2,A*%
%TO.N,+3.3V*%
X75700000Y-47025000D03*
%TD*%
%TO.P,D1,2,A*%
%TO.N,+3.3V*%
X74100000Y-47025000D03*
%TO.P,D1,1,K*%
%TO.N,Net-(D1-K)*%
X74100000Y-48775000D03*
%TD*%
D22*
%TO.P,C4,2*%
%TO.N,/RST*%
X87037500Y-49500000D03*
%TO.P,C4,1*%
%TO.N,GND*%
X88762500Y-49500000D03*
%TD*%
D23*
%TO.P,C3,2*%
%TO.N,+3.3V*%
X92862500Y-41500000D03*
%TO.P,C3,1*%
%TO.N,GND*%
X91137500Y-41500000D03*
%TD*%
D22*
%TO.P,C2,2*%
%TO.N,+5V*%
X86737500Y-41500000D03*
%TO.P,C2,1*%
%TO.N,GND*%
X88462500Y-41500000D03*
%TD*%
%TO.P,C1,2*%
%TO.N,GND*%
X77437500Y-47100000D03*
%TO.P,C1,1*%
%TO.N,+3.3V*%
X79162500Y-47100000D03*
%TD*%
D24*
%TO.N,GND*%
X77300000Y-46200000D03*
X91300000Y-42400000D03*
X88400000Y-42400000D03*
X85300000Y-34100000D03*
X88800000Y-48600000D03*
X81600000Y-43200000D03*
X80600000Y-35100000D03*
X74900000Y-35100000D03*
X76100000Y-43200000D03*
X72800000Y-46100000D03*
X74200000Y-43200000D03*
%TD*%
D25*
%TO.N,/RST*%
X92850000Y-48450000D02*
X99350000Y-48450000D01*
D26*
%TO.N,+5V*%
X85900000Y-44700000D02*
X80900000Y-44700000D01*
X80900000Y-44700000D02*
X79400000Y-43200000D01*
D25*
%TO.N,Net-(D2-K)*%
X75700000Y-48775000D02*
X77362500Y-48775000D01*
X77362500Y-48775000D02*
X77387500Y-48800000D01*
%TO.N,Net-(D1-K)*%
X72500000Y-48812500D02*
X74062500Y-48812500D01*
X74062500Y-48812500D02*
X74100000Y-48775000D01*
%TO.N,/P1.0*%
X79212500Y-49387500D02*
X78500000Y-50100000D01*
X79212500Y-48800000D02*
X79212500Y-49387500D01*
X72800000Y-50100000D02*
X71600000Y-51300000D01*
X78500000Y-50100000D02*
X72800000Y-50100000D01*
X71600000Y-53315000D02*
X71600000Y-51300000D01*
X73000000Y-54715000D02*
X71600000Y-53315000D01*
%TO.N,GND*%
X88762500Y-49500000D02*
X88762500Y-48637500D01*
X88762500Y-48637500D02*
X88800000Y-48600000D01*
%TO.N,/RST*%
X87037500Y-49500000D02*
X87037500Y-48762500D01*
X87037500Y-48762500D02*
X88075000Y-47725000D01*
X92125000Y-47725000D02*
X92850000Y-48450000D01*
X88075000Y-47725000D02*
X92125000Y-47725000D01*
X87037500Y-49500000D02*
X84812500Y-49500000D01*
X89620000Y-62335000D02*
X87037500Y-59752500D01*
X87037500Y-59752500D02*
X87037500Y-49500000D01*
D26*
%TO.N,+3.3V*%
X82900000Y-47100000D02*
X82900000Y-49412500D01*
X82900000Y-49412500D02*
X82987500Y-49500000D01*
X79162500Y-47100000D02*
X82900000Y-47100000D01*
X82900000Y-47100000D02*
X86800000Y-47100000D01*
X89800000Y-44100000D02*
X89800000Y-37000000D01*
X86800000Y-47100000D02*
X89800000Y-44100000D01*
D25*
%TO.N,GND*%
X72500000Y-46987500D02*
X72500000Y-46400000D01*
X72500000Y-46400000D02*
X72800000Y-46100000D01*
X77437500Y-47100000D02*
X77437500Y-46337500D01*
X77437500Y-46337500D02*
X77300000Y-46200000D01*
D26*
%TO.N,+3.3V*%
X75700000Y-45600000D02*
X76100000Y-45200000D01*
X75700000Y-47025000D02*
X75700000Y-45600000D01*
X76100000Y-45200000D02*
X78800000Y-45200000D01*
X79162500Y-45562500D02*
X78800000Y-45200000D01*
X79162500Y-47100000D02*
X79162500Y-45562500D01*
D25*
%TO.N,GND*%
X91137500Y-41500000D02*
X91137500Y-42237500D01*
X91137500Y-42237500D02*
X91300000Y-42400000D01*
X88462500Y-41500000D02*
X88462500Y-42337500D01*
X88462500Y-42337500D02*
X88400000Y-42400000D01*
D26*
%TO.N,+3.3V*%
X86750000Y-37000000D02*
X89800000Y-37000000D01*
X89800000Y-37000000D02*
X93050000Y-37000000D01*
D25*
%TO.N,GND*%
X86750000Y-34700000D02*
X85900000Y-34700000D01*
X85900000Y-34700000D02*
X85300000Y-34100000D01*
D26*
%TO.N,+3.3V*%
X93050000Y-37000000D02*
X93050000Y-41312500D01*
%TO.N,+5V*%
X85900000Y-44700000D02*
X86737500Y-43862500D01*
X86737500Y-43862500D02*
X86737500Y-41500000D01*
X86750000Y-39300000D02*
X86750000Y-41487500D01*
X86750000Y-41487500D02*
X86737500Y-41500000D01*
D27*
X79400000Y-41425000D02*
X79400000Y-43200000D01*
D26*
%TO.N,+3.3V*%
X82987500Y-49500000D02*
X82987500Y-51187500D01*
X82987500Y-51187500D02*
X82000000Y-52175000D01*
X73000000Y-52175000D02*
X82000000Y-52175000D01*
X74100000Y-47025000D02*
X75700000Y-47025000D01*
D25*
%TO.N,GND*%
X76200000Y-41425000D02*
X76200000Y-43100000D01*
X76200000Y-43100000D02*
X76100000Y-43200000D01*
X73400000Y-41425000D02*
X73400000Y-42400000D01*
X73400000Y-42400000D02*
X74200000Y-43200000D01*
X82200000Y-41425000D02*
X82200000Y-42600000D01*
X82200000Y-42600000D02*
X81600000Y-43200000D01*
X82200000Y-35925000D02*
X81425000Y-35925000D01*
X81425000Y-35925000D02*
X80600000Y-35100000D01*
X73400000Y-35925000D02*
X74075000Y-35925000D01*
X74075000Y-35925000D02*
X74900000Y-35100000D01*
%TO.N,/P1.0*%
X73000000Y-54715000D02*
X77500000Y-54715000D01*
X77500000Y-54715000D02*
X82000000Y-54715000D01*
%TO.N,/P1.1*%
X73000000Y-57255000D02*
X82000000Y-57255000D01*
%TO.N,/P1.2*%
X73000000Y-59795000D02*
X82000000Y-59795000D01*
%TO.N,/P1.3*%
X73000000Y-62335000D02*
X82000000Y-62335000D01*
%TO.N,/P1.4*%
X73000000Y-64875000D02*
X82000000Y-64875000D01*
%TO.N,/P1.5*%
X73000000Y-67415000D02*
X82000000Y-67415000D01*
%TO.N,/P2.0*%
X82000000Y-69955000D02*
X73000000Y-69955000D01*
%TO.N,/P2.1*%
X73000000Y-72495000D02*
X82000000Y-72495000D01*
%TO.N,/P2.2*%
X82000000Y-75035000D02*
X73000000Y-75035000D01*
%TO.N,/P2.3*%
X89620000Y-75035000D02*
X98685000Y-75035000D01*
X98685000Y-75035000D02*
X98700000Y-75020000D01*
%TO.N,/P2.4*%
X89620000Y-72495000D02*
X98685000Y-72495000D01*
X98685000Y-72495000D02*
X98700000Y-72480000D01*
%TO.N,/P2.5*%
X89620000Y-69955000D02*
X98685000Y-69955000D01*
X98685000Y-69955000D02*
X98700000Y-69940000D01*
%TO.N,/P1.6*%
X89620000Y-67415000D02*
X98685000Y-67415000D01*
X98685000Y-67415000D02*
X98700000Y-67400000D01*
%TO.N,/P1.7*%
X89620000Y-64875000D02*
X98685000Y-64875000D01*
X98685000Y-64875000D02*
X98700000Y-64860000D01*
%TO.N,/RST*%
X89620000Y-62335000D02*
X98685000Y-62335000D01*
X98685000Y-62335000D02*
X98700000Y-62320000D01*
%TO.N,/TEST*%
X89620000Y-59795000D02*
X98685000Y-59795000D01*
X98685000Y-59795000D02*
X98700000Y-59780000D01*
%TO.N,/XOUT*%
X89620000Y-57255000D02*
X98685000Y-57255000D01*
X98685000Y-57255000D02*
X98700000Y-57240000D01*
%TO.N,/XIN*%
X89620000Y-54715000D02*
X98685000Y-54715000D01*
X98685000Y-54715000D02*
X98700000Y-54700000D01*
%TD*%
M02*
