%TF.GenerationSoftware,KiCad,Pcbnew,7.0.6-1.fc38*%
%TF.CreationDate,2023-08-09T19:30:44+03:00*%
%TF.ProjectId,msp430-breakout,6d737034-3330-42d6-9272-65616b6f7574,v.1.0*%
%TF.SameCoordinates,Original*%
%TF.FileFunction,Legend,Bot*%
%TF.FilePolarity,Positive*%
%FSLAX46Y46*%
G04 Gerber Fmt 4.6, Leading zero omitted, Abs format (unit mm)*
G04 Created by KiCad (PCBNEW 7.0.6-1.fc38) date 2023-08-09 19:30:44*
%MOMM*%
%LPD*%
G01*
G04 APERTURE LIST*
%ADD10C,0.150000*%
%ADD11C,0.200000*%
G04 APERTURE END LIST*
D10*
X95413220Y-40869819D02*
X95413220Y-39869819D01*
X94984649Y-40869819D02*
X94984649Y-40346009D01*
X94984649Y-40346009D02*
X95032268Y-40250771D01*
X95032268Y-40250771D02*
X95127506Y-40203152D01*
X95127506Y-40203152D02*
X95270363Y-40203152D01*
X95270363Y-40203152D02*
X95365601Y-40250771D01*
X95365601Y-40250771D02*
X95413220Y-40298390D01*
X94651315Y-40203152D02*
X94270363Y-40203152D01*
X94508458Y-39869819D02*
X94508458Y-40726961D01*
X94508458Y-40726961D02*
X94460839Y-40822200D01*
X94460839Y-40822200D02*
X94365601Y-40869819D01*
X94365601Y-40869819D02*
X94270363Y-40869819D01*
X94079886Y-40203152D02*
X93698934Y-40203152D01*
X93937029Y-39869819D02*
X93937029Y-40726961D01*
X93937029Y-40726961D02*
X93889410Y-40822200D01*
X93889410Y-40822200D02*
X93794172Y-40869819D01*
X93794172Y-40869819D02*
X93698934Y-40869819D01*
X93365600Y-40203152D02*
X93365600Y-41203152D01*
X93365600Y-40250771D02*
X93270362Y-40203152D01*
X93270362Y-40203152D02*
X93079886Y-40203152D01*
X93079886Y-40203152D02*
X92984648Y-40250771D01*
X92984648Y-40250771D02*
X92937029Y-40298390D01*
X92937029Y-40298390D02*
X92889410Y-40393628D01*
X92889410Y-40393628D02*
X92889410Y-40679342D01*
X92889410Y-40679342D02*
X92937029Y-40774580D01*
X92937029Y-40774580D02*
X92984648Y-40822200D01*
X92984648Y-40822200D02*
X93079886Y-40869819D01*
X93079886Y-40869819D02*
X93270362Y-40869819D01*
X93270362Y-40869819D02*
X93365600Y-40822200D01*
X92508457Y-40822200D02*
X92413219Y-40869819D01*
X92413219Y-40869819D02*
X92222743Y-40869819D01*
X92222743Y-40869819D02*
X92127505Y-40822200D01*
X92127505Y-40822200D02*
X92079886Y-40726961D01*
X92079886Y-40726961D02*
X92079886Y-40679342D01*
X92079886Y-40679342D02*
X92127505Y-40584104D01*
X92127505Y-40584104D02*
X92222743Y-40536485D01*
X92222743Y-40536485D02*
X92365600Y-40536485D01*
X92365600Y-40536485D02*
X92460838Y-40488866D01*
X92460838Y-40488866D02*
X92508457Y-40393628D01*
X92508457Y-40393628D02*
X92508457Y-40346009D01*
X92508457Y-40346009D02*
X92460838Y-40250771D01*
X92460838Y-40250771D02*
X92365600Y-40203152D01*
X92365600Y-40203152D02*
X92222743Y-40203152D01*
X92222743Y-40203152D02*
X92127505Y-40250771D01*
X91651314Y-40774580D02*
X91603695Y-40822200D01*
X91603695Y-40822200D02*
X91651314Y-40869819D01*
X91651314Y-40869819D02*
X91698933Y-40822200D01*
X91698933Y-40822200D02*
X91651314Y-40774580D01*
X91651314Y-40774580D02*
X91651314Y-40869819D01*
X91651314Y-40250771D02*
X91603695Y-40298390D01*
X91603695Y-40298390D02*
X91651314Y-40346009D01*
X91651314Y-40346009D02*
X91698933Y-40298390D01*
X91698933Y-40298390D02*
X91651314Y-40250771D01*
X91651314Y-40250771D02*
X91651314Y-40346009D01*
X90460839Y-39822200D02*
X91317981Y-41107914D01*
X89413220Y-39822200D02*
X90270362Y-41107914D01*
X88651315Y-40203152D02*
X88651315Y-41012676D01*
X88651315Y-41012676D02*
X88698934Y-41107914D01*
X88698934Y-41107914D02*
X88746553Y-41155533D01*
X88746553Y-41155533D02*
X88841791Y-41203152D01*
X88841791Y-41203152D02*
X88984648Y-41203152D01*
X88984648Y-41203152D02*
X89079886Y-41155533D01*
X88651315Y-40822200D02*
X88746553Y-40869819D01*
X88746553Y-40869819D02*
X88937029Y-40869819D01*
X88937029Y-40869819D02*
X89032267Y-40822200D01*
X89032267Y-40822200D02*
X89079886Y-40774580D01*
X89079886Y-40774580D02*
X89127505Y-40679342D01*
X89127505Y-40679342D02*
X89127505Y-40393628D01*
X89127505Y-40393628D02*
X89079886Y-40298390D01*
X89079886Y-40298390D02*
X89032267Y-40250771D01*
X89032267Y-40250771D02*
X88937029Y-40203152D01*
X88937029Y-40203152D02*
X88746553Y-40203152D01*
X88746553Y-40203152D02*
X88651315Y-40250771D01*
X88175124Y-40869819D02*
X88175124Y-40203152D01*
X88175124Y-39869819D02*
X88222743Y-39917438D01*
X88222743Y-39917438D02*
X88175124Y-39965057D01*
X88175124Y-39965057D02*
X88127505Y-39917438D01*
X88127505Y-39917438D02*
X88175124Y-39869819D01*
X88175124Y-39869819D02*
X88175124Y-39965057D01*
X87841791Y-40203152D02*
X87460839Y-40203152D01*
X87698934Y-39869819D02*
X87698934Y-40726961D01*
X87698934Y-40726961D02*
X87651315Y-40822200D01*
X87651315Y-40822200D02*
X87556077Y-40869819D01*
X87556077Y-40869819D02*
X87460839Y-40869819D01*
X87127505Y-40869819D02*
X87127505Y-39869819D01*
X86698934Y-40869819D02*
X86698934Y-40346009D01*
X86698934Y-40346009D02*
X86746553Y-40250771D01*
X86746553Y-40250771D02*
X86841791Y-40203152D01*
X86841791Y-40203152D02*
X86984648Y-40203152D01*
X86984648Y-40203152D02*
X87079886Y-40250771D01*
X87079886Y-40250771D02*
X87127505Y-40298390D01*
X85794172Y-40203152D02*
X85794172Y-40869819D01*
X86222743Y-40203152D02*
X86222743Y-40726961D01*
X86222743Y-40726961D02*
X86175124Y-40822200D01*
X86175124Y-40822200D02*
X86079886Y-40869819D01*
X86079886Y-40869819D02*
X85937029Y-40869819D01*
X85937029Y-40869819D02*
X85841791Y-40822200D01*
X85841791Y-40822200D02*
X85794172Y-40774580D01*
X85317981Y-40869819D02*
X85317981Y-39869819D01*
X85317981Y-40250771D02*
X85222743Y-40203152D01*
X85222743Y-40203152D02*
X85032267Y-40203152D01*
X85032267Y-40203152D02*
X84937029Y-40250771D01*
X84937029Y-40250771D02*
X84889410Y-40298390D01*
X84889410Y-40298390D02*
X84841791Y-40393628D01*
X84841791Y-40393628D02*
X84841791Y-40679342D01*
X84841791Y-40679342D02*
X84889410Y-40774580D01*
X84889410Y-40774580D02*
X84937029Y-40822200D01*
X84937029Y-40822200D02*
X85032267Y-40869819D01*
X85032267Y-40869819D02*
X85222743Y-40869819D01*
X85222743Y-40869819D02*
X85317981Y-40822200D01*
X84413219Y-40774580D02*
X84365600Y-40822200D01*
X84365600Y-40822200D02*
X84413219Y-40869819D01*
X84413219Y-40869819D02*
X84460838Y-40822200D01*
X84460838Y-40822200D02*
X84413219Y-40774580D01*
X84413219Y-40774580D02*
X84413219Y-40869819D01*
X83508458Y-40822200D02*
X83603696Y-40869819D01*
X83603696Y-40869819D02*
X83794172Y-40869819D01*
X83794172Y-40869819D02*
X83889410Y-40822200D01*
X83889410Y-40822200D02*
X83937029Y-40774580D01*
X83937029Y-40774580D02*
X83984648Y-40679342D01*
X83984648Y-40679342D02*
X83984648Y-40393628D01*
X83984648Y-40393628D02*
X83937029Y-40298390D01*
X83937029Y-40298390D02*
X83889410Y-40250771D01*
X83889410Y-40250771D02*
X83794172Y-40203152D01*
X83794172Y-40203152D02*
X83603696Y-40203152D01*
X83603696Y-40203152D02*
X83508458Y-40250771D01*
X82937029Y-40869819D02*
X83032267Y-40822200D01*
X83032267Y-40822200D02*
X83079886Y-40774580D01*
X83079886Y-40774580D02*
X83127505Y-40679342D01*
X83127505Y-40679342D02*
X83127505Y-40393628D01*
X83127505Y-40393628D02*
X83079886Y-40298390D01*
X83079886Y-40298390D02*
X83032267Y-40250771D01*
X83032267Y-40250771D02*
X82937029Y-40203152D01*
X82937029Y-40203152D02*
X82794172Y-40203152D01*
X82794172Y-40203152D02*
X82698934Y-40250771D01*
X82698934Y-40250771D02*
X82651315Y-40298390D01*
X82651315Y-40298390D02*
X82603696Y-40393628D01*
X82603696Y-40393628D02*
X82603696Y-40679342D01*
X82603696Y-40679342D02*
X82651315Y-40774580D01*
X82651315Y-40774580D02*
X82698934Y-40822200D01*
X82698934Y-40822200D02*
X82794172Y-40869819D01*
X82794172Y-40869819D02*
X82937029Y-40869819D01*
X82175124Y-40869819D02*
X82175124Y-40203152D01*
X82175124Y-40298390D02*
X82127505Y-40250771D01*
X82127505Y-40250771D02*
X82032267Y-40203152D01*
X82032267Y-40203152D02*
X81889410Y-40203152D01*
X81889410Y-40203152D02*
X81794172Y-40250771D01*
X81794172Y-40250771D02*
X81746553Y-40346009D01*
X81746553Y-40346009D02*
X81746553Y-40869819D01*
X81746553Y-40346009D02*
X81698934Y-40250771D01*
X81698934Y-40250771D02*
X81603696Y-40203152D01*
X81603696Y-40203152D02*
X81460839Y-40203152D01*
X81460839Y-40203152D02*
X81365600Y-40250771D01*
X81365600Y-40250771D02*
X81317981Y-40346009D01*
X81317981Y-40346009D02*
X81317981Y-40869819D01*
X80127506Y-39822200D02*
X80984648Y-41107914D01*
X79365601Y-40869819D02*
X79365601Y-40346009D01*
X79365601Y-40346009D02*
X79413220Y-40250771D01*
X79413220Y-40250771D02*
X79508458Y-40203152D01*
X79508458Y-40203152D02*
X79698934Y-40203152D01*
X79698934Y-40203152D02*
X79794172Y-40250771D01*
X79365601Y-40822200D02*
X79460839Y-40869819D01*
X79460839Y-40869819D02*
X79698934Y-40869819D01*
X79698934Y-40869819D02*
X79794172Y-40822200D01*
X79794172Y-40822200D02*
X79841791Y-40726961D01*
X79841791Y-40726961D02*
X79841791Y-40631723D01*
X79841791Y-40631723D02*
X79794172Y-40536485D01*
X79794172Y-40536485D02*
X79698934Y-40488866D01*
X79698934Y-40488866D02*
X79460839Y-40488866D01*
X79460839Y-40488866D02*
X79365601Y-40441247D01*
X78889410Y-40203152D02*
X78889410Y-40869819D01*
X78889410Y-40298390D02*
X78841791Y-40250771D01*
X78841791Y-40250771D02*
X78746553Y-40203152D01*
X78746553Y-40203152D02*
X78603696Y-40203152D01*
X78603696Y-40203152D02*
X78508458Y-40250771D01*
X78508458Y-40250771D02*
X78460839Y-40346009D01*
X78460839Y-40346009D02*
X78460839Y-40869819D01*
X77984648Y-40869819D02*
X77984648Y-40203152D01*
X77984648Y-39869819D02*
X78032267Y-39917438D01*
X78032267Y-39917438D02*
X77984648Y-39965057D01*
X77984648Y-39965057D02*
X77937029Y-39917438D01*
X77937029Y-39917438D02*
X77984648Y-39869819D01*
X77984648Y-39869819D02*
X77984648Y-39965057D01*
X77365601Y-40869819D02*
X77460839Y-40822200D01*
X77460839Y-40822200D02*
X77508458Y-40726961D01*
X77508458Y-40726961D02*
X77508458Y-39869819D01*
X77079886Y-40203152D02*
X76841791Y-40869819D01*
X76841791Y-40869819D02*
X76603696Y-40203152D01*
X76079886Y-40298390D02*
X76175124Y-40250771D01*
X76175124Y-40250771D02*
X76222743Y-40203152D01*
X76222743Y-40203152D02*
X76270362Y-40107914D01*
X76270362Y-40107914D02*
X76270362Y-40060295D01*
X76270362Y-40060295D02*
X76222743Y-39965057D01*
X76222743Y-39965057D02*
X76175124Y-39917438D01*
X76175124Y-39917438D02*
X76079886Y-39869819D01*
X76079886Y-39869819D02*
X75889410Y-39869819D01*
X75889410Y-39869819D02*
X75794172Y-39917438D01*
X75794172Y-39917438D02*
X75746553Y-39965057D01*
X75746553Y-39965057D02*
X75698934Y-40060295D01*
X75698934Y-40060295D02*
X75698934Y-40107914D01*
X75698934Y-40107914D02*
X75746553Y-40203152D01*
X75746553Y-40203152D02*
X75794172Y-40250771D01*
X75794172Y-40250771D02*
X75889410Y-40298390D01*
X75889410Y-40298390D02*
X76079886Y-40298390D01*
X76079886Y-40298390D02*
X76175124Y-40346009D01*
X76175124Y-40346009D02*
X76222743Y-40393628D01*
X76222743Y-40393628D02*
X76270362Y-40488866D01*
X76270362Y-40488866D02*
X76270362Y-40679342D01*
X76270362Y-40679342D02*
X76222743Y-40774580D01*
X76222743Y-40774580D02*
X76175124Y-40822200D01*
X76175124Y-40822200D02*
X76079886Y-40869819D01*
X76079886Y-40869819D02*
X75889410Y-40869819D01*
X75889410Y-40869819D02*
X75794172Y-40822200D01*
X75794172Y-40822200D02*
X75746553Y-40774580D01*
X75746553Y-40774580D02*
X75698934Y-40679342D01*
X75698934Y-40679342D02*
X75698934Y-40488866D01*
X75698934Y-40488866D02*
X75746553Y-40393628D01*
X75746553Y-40393628D02*
X75794172Y-40346009D01*
X75794172Y-40346009D02*
X75889410Y-40298390D01*
D11*
X92130326Y-37367219D02*
X92130326Y-36367219D01*
X92130326Y-36367219D02*
X91796993Y-37081504D01*
X91796993Y-37081504D02*
X91463660Y-36367219D01*
X91463660Y-36367219D02*
X91463660Y-37367219D01*
X91035088Y-37319600D02*
X90892231Y-37367219D01*
X90892231Y-37367219D02*
X90654136Y-37367219D01*
X90654136Y-37367219D02*
X90558898Y-37319600D01*
X90558898Y-37319600D02*
X90511279Y-37271980D01*
X90511279Y-37271980D02*
X90463660Y-37176742D01*
X90463660Y-37176742D02*
X90463660Y-37081504D01*
X90463660Y-37081504D02*
X90511279Y-36986266D01*
X90511279Y-36986266D02*
X90558898Y-36938647D01*
X90558898Y-36938647D02*
X90654136Y-36891028D01*
X90654136Y-36891028D02*
X90844612Y-36843409D01*
X90844612Y-36843409D02*
X90939850Y-36795790D01*
X90939850Y-36795790D02*
X90987469Y-36748171D01*
X90987469Y-36748171D02*
X91035088Y-36652933D01*
X91035088Y-36652933D02*
X91035088Y-36557695D01*
X91035088Y-36557695D02*
X90987469Y-36462457D01*
X90987469Y-36462457D02*
X90939850Y-36414838D01*
X90939850Y-36414838D02*
X90844612Y-36367219D01*
X90844612Y-36367219D02*
X90606517Y-36367219D01*
X90606517Y-36367219D02*
X90463660Y-36414838D01*
X90035088Y-37367219D02*
X90035088Y-36367219D01*
X90035088Y-36367219D02*
X89654136Y-36367219D01*
X89654136Y-36367219D02*
X89558898Y-36414838D01*
X89558898Y-36414838D02*
X89511279Y-36462457D01*
X89511279Y-36462457D02*
X89463660Y-36557695D01*
X89463660Y-36557695D02*
X89463660Y-36700552D01*
X89463660Y-36700552D02*
X89511279Y-36795790D01*
X89511279Y-36795790D02*
X89558898Y-36843409D01*
X89558898Y-36843409D02*
X89654136Y-36891028D01*
X89654136Y-36891028D02*
X90035088Y-36891028D01*
X88606517Y-36700552D02*
X88606517Y-37367219D01*
X88844612Y-36319600D02*
X89082707Y-37033885D01*
X89082707Y-37033885D02*
X88463660Y-37033885D01*
X88177945Y-36367219D02*
X87558898Y-36367219D01*
X87558898Y-36367219D02*
X87892231Y-36748171D01*
X87892231Y-36748171D02*
X87749374Y-36748171D01*
X87749374Y-36748171D02*
X87654136Y-36795790D01*
X87654136Y-36795790D02*
X87606517Y-36843409D01*
X87606517Y-36843409D02*
X87558898Y-36938647D01*
X87558898Y-36938647D02*
X87558898Y-37176742D01*
X87558898Y-37176742D02*
X87606517Y-37271980D01*
X87606517Y-37271980D02*
X87654136Y-37319600D01*
X87654136Y-37319600D02*
X87749374Y-37367219D01*
X87749374Y-37367219D02*
X88035088Y-37367219D01*
X88035088Y-37367219D02*
X88130326Y-37319600D01*
X88130326Y-37319600D02*
X88177945Y-37271980D01*
X86939850Y-36367219D02*
X86844612Y-36367219D01*
X86844612Y-36367219D02*
X86749374Y-36414838D01*
X86749374Y-36414838D02*
X86701755Y-36462457D01*
X86701755Y-36462457D02*
X86654136Y-36557695D01*
X86654136Y-36557695D02*
X86606517Y-36748171D01*
X86606517Y-36748171D02*
X86606517Y-36986266D01*
X86606517Y-36986266D02*
X86654136Y-37176742D01*
X86654136Y-37176742D02*
X86701755Y-37271980D01*
X86701755Y-37271980D02*
X86749374Y-37319600D01*
X86749374Y-37319600D02*
X86844612Y-37367219D01*
X86844612Y-37367219D02*
X86939850Y-37367219D01*
X86939850Y-37367219D02*
X87035088Y-37319600D01*
X87035088Y-37319600D02*
X87082707Y-37271980D01*
X87082707Y-37271980D02*
X87130326Y-37176742D01*
X87130326Y-37176742D02*
X87177945Y-36986266D01*
X87177945Y-36986266D02*
X87177945Y-36748171D01*
X87177945Y-36748171D02*
X87130326Y-36557695D01*
X87130326Y-36557695D02*
X87082707Y-36462457D01*
X87082707Y-36462457D02*
X87035088Y-36414838D01*
X87035088Y-36414838D02*
X86939850Y-36367219D01*
X85082707Y-36843409D02*
X84939850Y-36891028D01*
X84939850Y-36891028D02*
X84892231Y-36938647D01*
X84892231Y-36938647D02*
X84844612Y-37033885D01*
X84844612Y-37033885D02*
X84844612Y-37176742D01*
X84844612Y-37176742D02*
X84892231Y-37271980D01*
X84892231Y-37271980D02*
X84939850Y-37319600D01*
X84939850Y-37319600D02*
X85035088Y-37367219D01*
X85035088Y-37367219D02*
X85416040Y-37367219D01*
X85416040Y-37367219D02*
X85416040Y-36367219D01*
X85416040Y-36367219D02*
X85082707Y-36367219D01*
X85082707Y-36367219D02*
X84987469Y-36414838D01*
X84987469Y-36414838D02*
X84939850Y-36462457D01*
X84939850Y-36462457D02*
X84892231Y-36557695D01*
X84892231Y-36557695D02*
X84892231Y-36652933D01*
X84892231Y-36652933D02*
X84939850Y-36748171D01*
X84939850Y-36748171D02*
X84987469Y-36795790D01*
X84987469Y-36795790D02*
X85082707Y-36843409D01*
X85082707Y-36843409D02*
X85416040Y-36843409D01*
X84416040Y-37367219D02*
X84416040Y-36700552D01*
X84416040Y-36891028D02*
X84368421Y-36795790D01*
X84368421Y-36795790D02*
X84320802Y-36748171D01*
X84320802Y-36748171D02*
X84225564Y-36700552D01*
X84225564Y-36700552D02*
X84130326Y-36700552D01*
X83416040Y-37319600D02*
X83511278Y-37367219D01*
X83511278Y-37367219D02*
X83701754Y-37367219D01*
X83701754Y-37367219D02*
X83796992Y-37319600D01*
X83796992Y-37319600D02*
X83844611Y-37224361D01*
X83844611Y-37224361D02*
X83844611Y-36843409D01*
X83844611Y-36843409D02*
X83796992Y-36748171D01*
X83796992Y-36748171D02*
X83701754Y-36700552D01*
X83701754Y-36700552D02*
X83511278Y-36700552D01*
X83511278Y-36700552D02*
X83416040Y-36748171D01*
X83416040Y-36748171D02*
X83368421Y-36843409D01*
X83368421Y-36843409D02*
X83368421Y-36938647D01*
X83368421Y-36938647D02*
X83844611Y-37033885D01*
X82511278Y-37367219D02*
X82511278Y-36843409D01*
X82511278Y-36843409D02*
X82558897Y-36748171D01*
X82558897Y-36748171D02*
X82654135Y-36700552D01*
X82654135Y-36700552D02*
X82844611Y-36700552D01*
X82844611Y-36700552D02*
X82939849Y-36748171D01*
X82511278Y-37319600D02*
X82606516Y-37367219D01*
X82606516Y-37367219D02*
X82844611Y-37367219D01*
X82844611Y-37367219D02*
X82939849Y-37319600D01*
X82939849Y-37319600D02*
X82987468Y-37224361D01*
X82987468Y-37224361D02*
X82987468Y-37129123D01*
X82987468Y-37129123D02*
X82939849Y-37033885D01*
X82939849Y-37033885D02*
X82844611Y-36986266D01*
X82844611Y-36986266D02*
X82606516Y-36986266D01*
X82606516Y-36986266D02*
X82511278Y-36938647D01*
X82035087Y-37367219D02*
X82035087Y-36367219D01*
X81939849Y-36986266D02*
X81654135Y-37367219D01*
X81654135Y-36700552D02*
X82035087Y-37081504D01*
X81082706Y-37367219D02*
X81177944Y-37319600D01*
X81177944Y-37319600D02*
X81225563Y-37271980D01*
X81225563Y-37271980D02*
X81273182Y-37176742D01*
X81273182Y-37176742D02*
X81273182Y-36891028D01*
X81273182Y-36891028D02*
X81225563Y-36795790D01*
X81225563Y-36795790D02*
X81177944Y-36748171D01*
X81177944Y-36748171D02*
X81082706Y-36700552D01*
X81082706Y-36700552D02*
X80939849Y-36700552D01*
X80939849Y-36700552D02*
X80844611Y-36748171D01*
X80844611Y-36748171D02*
X80796992Y-36795790D01*
X80796992Y-36795790D02*
X80749373Y-36891028D01*
X80749373Y-36891028D02*
X80749373Y-37176742D01*
X80749373Y-37176742D02*
X80796992Y-37271980D01*
X80796992Y-37271980D02*
X80844611Y-37319600D01*
X80844611Y-37319600D02*
X80939849Y-37367219D01*
X80939849Y-37367219D02*
X81082706Y-37367219D01*
X79892230Y-36700552D02*
X79892230Y-37367219D01*
X80320801Y-36700552D02*
X80320801Y-37224361D01*
X80320801Y-37224361D02*
X80273182Y-37319600D01*
X80273182Y-37319600D02*
X80177944Y-37367219D01*
X80177944Y-37367219D02*
X80035087Y-37367219D01*
X80035087Y-37367219D02*
X79939849Y-37319600D01*
X79939849Y-37319600D02*
X79892230Y-37271980D01*
X79558896Y-36700552D02*
X79177944Y-36700552D01*
X79416039Y-36367219D02*
X79416039Y-37224361D01*
X79416039Y-37224361D02*
X79368420Y-37319600D01*
X79368420Y-37319600D02*
X79273182Y-37367219D01*
X79273182Y-37367219D02*
X79177944Y-37367219D01*
M02*
