%TF.GenerationSoftware,KiCad,Pcbnew,7.0.6-1.fc38*%
%TF.CreationDate,2023-08-09T19:30:44+03:00*%
%TF.ProjectId,msp430-breakout,6d737034-3330-42d6-9272-65616b6f7574,v.1.0*%
%TF.SameCoordinates,Original*%
%TF.FileFunction,Legend,Top*%
%TF.FilePolarity,Positive*%
%FSLAX46Y46*%
G04 Gerber Fmt 4.6, Leading zero omitted, Abs format (unit mm)*
G04 Created by KiCad (PCBNEW 7.0.6-1.fc38) date 2023-08-09 19:30:44*
%MOMM*%
%LPD*%
G01*
G04 APERTURE LIST*
%ADD10C,0.187500*%
%ADD11C,0.150000*%
%ADD12C,0.120000*%
G04 APERTURE END LIST*
D10*
X92866212Y-50478107D02*
X92723355Y-50406678D01*
X92723355Y-50406678D02*
X92509069Y-50406678D01*
X92509069Y-50406678D02*
X92294783Y-50478107D01*
X92294783Y-50478107D02*
X92151926Y-50620964D01*
X92151926Y-50620964D02*
X92080497Y-50763821D01*
X92080497Y-50763821D02*
X92009069Y-51049535D01*
X92009069Y-51049535D02*
X92009069Y-51263821D01*
X92009069Y-51263821D02*
X92080497Y-51549535D01*
X92080497Y-51549535D02*
X92151926Y-51692392D01*
X92151926Y-51692392D02*
X92294783Y-51835250D01*
X92294783Y-51835250D02*
X92509069Y-51906678D01*
X92509069Y-51906678D02*
X92651926Y-51906678D01*
X92651926Y-51906678D02*
X92866212Y-51835250D01*
X92866212Y-51835250D02*
X92937640Y-51763821D01*
X92937640Y-51763821D02*
X92937640Y-51263821D01*
X92937640Y-51263821D02*
X92651926Y-51263821D01*
X93580497Y-51906678D02*
X93580497Y-50406678D01*
X93580497Y-50406678D02*
X94437640Y-51906678D01*
X94437640Y-51906678D02*
X94437640Y-50406678D01*
X95151926Y-51906678D02*
X95151926Y-50406678D01*
X95151926Y-50406678D02*
X95509069Y-50406678D01*
X95509069Y-50406678D02*
X95723355Y-50478107D01*
X95723355Y-50478107D02*
X95866212Y-50620964D01*
X95866212Y-50620964D02*
X95937641Y-50763821D01*
X95937641Y-50763821D02*
X96009069Y-51049535D01*
X96009069Y-51049535D02*
X96009069Y-51263821D01*
X96009069Y-51263821D02*
X95937641Y-51549535D01*
X95937641Y-51549535D02*
X95866212Y-51692392D01*
X95866212Y-51692392D02*
X95723355Y-51835250D01*
X95723355Y-51835250D02*
X95509069Y-51906678D01*
X95509069Y-51906678D02*
X95151926Y-51906678D01*
X97737640Y-42506678D02*
X97237640Y-41792392D01*
X96880497Y-42506678D02*
X96880497Y-41006678D01*
X96880497Y-41006678D02*
X97451926Y-41006678D01*
X97451926Y-41006678D02*
X97594783Y-41078107D01*
X97594783Y-41078107D02*
X97666212Y-41149535D01*
X97666212Y-41149535D02*
X97737640Y-41292392D01*
X97737640Y-41292392D02*
X97737640Y-41506678D01*
X97737640Y-41506678D02*
X97666212Y-41649535D01*
X97666212Y-41649535D02*
X97594783Y-41720964D01*
X97594783Y-41720964D02*
X97451926Y-41792392D01*
X97451926Y-41792392D02*
X96880497Y-41792392D01*
X98309069Y-42435250D02*
X98523355Y-42506678D01*
X98523355Y-42506678D02*
X98880497Y-42506678D01*
X98880497Y-42506678D02*
X99023355Y-42435250D01*
X99023355Y-42435250D02*
X99094783Y-42363821D01*
X99094783Y-42363821D02*
X99166212Y-42220964D01*
X99166212Y-42220964D02*
X99166212Y-42078107D01*
X99166212Y-42078107D02*
X99094783Y-41935250D01*
X99094783Y-41935250D02*
X99023355Y-41863821D01*
X99023355Y-41863821D02*
X98880497Y-41792392D01*
X98880497Y-41792392D02*
X98594783Y-41720964D01*
X98594783Y-41720964D02*
X98451926Y-41649535D01*
X98451926Y-41649535D02*
X98380497Y-41578107D01*
X98380497Y-41578107D02*
X98309069Y-41435250D01*
X98309069Y-41435250D02*
X98309069Y-41292392D01*
X98309069Y-41292392D02*
X98380497Y-41149535D01*
X98380497Y-41149535D02*
X98451926Y-41078107D01*
X98451926Y-41078107D02*
X98594783Y-41006678D01*
X98594783Y-41006678D02*
X98951926Y-41006678D01*
X98951926Y-41006678D02*
X99166212Y-41078107D01*
X99594783Y-41006678D02*
X100451926Y-41006678D01*
X100023354Y-42506678D02*
X100023354Y-41006678D01*
X75666212Y-50406678D02*
X76166212Y-51906678D01*
X76166212Y-51906678D02*
X76666212Y-50406678D01*
X77166211Y-51906678D02*
X77166211Y-50406678D01*
X77166211Y-50406678D02*
X77523354Y-50406678D01*
X77523354Y-50406678D02*
X77737640Y-50478107D01*
X77737640Y-50478107D02*
X77880497Y-50620964D01*
X77880497Y-50620964D02*
X77951926Y-50763821D01*
X77951926Y-50763821D02*
X78023354Y-51049535D01*
X78023354Y-51049535D02*
X78023354Y-51263821D01*
X78023354Y-51263821D02*
X77951926Y-51549535D01*
X77951926Y-51549535D02*
X77880497Y-51692392D01*
X77880497Y-51692392D02*
X77737640Y-51835250D01*
X77737640Y-51835250D02*
X77523354Y-51906678D01*
X77523354Y-51906678D02*
X77166211Y-51906678D01*
X78666211Y-51906678D02*
X78666211Y-50406678D01*
X78666211Y-50406678D02*
X79023354Y-50406678D01*
X79023354Y-50406678D02*
X79237640Y-50478107D01*
X79237640Y-50478107D02*
X79380497Y-50620964D01*
X79380497Y-50620964D02*
X79451926Y-50763821D01*
X79451926Y-50763821D02*
X79523354Y-51049535D01*
X79523354Y-51049535D02*
X79523354Y-51263821D01*
X79523354Y-51263821D02*
X79451926Y-51549535D01*
X79451926Y-51549535D02*
X79380497Y-51692392D01*
X79380497Y-51692392D02*
X79237640Y-51835250D01*
X79237640Y-51835250D02*
X79023354Y-51906678D01*
X79023354Y-51906678D02*
X78666211Y-51906678D01*
X91680497Y-67106678D02*
X91680497Y-65606678D01*
X91680497Y-65606678D02*
X92251926Y-65606678D01*
X92251926Y-65606678D02*
X92394783Y-65678107D01*
X92394783Y-65678107D02*
X92466212Y-65749535D01*
X92466212Y-65749535D02*
X92537640Y-65892392D01*
X92537640Y-65892392D02*
X92537640Y-66106678D01*
X92537640Y-66106678D02*
X92466212Y-66249535D01*
X92466212Y-66249535D02*
X92394783Y-66320964D01*
X92394783Y-66320964D02*
X92251926Y-66392392D01*
X92251926Y-66392392D02*
X91680497Y-66392392D01*
X93966212Y-67106678D02*
X93109069Y-67106678D01*
X93537640Y-67106678D02*
X93537640Y-65606678D01*
X93537640Y-65606678D02*
X93394783Y-65820964D01*
X93394783Y-65820964D02*
X93251926Y-65963821D01*
X93251926Y-65963821D02*
X93109069Y-66035250D01*
X94609068Y-66963821D02*
X94680497Y-67035250D01*
X94680497Y-67035250D02*
X94609068Y-67106678D01*
X94609068Y-67106678D02*
X94537640Y-67035250D01*
X94537640Y-67035250D02*
X94609068Y-66963821D01*
X94609068Y-66963821D02*
X94609068Y-67106678D01*
X95966212Y-65606678D02*
X95680497Y-65606678D01*
X95680497Y-65606678D02*
X95537640Y-65678107D01*
X95537640Y-65678107D02*
X95466212Y-65749535D01*
X95466212Y-65749535D02*
X95323354Y-65963821D01*
X95323354Y-65963821D02*
X95251926Y-66249535D01*
X95251926Y-66249535D02*
X95251926Y-66820964D01*
X95251926Y-66820964D02*
X95323354Y-66963821D01*
X95323354Y-66963821D02*
X95394783Y-67035250D01*
X95394783Y-67035250D02*
X95537640Y-67106678D01*
X95537640Y-67106678D02*
X95823354Y-67106678D01*
X95823354Y-67106678D02*
X95966212Y-67035250D01*
X95966212Y-67035250D02*
X96037640Y-66963821D01*
X96037640Y-66963821D02*
X96109069Y-66820964D01*
X96109069Y-66820964D02*
X96109069Y-66463821D01*
X96109069Y-66463821D02*
X96037640Y-66320964D01*
X96037640Y-66320964D02*
X95966212Y-66249535D01*
X95966212Y-66249535D02*
X95823354Y-66178107D01*
X95823354Y-66178107D02*
X95537640Y-66178107D01*
X95537640Y-66178107D02*
X95394783Y-66249535D01*
X95394783Y-66249535D02*
X95323354Y-66320964D01*
X95323354Y-66320964D02*
X95251926Y-66463821D01*
X91680497Y-69606678D02*
X91680497Y-68106678D01*
X91680497Y-68106678D02*
X92251926Y-68106678D01*
X92251926Y-68106678D02*
X92394783Y-68178107D01*
X92394783Y-68178107D02*
X92466212Y-68249535D01*
X92466212Y-68249535D02*
X92537640Y-68392392D01*
X92537640Y-68392392D02*
X92537640Y-68606678D01*
X92537640Y-68606678D02*
X92466212Y-68749535D01*
X92466212Y-68749535D02*
X92394783Y-68820964D01*
X92394783Y-68820964D02*
X92251926Y-68892392D01*
X92251926Y-68892392D02*
X91680497Y-68892392D01*
X93109069Y-68249535D02*
X93180497Y-68178107D01*
X93180497Y-68178107D02*
X93323355Y-68106678D01*
X93323355Y-68106678D02*
X93680497Y-68106678D01*
X93680497Y-68106678D02*
X93823355Y-68178107D01*
X93823355Y-68178107D02*
X93894783Y-68249535D01*
X93894783Y-68249535D02*
X93966212Y-68392392D01*
X93966212Y-68392392D02*
X93966212Y-68535250D01*
X93966212Y-68535250D02*
X93894783Y-68749535D01*
X93894783Y-68749535D02*
X93037640Y-69606678D01*
X93037640Y-69606678D02*
X93966212Y-69606678D01*
X94609068Y-69463821D02*
X94680497Y-69535250D01*
X94680497Y-69535250D02*
X94609068Y-69606678D01*
X94609068Y-69606678D02*
X94537640Y-69535250D01*
X94537640Y-69535250D02*
X94609068Y-69463821D01*
X94609068Y-69463821D02*
X94609068Y-69606678D01*
X96037640Y-68106678D02*
X95323354Y-68106678D01*
X95323354Y-68106678D02*
X95251926Y-68820964D01*
X95251926Y-68820964D02*
X95323354Y-68749535D01*
X95323354Y-68749535D02*
X95466212Y-68678107D01*
X95466212Y-68678107D02*
X95823354Y-68678107D01*
X95823354Y-68678107D02*
X95966212Y-68749535D01*
X95966212Y-68749535D02*
X96037640Y-68820964D01*
X96037640Y-68820964D02*
X96109069Y-68963821D01*
X96109069Y-68963821D02*
X96109069Y-69320964D01*
X96109069Y-69320964D02*
X96037640Y-69463821D01*
X96037640Y-69463821D02*
X95966212Y-69535250D01*
X95966212Y-69535250D02*
X95823354Y-69606678D01*
X95823354Y-69606678D02*
X95466212Y-69606678D01*
X95466212Y-69606678D02*
X95323354Y-69535250D01*
X95323354Y-69535250D02*
X95251926Y-69463821D01*
X93137640Y-62006678D02*
X92637640Y-61292392D01*
X92280497Y-62006678D02*
X92280497Y-60506678D01*
X92280497Y-60506678D02*
X92851926Y-60506678D01*
X92851926Y-60506678D02*
X92994783Y-60578107D01*
X92994783Y-60578107D02*
X93066212Y-60649535D01*
X93066212Y-60649535D02*
X93137640Y-60792392D01*
X93137640Y-60792392D02*
X93137640Y-61006678D01*
X93137640Y-61006678D02*
X93066212Y-61149535D01*
X93066212Y-61149535D02*
X92994783Y-61220964D01*
X92994783Y-61220964D02*
X92851926Y-61292392D01*
X92851926Y-61292392D02*
X92280497Y-61292392D01*
X93709069Y-61935250D02*
X93923355Y-62006678D01*
X93923355Y-62006678D02*
X94280497Y-62006678D01*
X94280497Y-62006678D02*
X94423355Y-61935250D01*
X94423355Y-61935250D02*
X94494783Y-61863821D01*
X94494783Y-61863821D02*
X94566212Y-61720964D01*
X94566212Y-61720964D02*
X94566212Y-61578107D01*
X94566212Y-61578107D02*
X94494783Y-61435250D01*
X94494783Y-61435250D02*
X94423355Y-61363821D01*
X94423355Y-61363821D02*
X94280497Y-61292392D01*
X94280497Y-61292392D02*
X93994783Y-61220964D01*
X93994783Y-61220964D02*
X93851926Y-61149535D01*
X93851926Y-61149535D02*
X93780497Y-61078107D01*
X93780497Y-61078107D02*
X93709069Y-60935250D01*
X93709069Y-60935250D02*
X93709069Y-60792392D01*
X93709069Y-60792392D02*
X93780497Y-60649535D01*
X93780497Y-60649535D02*
X93851926Y-60578107D01*
X93851926Y-60578107D02*
X93994783Y-60506678D01*
X93994783Y-60506678D02*
X94351926Y-60506678D01*
X94351926Y-60506678D02*
X94566212Y-60578107D01*
X94994783Y-60506678D02*
X95851926Y-60506678D01*
X95423354Y-62006678D02*
X95423354Y-60506678D01*
X91566212Y-58006678D02*
X92423355Y-58006678D01*
X91994783Y-59506678D02*
X91994783Y-58006678D01*
X92923354Y-58720964D02*
X93423354Y-58720964D01*
X93637640Y-59506678D02*
X92923354Y-59506678D01*
X92923354Y-59506678D02*
X92923354Y-58006678D01*
X92923354Y-58006678D02*
X93637640Y-58006678D01*
X94209069Y-59435250D02*
X94423355Y-59506678D01*
X94423355Y-59506678D02*
X94780497Y-59506678D01*
X94780497Y-59506678D02*
X94923355Y-59435250D01*
X94923355Y-59435250D02*
X94994783Y-59363821D01*
X94994783Y-59363821D02*
X95066212Y-59220964D01*
X95066212Y-59220964D02*
X95066212Y-59078107D01*
X95066212Y-59078107D02*
X94994783Y-58935250D01*
X94994783Y-58935250D02*
X94923355Y-58863821D01*
X94923355Y-58863821D02*
X94780497Y-58792392D01*
X94780497Y-58792392D02*
X94494783Y-58720964D01*
X94494783Y-58720964D02*
X94351926Y-58649535D01*
X94351926Y-58649535D02*
X94280497Y-58578107D01*
X94280497Y-58578107D02*
X94209069Y-58435250D01*
X94209069Y-58435250D02*
X94209069Y-58292392D01*
X94209069Y-58292392D02*
X94280497Y-58149535D01*
X94280497Y-58149535D02*
X94351926Y-58078107D01*
X94351926Y-58078107D02*
X94494783Y-58006678D01*
X94494783Y-58006678D02*
X94851926Y-58006678D01*
X94851926Y-58006678D02*
X95066212Y-58078107D01*
X95494783Y-58006678D02*
X96351926Y-58006678D01*
X95923354Y-59506678D02*
X95923354Y-58006678D01*
X91580497Y-72106678D02*
X91580497Y-70606678D01*
X91580497Y-70606678D02*
X92151926Y-70606678D01*
X92151926Y-70606678D02*
X92294783Y-70678107D01*
X92294783Y-70678107D02*
X92366212Y-70749535D01*
X92366212Y-70749535D02*
X92437640Y-70892392D01*
X92437640Y-70892392D02*
X92437640Y-71106678D01*
X92437640Y-71106678D02*
X92366212Y-71249535D01*
X92366212Y-71249535D02*
X92294783Y-71320964D01*
X92294783Y-71320964D02*
X92151926Y-71392392D01*
X92151926Y-71392392D02*
X91580497Y-71392392D01*
X93009069Y-70749535D02*
X93080497Y-70678107D01*
X93080497Y-70678107D02*
X93223355Y-70606678D01*
X93223355Y-70606678D02*
X93580497Y-70606678D01*
X93580497Y-70606678D02*
X93723355Y-70678107D01*
X93723355Y-70678107D02*
X93794783Y-70749535D01*
X93794783Y-70749535D02*
X93866212Y-70892392D01*
X93866212Y-70892392D02*
X93866212Y-71035250D01*
X93866212Y-71035250D02*
X93794783Y-71249535D01*
X93794783Y-71249535D02*
X92937640Y-72106678D01*
X92937640Y-72106678D02*
X93866212Y-72106678D01*
X94509068Y-71963821D02*
X94580497Y-72035250D01*
X94580497Y-72035250D02*
X94509068Y-72106678D01*
X94509068Y-72106678D02*
X94437640Y-72035250D01*
X94437640Y-72035250D02*
X94509068Y-71963821D01*
X94509068Y-71963821D02*
X94509068Y-72106678D01*
X95866212Y-71106678D02*
X95866212Y-72106678D01*
X95509069Y-70535250D02*
X95151926Y-71606678D01*
X95151926Y-71606678D02*
X96080497Y-71606678D01*
X91637640Y-55506678D02*
X92637640Y-57006678D01*
X92637640Y-55506678D02*
X91637640Y-57006678D01*
X93494783Y-55506678D02*
X93780497Y-55506678D01*
X93780497Y-55506678D02*
X93923354Y-55578107D01*
X93923354Y-55578107D02*
X94066211Y-55720964D01*
X94066211Y-55720964D02*
X94137640Y-56006678D01*
X94137640Y-56006678D02*
X94137640Y-56506678D01*
X94137640Y-56506678D02*
X94066211Y-56792392D01*
X94066211Y-56792392D02*
X93923354Y-56935250D01*
X93923354Y-56935250D02*
X93780497Y-57006678D01*
X93780497Y-57006678D02*
X93494783Y-57006678D01*
X93494783Y-57006678D02*
X93351926Y-56935250D01*
X93351926Y-56935250D02*
X93209068Y-56792392D01*
X93209068Y-56792392D02*
X93137640Y-56506678D01*
X93137640Y-56506678D02*
X93137640Y-56006678D01*
X93137640Y-56006678D02*
X93209068Y-55720964D01*
X93209068Y-55720964D02*
X93351926Y-55578107D01*
X93351926Y-55578107D02*
X93494783Y-55506678D01*
X94780497Y-55506678D02*
X94780497Y-56720964D01*
X94780497Y-56720964D02*
X94851926Y-56863821D01*
X94851926Y-56863821D02*
X94923355Y-56935250D01*
X94923355Y-56935250D02*
X95066212Y-57006678D01*
X95066212Y-57006678D02*
X95351926Y-57006678D01*
X95351926Y-57006678D02*
X95494783Y-56935250D01*
X95494783Y-56935250D02*
X95566212Y-56863821D01*
X95566212Y-56863821D02*
X95637640Y-56720964D01*
X95637640Y-56720964D02*
X95637640Y-55506678D01*
X96137641Y-55506678D02*
X96994784Y-55506678D01*
X96566212Y-57006678D02*
X96566212Y-55506678D01*
X91680497Y-64506678D02*
X91680497Y-63006678D01*
X91680497Y-63006678D02*
X92251926Y-63006678D01*
X92251926Y-63006678D02*
X92394783Y-63078107D01*
X92394783Y-63078107D02*
X92466212Y-63149535D01*
X92466212Y-63149535D02*
X92537640Y-63292392D01*
X92537640Y-63292392D02*
X92537640Y-63506678D01*
X92537640Y-63506678D02*
X92466212Y-63649535D01*
X92466212Y-63649535D02*
X92394783Y-63720964D01*
X92394783Y-63720964D02*
X92251926Y-63792392D01*
X92251926Y-63792392D02*
X91680497Y-63792392D01*
X93966212Y-64506678D02*
X93109069Y-64506678D01*
X93537640Y-64506678D02*
X93537640Y-63006678D01*
X93537640Y-63006678D02*
X93394783Y-63220964D01*
X93394783Y-63220964D02*
X93251926Y-63363821D01*
X93251926Y-63363821D02*
X93109069Y-63435250D01*
X94609068Y-64363821D02*
X94680497Y-64435250D01*
X94680497Y-64435250D02*
X94609068Y-64506678D01*
X94609068Y-64506678D02*
X94537640Y-64435250D01*
X94537640Y-64435250D02*
X94609068Y-64363821D01*
X94609068Y-64363821D02*
X94609068Y-64506678D01*
X95180497Y-63006678D02*
X96180497Y-63006678D01*
X96180497Y-63006678D02*
X95537640Y-64506678D01*
X91580497Y-74606678D02*
X91580497Y-73106678D01*
X91580497Y-73106678D02*
X92151926Y-73106678D01*
X92151926Y-73106678D02*
X92294783Y-73178107D01*
X92294783Y-73178107D02*
X92366212Y-73249535D01*
X92366212Y-73249535D02*
X92437640Y-73392392D01*
X92437640Y-73392392D02*
X92437640Y-73606678D01*
X92437640Y-73606678D02*
X92366212Y-73749535D01*
X92366212Y-73749535D02*
X92294783Y-73820964D01*
X92294783Y-73820964D02*
X92151926Y-73892392D01*
X92151926Y-73892392D02*
X91580497Y-73892392D01*
X93009069Y-73249535D02*
X93080497Y-73178107D01*
X93080497Y-73178107D02*
X93223355Y-73106678D01*
X93223355Y-73106678D02*
X93580497Y-73106678D01*
X93580497Y-73106678D02*
X93723355Y-73178107D01*
X93723355Y-73178107D02*
X93794783Y-73249535D01*
X93794783Y-73249535D02*
X93866212Y-73392392D01*
X93866212Y-73392392D02*
X93866212Y-73535250D01*
X93866212Y-73535250D02*
X93794783Y-73749535D01*
X93794783Y-73749535D02*
X92937640Y-74606678D01*
X92937640Y-74606678D02*
X93866212Y-74606678D01*
X94509068Y-74463821D02*
X94580497Y-74535250D01*
X94580497Y-74535250D02*
X94509068Y-74606678D01*
X94509068Y-74606678D02*
X94437640Y-74535250D01*
X94437640Y-74535250D02*
X94509068Y-74463821D01*
X94509068Y-74463821D02*
X94509068Y-74606678D01*
X95080497Y-73106678D02*
X96009069Y-73106678D01*
X96009069Y-73106678D02*
X95509069Y-73678107D01*
X95509069Y-73678107D02*
X95723354Y-73678107D01*
X95723354Y-73678107D02*
X95866212Y-73749535D01*
X95866212Y-73749535D02*
X95937640Y-73820964D01*
X95937640Y-73820964D02*
X96009069Y-73963821D01*
X96009069Y-73963821D02*
X96009069Y-74320964D01*
X96009069Y-74320964D02*
X95937640Y-74463821D01*
X95937640Y-74463821D02*
X95866212Y-74535250D01*
X95866212Y-74535250D02*
X95723354Y-74606678D01*
X95723354Y-74606678D02*
X95294783Y-74606678D01*
X95294783Y-74606678D02*
X95151926Y-74535250D01*
X95151926Y-74535250D02*
X95080497Y-74463821D01*
X75280497Y-74706678D02*
X75280497Y-73206678D01*
X75280497Y-73206678D02*
X75851926Y-73206678D01*
X75851926Y-73206678D02*
X75994783Y-73278107D01*
X75994783Y-73278107D02*
X76066212Y-73349535D01*
X76066212Y-73349535D02*
X76137640Y-73492392D01*
X76137640Y-73492392D02*
X76137640Y-73706678D01*
X76137640Y-73706678D02*
X76066212Y-73849535D01*
X76066212Y-73849535D02*
X75994783Y-73920964D01*
X75994783Y-73920964D02*
X75851926Y-73992392D01*
X75851926Y-73992392D02*
X75280497Y-73992392D01*
X76709069Y-73349535D02*
X76780497Y-73278107D01*
X76780497Y-73278107D02*
X76923355Y-73206678D01*
X76923355Y-73206678D02*
X77280497Y-73206678D01*
X77280497Y-73206678D02*
X77423355Y-73278107D01*
X77423355Y-73278107D02*
X77494783Y-73349535D01*
X77494783Y-73349535D02*
X77566212Y-73492392D01*
X77566212Y-73492392D02*
X77566212Y-73635250D01*
X77566212Y-73635250D02*
X77494783Y-73849535D01*
X77494783Y-73849535D02*
X76637640Y-74706678D01*
X76637640Y-74706678D02*
X77566212Y-74706678D01*
X78209068Y-74563821D02*
X78280497Y-74635250D01*
X78280497Y-74635250D02*
X78209068Y-74706678D01*
X78209068Y-74706678D02*
X78137640Y-74635250D01*
X78137640Y-74635250D02*
X78209068Y-74563821D01*
X78209068Y-74563821D02*
X78209068Y-74706678D01*
X78851926Y-73349535D02*
X78923354Y-73278107D01*
X78923354Y-73278107D02*
X79066212Y-73206678D01*
X79066212Y-73206678D02*
X79423354Y-73206678D01*
X79423354Y-73206678D02*
X79566212Y-73278107D01*
X79566212Y-73278107D02*
X79637640Y-73349535D01*
X79637640Y-73349535D02*
X79709069Y-73492392D01*
X79709069Y-73492392D02*
X79709069Y-73635250D01*
X79709069Y-73635250D02*
X79637640Y-73849535D01*
X79637640Y-73849535D02*
X78780497Y-74706678D01*
X78780497Y-74706678D02*
X79709069Y-74706678D01*
X75280497Y-69606678D02*
X75280497Y-68106678D01*
X75280497Y-68106678D02*
X75851926Y-68106678D01*
X75851926Y-68106678D02*
X75994783Y-68178107D01*
X75994783Y-68178107D02*
X76066212Y-68249535D01*
X76066212Y-68249535D02*
X76137640Y-68392392D01*
X76137640Y-68392392D02*
X76137640Y-68606678D01*
X76137640Y-68606678D02*
X76066212Y-68749535D01*
X76066212Y-68749535D02*
X75994783Y-68820964D01*
X75994783Y-68820964D02*
X75851926Y-68892392D01*
X75851926Y-68892392D02*
X75280497Y-68892392D01*
X76709069Y-68249535D02*
X76780497Y-68178107D01*
X76780497Y-68178107D02*
X76923355Y-68106678D01*
X76923355Y-68106678D02*
X77280497Y-68106678D01*
X77280497Y-68106678D02*
X77423355Y-68178107D01*
X77423355Y-68178107D02*
X77494783Y-68249535D01*
X77494783Y-68249535D02*
X77566212Y-68392392D01*
X77566212Y-68392392D02*
X77566212Y-68535250D01*
X77566212Y-68535250D02*
X77494783Y-68749535D01*
X77494783Y-68749535D02*
X76637640Y-69606678D01*
X76637640Y-69606678D02*
X77566212Y-69606678D01*
X78209068Y-69463821D02*
X78280497Y-69535250D01*
X78280497Y-69535250D02*
X78209068Y-69606678D01*
X78209068Y-69606678D02*
X78137640Y-69535250D01*
X78137640Y-69535250D02*
X78209068Y-69463821D01*
X78209068Y-69463821D02*
X78209068Y-69606678D01*
X79209069Y-68106678D02*
X79351926Y-68106678D01*
X79351926Y-68106678D02*
X79494783Y-68178107D01*
X79494783Y-68178107D02*
X79566212Y-68249535D01*
X79566212Y-68249535D02*
X79637640Y-68392392D01*
X79637640Y-68392392D02*
X79709069Y-68678107D01*
X79709069Y-68678107D02*
X79709069Y-69035250D01*
X79709069Y-69035250D02*
X79637640Y-69320964D01*
X79637640Y-69320964D02*
X79566212Y-69463821D01*
X79566212Y-69463821D02*
X79494783Y-69535250D01*
X79494783Y-69535250D02*
X79351926Y-69606678D01*
X79351926Y-69606678D02*
X79209069Y-69606678D01*
X79209069Y-69606678D02*
X79066212Y-69535250D01*
X79066212Y-69535250D02*
X78994783Y-69463821D01*
X78994783Y-69463821D02*
X78923354Y-69320964D01*
X78923354Y-69320964D02*
X78851926Y-69035250D01*
X78851926Y-69035250D02*
X78851926Y-68678107D01*
X78851926Y-68678107D02*
X78923354Y-68392392D01*
X78923354Y-68392392D02*
X78994783Y-68249535D01*
X78994783Y-68249535D02*
X79066212Y-68178107D01*
X79066212Y-68178107D02*
X79209069Y-68106678D01*
X75380497Y-67106678D02*
X75380497Y-65606678D01*
X75380497Y-65606678D02*
X75951926Y-65606678D01*
X75951926Y-65606678D02*
X76094783Y-65678107D01*
X76094783Y-65678107D02*
X76166212Y-65749535D01*
X76166212Y-65749535D02*
X76237640Y-65892392D01*
X76237640Y-65892392D02*
X76237640Y-66106678D01*
X76237640Y-66106678D02*
X76166212Y-66249535D01*
X76166212Y-66249535D02*
X76094783Y-66320964D01*
X76094783Y-66320964D02*
X75951926Y-66392392D01*
X75951926Y-66392392D02*
X75380497Y-66392392D01*
X77666212Y-67106678D02*
X76809069Y-67106678D01*
X77237640Y-67106678D02*
X77237640Y-65606678D01*
X77237640Y-65606678D02*
X77094783Y-65820964D01*
X77094783Y-65820964D02*
X76951926Y-65963821D01*
X76951926Y-65963821D02*
X76809069Y-66035250D01*
X78309068Y-66963821D02*
X78380497Y-67035250D01*
X78380497Y-67035250D02*
X78309068Y-67106678D01*
X78309068Y-67106678D02*
X78237640Y-67035250D01*
X78237640Y-67035250D02*
X78309068Y-66963821D01*
X78309068Y-66963821D02*
X78309068Y-67106678D01*
X79737640Y-65606678D02*
X79023354Y-65606678D01*
X79023354Y-65606678D02*
X78951926Y-66320964D01*
X78951926Y-66320964D02*
X79023354Y-66249535D01*
X79023354Y-66249535D02*
X79166212Y-66178107D01*
X79166212Y-66178107D02*
X79523354Y-66178107D01*
X79523354Y-66178107D02*
X79666212Y-66249535D01*
X79666212Y-66249535D02*
X79737640Y-66320964D01*
X79737640Y-66320964D02*
X79809069Y-66463821D01*
X79809069Y-66463821D02*
X79809069Y-66820964D01*
X79809069Y-66820964D02*
X79737640Y-66963821D01*
X79737640Y-66963821D02*
X79666212Y-67035250D01*
X79666212Y-67035250D02*
X79523354Y-67106678D01*
X79523354Y-67106678D02*
X79166212Y-67106678D01*
X79166212Y-67106678D02*
X79023354Y-67035250D01*
X79023354Y-67035250D02*
X78951926Y-66963821D01*
X75380497Y-64606678D02*
X75380497Y-63106678D01*
X75380497Y-63106678D02*
X75951926Y-63106678D01*
X75951926Y-63106678D02*
X76094783Y-63178107D01*
X76094783Y-63178107D02*
X76166212Y-63249535D01*
X76166212Y-63249535D02*
X76237640Y-63392392D01*
X76237640Y-63392392D02*
X76237640Y-63606678D01*
X76237640Y-63606678D02*
X76166212Y-63749535D01*
X76166212Y-63749535D02*
X76094783Y-63820964D01*
X76094783Y-63820964D02*
X75951926Y-63892392D01*
X75951926Y-63892392D02*
X75380497Y-63892392D01*
X77666212Y-64606678D02*
X76809069Y-64606678D01*
X77237640Y-64606678D02*
X77237640Y-63106678D01*
X77237640Y-63106678D02*
X77094783Y-63320964D01*
X77094783Y-63320964D02*
X76951926Y-63463821D01*
X76951926Y-63463821D02*
X76809069Y-63535250D01*
X78309068Y-64463821D02*
X78380497Y-64535250D01*
X78380497Y-64535250D02*
X78309068Y-64606678D01*
X78309068Y-64606678D02*
X78237640Y-64535250D01*
X78237640Y-64535250D02*
X78309068Y-64463821D01*
X78309068Y-64463821D02*
X78309068Y-64606678D01*
X79666212Y-63606678D02*
X79666212Y-64606678D01*
X79309069Y-63035250D02*
X78951926Y-64106678D01*
X78951926Y-64106678D02*
X79880497Y-64106678D01*
X75280497Y-72106678D02*
X75280497Y-70606678D01*
X75280497Y-70606678D02*
X75851926Y-70606678D01*
X75851926Y-70606678D02*
X75994783Y-70678107D01*
X75994783Y-70678107D02*
X76066212Y-70749535D01*
X76066212Y-70749535D02*
X76137640Y-70892392D01*
X76137640Y-70892392D02*
X76137640Y-71106678D01*
X76137640Y-71106678D02*
X76066212Y-71249535D01*
X76066212Y-71249535D02*
X75994783Y-71320964D01*
X75994783Y-71320964D02*
X75851926Y-71392392D01*
X75851926Y-71392392D02*
X75280497Y-71392392D01*
X76709069Y-70749535D02*
X76780497Y-70678107D01*
X76780497Y-70678107D02*
X76923355Y-70606678D01*
X76923355Y-70606678D02*
X77280497Y-70606678D01*
X77280497Y-70606678D02*
X77423355Y-70678107D01*
X77423355Y-70678107D02*
X77494783Y-70749535D01*
X77494783Y-70749535D02*
X77566212Y-70892392D01*
X77566212Y-70892392D02*
X77566212Y-71035250D01*
X77566212Y-71035250D02*
X77494783Y-71249535D01*
X77494783Y-71249535D02*
X76637640Y-72106678D01*
X76637640Y-72106678D02*
X77566212Y-72106678D01*
X78209068Y-71963821D02*
X78280497Y-72035250D01*
X78280497Y-72035250D02*
X78209068Y-72106678D01*
X78209068Y-72106678D02*
X78137640Y-72035250D01*
X78137640Y-72035250D02*
X78209068Y-71963821D01*
X78209068Y-71963821D02*
X78209068Y-72106678D01*
X79709069Y-72106678D02*
X78851926Y-72106678D01*
X79280497Y-72106678D02*
X79280497Y-70606678D01*
X79280497Y-70606678D02*
X79137640Y-70820964D01*
X79137640Y-70820964D02*
X78994783Y-70963821D01*
X78994783Y-70963821D02*
X78851926Y-71035250D01*
X75380497Y-62006678D02*
X75380497Y-60506678D01*
X75380497Y-60506678D02*
X75951926Y-60506678D01*
X75951926Y-60506678D02*
X76094783Y-60578107D01*
X76094783Y-60578107D02*
X76166212Y-60649535D01*
X76166212Y-60649535D02*
X76237640Y-60792392D01*
X76237640Y-60792392D02*
X76237640Y-61006678D01*
X76237640Y-61006678D02*
X76166212Y-61149535D01*
X76166212Y-61149535D02*
X76094783Y-61220964D01*
X76094783Y-61220964D02*
X75951926Y-61292392D01*
X75951926Y-61292392D02*
X75380497Y-61292392D01*
X77666212Y-62006678D02*
X76809069Y-62006678D01*
X77237640Y-62006678D02*
X77237640Y-60506678D01*
X77237640Y-60506678D02*
X77094783Y-60720964D01*
X77094783Y-60720964D02*
X76951926Y-60863821D01*
X76951926Y-60863821D02*
X76809069Y-60935250D01*
X78309068Y-61863821D02*
X78380497Y-61935250D01*
X78380497Y-61935250D02*
X78309068Y-62006678D01*
X78309068Y-62006678D02*
X78237640Y-61935250D01*
X78237640Y-61935250D02*
X78309068Y-61863821D01*
X78309068Y-61863821D02*
X78309068Y-62006678D01*
X78880497Y-60506678D02*
X79809069Y-60506678D01*
X79809069Y-60506678D02*
X79309069Y-61078107D01*
X79309069Y-61078107D02*
X79523354Y-61078107D01*
X79523354Y-61078107D02*
X79666212Y-61149535D01*
X79666212Y-61149535D02*
X79737640Y-61220964D01*
X79737640Y-61220964D02*
X79809069Y-61363821D01*
X79809069Y-61363821D02*
X79809069Y-61720964D01*
X79809069Y-61720964D02*
X79737640Y-61863821D01*
X79737640Y-61863821D02*
X79666212Y-61935250D01*
X79666212Y-61935250D02*
X79523354Y-62006678D01*
X79523354Y-62006678D02*
X79094783Y-62006678D01*
X79094783Y-62006678D02*
X78951926Y-61935250D01*
X78951926Y-61935250D02*
X78880497Y-61863821D01*
X75380497Y-59506678D02*
X75380497Y-58006678D01*
X75380497Y-58006678D02*
X75951926Y-58006678D01*
X75951926Y-58006678D02*
X76094783Y-58078107D01*
X76094783Y-58078107D02*
X76166212Y-58149535D01*
X76166212Y-58149535D02*
X76237640Y-58292392D01*
X76237640Y-58292392D02*
X76237640Y-58506678D01*
X76237640Y-58506678D02*
X76166212Y-58649535D01*
X76166212Y-58649535D02*
X76094783Y-58720964D01*
X76094783Y-58720964D02*
X75951926Y-58792392D01*
X75951926Y-58792392D02*
X75380497Y-58792392D01*
X77666212Y-59506678D02*
X76809069Y-59506678D01*
X77237640Y-59506678D02*
X77237640Y-58006678D01*
X77237640Y-58006678D02*
X77094783Y-58220964D01*
X77094783Y-58220964D02*
X76951926Y-58363821D01*
X76951926Y-58363821D02*
X76809069Y-58435250D01*
X78309068Y-59363821D02*
X78380497Y-59435250D01*
X78380497Y-59435250D02*
X78309068Y-59506678D01*
X78309068Y-59506678D02*
X78237640Y-59435250D01*
X78237640Y-59435250D02*
X78309068Y-59363821D01*
X78309068Y-59363821D02*
X78309068Y-59506678D01*
X78951926Y-58149535D02*
X79023354Y-58078107D01*
X79023354Y-58078107D02*
X79166212Y-58006678D01*
X79166212Y-58006678D02*
X79523354Y-58006678D01*
X79523354Y-58006678D02*
X79666212Y-58078107D01*
X79666212Y-58078107D02*
X79737640Y-58149535D01*
X79737640Y-58149535D02*
X79809069Y-58292392D01*
X79809069Y-58292392D02*
X79809069Y-58435250D01*
X79809069Y-58435250D02*
X79737640Y-58649535D01*
X79737640Y-58649535D02*
X78880497Y-59506678D01*
X78880497Y-59506678D02*
X79809069Y-59506678D01*
X92337640Y-52906678D02*
X93337640Y-54406678D01*
X93337640Y-52906678D02*
X92337640Y-54406678D01*
X93909068Y-54406678D02*
X93909068Y-52906678D01*
X94623354Y-54406678D02*
X94623354Y-52906678D01*
X94623354Y-52906678D02*
X95480497Y-54406678D01*
X95480497Y-54406678D02*
X95480497Y-52906678D01*
X75480497Y-57006678D02*
X75480497Y-55506678D01*
X75480497Y-55506678D02*
X76051926Y-55506678D01*
X76051926Y-55506678D02*
X76194783Y-55578107D01*
X76194783Y-55578107D02*
X76266212Y-55649535D01*
X76266212Y-55649535D02*
X76337640Y-55792392D01*
X76337640Y-55792392D02*
X76337640Y-56006678D01*
X76337640Y-56006678D02*
X76266212Y-56149535D01*
X76266212Y-56149535D02*
X76194783Y-56220964D01*
X76194783Y-56220964D02*
X76051926Y-56292392D01*
X76051926Y-56292392D02*
X75480497Y-56292392D01*
X77766212Y-57006678D02*
X76909069Y-57006678D01*
X77337640Y-57006678D02*
X77337640Y-55506678D01*
X77337640Y-55506678D02*
X77194783Y-55720964D01*
X77194783Y-55720964D02*
X77051926Y-55863821D01*
X77051926Y-55863821D02*
X76909069Y-55935250D01*
X78409068Y-56863821D02*
X78480497Y-56935250D01*
X78480497Y-56935250D02*
X78409068Y-57006678D01*
X78409068Y-57006678D02*
X78337640Y-56935250D01*
X78337640Y-56935250D02*
X78409068Y-56863821D01*
X78409068Y-56863821D02*
X78409068Y-57006678D01*
X79909069Y-57006678D02*
X79051926Y-57006678D01*
X79480497Y-57006678D02*
X79480497Y-55506678D01*
X79480497Y-55506678D02*
X79337640Y-55720964D01*
X79337640Y-55720964D02*
X79194783Y-55863821D01*
X79194783Y-55863821D02*
X79051926Y-55935250D01*
X75480497Y-54506678D02*
X75480497Y-53006678D01*
X75480497Y-53006678D02*
X76051926Y-53006678D01*
X76051926Y-53006678D02*
X76194783Y-53078107D01*
X76194783Y-53078107D02*
X76266212Y-53149535D01*
X76266212Y-53149535D02*
X76337640Y-53292392D01*
X76337640Y-53292392D02*
X76337640Y-53506678D01*
X76337640Y-53506678D02*
X76266212Y-53649535D01*
X76266212Y-53649535D02*
X76194783Y-53720964D01*
X76194783Y-53720964D02*
X76051926Y-53792392D01*
X76051926Y-53792392D02*
X75480497Y-53792392D01*
X77766212Y-54506678D02*
X76909069Y-54506678D01*
X77337640Y-54506678D02*
X77337640Y-53006678D01*
X77337640Y-53006678D02*
X77194783Y-53220964D01*
X77194783Y-53220964D02*
X77051926Y-53363821D01*
X77051926Y-53363821D02*
X76909069Y-53435250D01*
X78409068Y-54363821D02*
X78480497Y-54435250D01*
X78480497Y-54435250D02*
X78409068Y-54506678D01*
X78409068Y-54506678D02*
X78337640Y-54435250D01*
X78337640Y-54435250D02*
X78409068Y-54363821D01*
X78409068Y-54363821D02*
X78409068Y-54506678D01*
X79409069Y-53006678D02*
X79551926Y-53006678D01*
X79551926Y-53006678D02*
X79694783Y-53078107D01*
X79694783Y-53078107D02*
X79766212Y-53149535D01*
X79766212Y-53149535D02*
X79837640Y-53292392D01*
X79837640Y-53292392D02*
X79909069Y-53578107D01*
X79909069Y-53578107D02*
X79909069Y-53935250D01*
X79909069Y-53935250D02*
X79837640Y-54220964D01*
X79837640Y-54220964D02*
X79766212Y-54363821D01*
X79766212Y-54363821D02*
X79694783Y-54435250D01*
X79694783Y-54435250D02*
X79551926Y-54506678D01*
X79551926Y-54506678D02*
X79409069Y-54506678D01*
X79409069Y-54506678D02*
X79266212Y-54435250D01*
X79266212Y-54435250D02*
X79194783Y-54363821D01*
X79194783Y-54363821D02*
X79123354Y-54220964D01*
X79123354Y-54220964D02*
X79051926Y-53935250D01*
X79051926Y-53935250D02*
X79051926Y-53578107D01*
X79051926Y-53578107D02*
X79123354Y-53292392D01*
X79123354Y-53292392D02*
X79194783Y-53149535D01*
X79194783Y-53149535D02*
X79266212Y-53078107D01*
X79266212Y-53078107D02*
X79409069Y-53006678D01*
D11*
X77466666Y-43529819D02*
X77466666Y-44244104D01*
X77466666Y-44244104D02*
X77419047Y-44386961D01*
X77419047Y-44386961D02*
X77323809Y-44482200D01*
X77323809Y-44482200D02*
X77180952Y-44529819D01*
X77180952Y-44529819D02*
X77085714Y-44529819D01*
X77847619Y-43529819D02*
X78466666Y-43529819D01*
X78466666Y-43529819D02*
X78133333Y-43910771D01*
X78133333Y-43910771D02*
X78276190Y-43910771D01*
X78276190Y-43910771D02*
X78371428Y-43958390D01*
X78371428Y-43958390D02*
X78419047Y-44006009D01*
X78419047Y-44006009D02*
X78466666Y-44101247D01*
X78466666Y-44101247D02*
X78466666Y-44339342D01*
X78466666Y-44339342D02*
X78419047Y-44434580D01*
X78419047Y-44434580D02*
X78371428Y-44482200D01*
X78371428Y-44482200D02*
X78276190Y-44529819D01*
X78276190Y-44529819D02*
X77990476Y-44529819D01*
X77990476Y-44529819D02*
X77895238Y-44482200D01*
X77895238Y-44482200D02*
X77847619Y-44434580D01*
X92438095Y-33654819D02*
X92438095Y-34464342D01*
X92438095Y-34464342D02*
X92485714Y-34559580D01*
X92485714Y-34559580D02*
X92533333Y-34607200D01*
X92533333Y-34607200D02*
X92628571Y-34654819D01*
X92628571Y-34654819D02*
X92819047Y-34654819D01*
X92819047Y-34654819D02*
X92914285Y-34607200D01*
X92914285Y-34607200D02*
X92961904Y-34559580D01*
X92961904Y-34559580D02*
X93009523Y-34464342D01*
X93009523Y-34464342D02*
X93009523Y-33654819D01*
X93438095Y-33750057D02*
X93485714Y-33702438D01*
X93485714Y-33702438D02*
X93580952Y-33654819D01*
X93580952Y-33654819D02*
X93819047Y-33654819D01*
X93819047Y-33654819D02*
X93914285Y-33702438D01*
X93914285Y-33702438D02*
X93961904Y-33750057D01*
X93961904Y-33750057D02*
X94009523Y-33845295D01*
X94009523Y-33845295D02*
X94009523Y-33940533D01*
X94009523Y-33940533D02*
X93961904Y-34083390D01*
X93961904Y-34083390D02*
X93390476Y-34654819D01*
X93390476Y-34654819D02*
X94009523Y-34654819D01*
X89838095Y-49354819D02*
X89838095Y-50164342D01*
X89838095Y-50164342D02*
X89885714Y-50259580D01*
X89885714Y-50259580D02*
X89933333Y-50307200D01*
X89933333Y-50307200D02*
X90028571Y-50354819D01*
X90028571Y-50354819D02*
X90219047Y-50354819D01*
X90219047Y-50354819D02*
X90314285Y-50307200D01*
X90314285Y-50307200D02*
X90361904Y-50259580D01*
X90361904Y-50259580D02*
X90409523Y-50164342D01*
X90409523Y-50164342D02*
X90409523Y-49354819D01*
X91409523Y-50354819D02*
X90838095Y-50354819D01*
X91123809Y-50354819D02*
X91123809Y-49354819D01*
X91123809Y-49354819D02*
X91028571Y-49497676D01*
X91028571Y-49497676D02*
X90933333Y-49592914D01*
X90933333Y-49592914D02*
X90838095Y-49640533D01*
X88866667Y-46407200D02*
X89009524Y-46454819D01*
X89009524Y-46454819D02*
X89247619Y-46454819D01*
X89247619Y-46454819D02*
X89342857Y-46407200D01*
X89342857Y-46407200D02*
X89390476Y-46359580D01*
X89390476Y-46359580D02*
X89438095Y-46264342D01*
X89438095Y-46264342D02*
X89438095Y-46169104D01*
X89438095Y-46169104D02*
X89390476Y-46073866D01*
X89390476Y-46073866D02*
X89342857Y-46026247D01*
X89342857Y-46026247D02*
X89247619Y-45978628D01*
X89247619Y-45978628D02*
X89057143Y-45931009D01*
X89057143Y-45931009D02*
X88961905Y-45883390D01*
X88961905Y-45883390D02*
X88914286Y-45835771D01*
X88914286Y-45835771D02*
X88866667Y-45740533D01*
X88866667Y-45740533D02*
X88866667Y-45645295D01*
X88866667Y-45645295D02*
X88914286Y-45550057D01*
X88914286Y-45550057D02*
X88961905Y-45502438D01*
X88961905Y-45502438D02*
X89057143Y-45454819D01*
X89057143Y-45454819D02*
X89295238Y-45454819D01*
X89295238Y-45454819D02*
X89438095Y-45502438D01*
X89771429Y-45454819D02*
X90009524Y-46454819D01*
X90009524Y-46454819D02*
X90200000Y-45740533D01*
X90200000Y-45740533D02*
X90390476Y-46454819D01*
X90390476Y-46454819D02*
X90628572Y-45454819D01*
X91533333Y-46454819D02*
X90961905Y-46454819D01*
X91247619Y-46454819D02*
X91247619Y-45454819D01*
X91247619Y-45454819D02*
X91152381Y-45597676D01*
X91152381Y-45597676D02*
X91057143Y-45692914D01*
X91057143Y-45692914D02*
X90961905Y-45740533D01*
X83733333Y-48654819D02*
X83400000Y-48178628D01*
X83161905Y-48654819D02*
X83161905Y-47654819D01*
X83161905Y-47654819D02*
X83542857Y-47654819D01*
X83542857Y-47654819D02*
X83638095Y-47702438D01*
X83638095Y-47702438D02*
X83685714Y-47750057D01*
X83685714Y-47750057D02*
X83733333Y-47845295D01*
X83733333Y-47845295D02*
X83733333Y-47988152D01*
X83733333Y-47988152D02*
X83685714Y-48083390D01*
X83685714Y-48083390D02*
X83638095Y-48131009D01*
X83638095Y-48131009D02*
X83542857Y-48178628D01*
X83542857Y-48178628D02*
X83161905Y-48178628D01*
X84066667Y-47654819D02*
X84685714Y-47654819D01*
X84685714Y-47654819D02*
X84352381Y-48035771D01*
X84352381Y-48035771D02*
X84495238Y-48035771D01*
X84495238Y-48035771D02*
X84590476Y-48083390D01*
X84590476Y-48083390D02*
X84638095Y-48131009D01*
X84638095Y-48131009D02*
X84685714Y-48226247D01*
X84685714Y-48226247D02*
X84685714Y-48464342D01*
X84685714Y-48464342D02*
X84638095Y-48559580D01*
X84638095Y-48559580D02*
X84590476Y-48607200D01*
X84590476Y-48607200D02*
X84495238Y-48654819D01*
X84495238Y-48654819D02*
X84209524Y-48654819D01*
X84209524Y-48654819D02*
X84114286Y-48607200D01*
X84114286Y-48607200D02*
X84066667Y-48559580D01*
X72154819Y-45566666D02*
X71678628Y-45899999D01*
X72154819Y-46138094D02*
X71154819Y-46138094D01*
X71154819Y-46138094D02*
X71154819Y-45757142D01*
X71154819Y-45757142D02*
X71202438Y-45661904D01*
X71202438Y-45661904D02*
X71250057Y-45614285D01*
X71250057Y-45614285D02*
X71345295Y-45566666D01*
X71345295Y-45566666D02*
X71488152Y-45566666D01*
X71488152Y-45566666D02*
X71583390Y-45614285D01*
X71583390Y-45614285D02*
X71631009Y-45661904D01*
X71631009Y-45661904D02*
X71678628Y-45757142D01*
X71678628Y-45757142D02*
X71678628Y-46138094D01*
X71250057Y-45185713D02*
X71202438Y-45138094D01*
X71202438Y-45138094D02*
X71154819Y-45042856D01*
X71154819Y-45042856D02*
X71154819Y-44804761D01*
X71154819Y-44804761D02*
X71202438Y-44709523D01*
X71202438Y-44709523D02*
X71250057Y-44661904D01*
X71250057Y-44661904D02*
X71345295Y-44614285D01*
X71345295Y-44614285D02*
X71440533Y-44614285D01*
X71440533Y-44614285D02*
X71583390Y-44661904D01*
X71583390Y-44661904D02*
X72154819Y-45233332D01*
X72154819Y-45233332D02*
X72154819Y-44614285D01*
X80733333Y-49354819D02*
X80400000Y-48878628D01*
X80161905Y-49354819D02*
X80161905Y-48354819D01*
X80161905Y-48354819D02*
X80542857Y-48354819D01*
X80542857Y-48354819D02*
X80638095Y-48402438D01*
X80638095Y-48402438D02*
X80685714Y-48450057D01*
X80685714Y-48450057D02*
X80733333Y-48545295D01*
X80733333Y-48545295D02*
X80733333Y-48688152D01*
X80733333Y-48688152D02*
X80685714Y-48783390D01*
X80685714Y-48783390D02*
X80638095Y-48831009D01*
X80638095Y-48831009D02*
X80542857Y-48878628D01*
X80542857Y-48878628D02*
X80161905Y-48878628D01*
X81685714Y-49354819D02*
X81114286Y-49354819D01*
X81400000Y-49354819D02*
X81400000Y-48354819D01*
X81400000Y-48354819D02*
X81304762Y-48497676D01*
X81304762Y-48497676D02*
X81209524Y-48592914D01*
X81209524Y-48592914D02*
X81114286Y-48640533D01*
X76154819Y-46138094D02*
X75154819Y-46138094D01*
X75154819Y-46138094D02*
X75154819Y-45899999D01*
X75154819Y-45899999D02*
X75202438Y-45757142D01*
X75202438Y-45757142D02*
X75297676Y-45661904D01*
X75297676Y-45661904D02*
X75392914Y-45614285D01*
X75392914Y-45614285D02*
X75583390Y-45566666D01*
X75583390Y-45566666D02*
X75726247Y-45566666D01*
X75726247Y-45566666D02*
X75916723Y-45614285D01*
X75916723Y-45614285D02*
X76011961Y-45661904D01*
X76011961Y-45661904D02*
X76107200Y-45757142D01*
X76107200Y-45757142D02*
X76154819Y-45899999D01*
X76154819Y-45899999D02*
X76154819Y-46138094D01*
X75250057Y-45185713D02*
X75202438Y-45138094D01*
X75202438Y-45138094D02*
X75154819Y-45042856D01*
X75154819Y-45042856D02*
X75154819Y-44804761D01*
X75154819Y-44804761D02*
X75202438Y-44709523D01*
X75202438Y-44709523D02*
X75250057Y-44661904D01*
X75250057Y-44661904D02*
X75345295Y-44614285D01*
X75345295Y-44614285D02*
X75440533Y-44614285D01*
X75440533Y-44614285D02*
X75583390Y-44661904D01*
X75583390Y-44661904D02*
X76154819Y-45233332D01*
X76154819Y-45233332D02*
X76154819Y-44614285D01*
X74354819Y-46138094D02*
X73354819Y-46138094D01*
X73354819Y-46138094D02*
X73354819Y-45899999D01*
X73354819Y-45899999D02*
X73402438Y-45757142D01*
X73402438Y-45757142D02*
X73497676Y-45661904D01*
X73497676Y-45661904D02*
X73592914Y-45614285D01*
X73592914Y-45614285D02*
X73783390Y-45566666D01*
X73783390Y-45566666D02*
X73926247Y-45566666D01*
X73926247Y-45566666D02*
X74116723Y-45614285D01*
X74116723Y-45614285D02*
X74211961Y-45661904D01*
X74211961Y-45661904D02*
X74307200Y-45757142D01*
X74307200Y-45757142D02*
X74354819Y-45899999D01*
X74354819Y-45899999D02*
X74354819Y-46138094D01*
X74354819Y-44614285D02*
X74354819Y-45185713D01*
X74354819Y-44899999D02*
X73354819Y-44899999D01*
X73354819Y-44899999D02*
X73497676Y-44995237D01*
X73497676Y-44995237D02*
X73592914Y-45090475D01*
X73592914Y-45090475D02*
X73640533Y-45185713D01*
X87133333Y-48559580D02*
X87085714Y-48607200D01*
X87085714Y-48607200D02*
X86942857Y-48654819D01*
X86942857Y-48654819D02*
X86847619Y-48654819D01*
X86847619Y-48654819D02*
X86704762Y-48607200D01*
X86704762Y-48607200D02*
X86609524Y-48511961D01*
X86609524Y-48511961D02*
X86561905Y-48416723D01*
X86561905Y-48416723D02*
X86514286Y-48226247D01*
X86514286Y-48226247D02*
X86514286Y-48083390D01*
X86514286Y-48083390D02*
X86561905Y-47892914D01*
X86561905Y-47892914D02*
X86609524Y-47797676D01*
X86609524Y-47797676D02*
X86704762Y-47702438D01*
X86704762Y-47702438D02*
X86847619Y-47654819D01*
X86847619Y-47654819D02*
X86942857Y-47654819D01*
X86942857Y-47654819D02*
X87085714Y-47702438D01*
X87085714Y-47702438D02*
X87133333Y-47750057D01*
X87990476Y-47988152D02*
X87990476Y-48654819D01*
X87752381Y-47607200D02*
X87514286Y-48321485D01*
X87514286Y-48321485D02*
X88133333Y-48321485D01*
X94533333Y-41959580D02*
X94485714Y-42007200D01*
X94485714Y-42007200D02*
X94342857Y-42054819D01*
X94342857Y-42054819D02*
X94247619Y-42054819D01*
X94247619Y-42054819D02*
X94104762Y-42007200D01*
X94104762Y-42007200D02*
X94009524Y-41911961D01*
X94009524Y-41911961D02*
X93961905Y-41816723D01*
X93961905Y-41816723D02*
X93914286Y-41626247D01*
X93914286Y-41626247D02*
X93914286Y-41483390D01*
X93914286Y-41483390D02*
X93961905Y-41292914D01*
X93961905Y-41292914D02*
X94009524Y-41197676D01*
X94009524Y-41197676D02*
X94104762Y-41102438D01*
X94104762Y-41102438D02*
X94247619Y-41054819D01*
X94247619Y-41054819D02*
X94342857Y-41054819D01*
X94342857Y-41054819D02*
X94485714Y-41102438D01*
X94485714Y-41102438D02*
X94533333Y-41150057D01*
X94866667Y-41054819D02*
X95485714Y-41054819D01*
X95485714Y-41054819D02*
X95152381Y-41435771D01*
X95152381Y-41435771D02*
X95295238Y-41435771D01*
X95295238Y-41435771D02*
X95390476Y-41483390D01*
X95390476Y-41483390D02*
X95438095Y-41531009D01*
X95438095Y-41531009D02*
X95485714Y-41626247D01*
X95485714Y-41626247D02*
X95485714Y-41864342D01*
X95485714Y-41864342D02*
X95438095Y-41959580D01*
X95438095Y-41959580D02*
X95390476Y-42007200D01*
X95390476Y-42007200D02*
X95295238Y-42054819D01*
X95295238Y-42054819D02*
X95009524Y-42054819D01*
X95009524Y-42054819D02*
X94914286Y-42007200D01*
X94914286Y-42007200D02*
X94866667Y-41959580D01*
X84733333Y-41859580D02*
X84685714Y-41907200D01*
X84685714Y-41907200D02*
X84542857Y-41954819D01*
X84542857Y-41954819D02*
X84447619Y-41954819D01*
X84447619Y-41954819D02*
X84304762Y-41907200D01*
X84304762Y-41907200D02*
X84209524Y-41811961D01*
X84209524Y-41811961D02*
X84161905Y-41716723D01*
X84161905Y-41716723D02*
X84114286Y-41526247D01*
X84114286Y-41526247D02*
X84114286Y-41383390D01*
X84114286Y-41383390D02*
X84161905Y-41192914D01*
X84161905Y-41192914D02*
X84209524Y-41097676D01*
X84209524Y-41097676D02*
X84304762Y-41002438D01*
X84304762Y-41002438D02*
X84447619Y-40954819D01*
X84447619Y-40954819D02*
X84542857Y-40954819D01*
X84542857Y-40954819D02*
X84685714Y-41002438D01*
X84685714Y-41002438D02*
X84733333Y-41050057D01*
X85114286Y-41050057D02*
X85161905Y-41002438D01*
X85161905Y-41002438D02*
X85257143Y-40954819D01*
X85257143Y-40954819D02*
X85495238Y-40954819D01*
X85495238Y-40954819D02*
X85590476Y-41002438D01*
X85590476Y-41002438D02*
X85638095Y-41050057D01*
X85638095Y-41050057D02*
X85685714Y-41145295D01*
X85685714Y-41145295D02*
X85685714Y-41240533D01*
X85685714Y-41240533D02*
X85638095Y-41383390D01*
X85638095Y-41383390D02*
X85066667Y-41954819D01*
X85066667Y-41954819D02*
X85685714Y-41954819D01*
X80733333Y-47559580D02*
X80685714Y-47607200D01*
X80685714Y-47607200D02*
X80542857Y-47654819D01*
X80542857Y-47654819D02*
X80447619Y-47654819D01*
X80447619Y-47654819D02*
X80304762Y-47607200D01*
X80304762Y-47607200D02*
X80209524Y-47511961D01*
X80209524Y-47511961D02*
X80161905Y-47416723D01*
X80161905Y-47416723D02*
X80114286Y-47226247D01*
X80114286Y-47226247D02*
X80114286Y-47083390D01*
X80114286Y-47083390D02*
X80161905Y-46892914D01*
X80161905Y-46892914D02*
X80209524Y-46797676D01*
X80209524Y-46797676D02*
X80304762Y-46702438D01*
X80304762Y-46702438D02*
X80447619Y-46654819D01*
X80447619Y-46654819D02*
X80542857Y-46654819D01*
X80542857Y-46654819D02*
X80685714Y-46702438D01*
X80685714Y-46702438D02*
X80733333Y-46750057D01*
X81685714Y-47654819D02*
X81114286Y-47654819D01*
X81400000Y-47654819D02*
X81400000Y-46654819D01*
X81400000Y-46654819D02*
X81304762Y-46797676D01*
X81304762Y-46797676D02*
X81209524Y-46892914D01*
X81209524Y-46892914D02*
X81114286Y-46940533D01*
D12*
%TO.C,J3*%
X75750000Y-42285000D02*
X74600000Y-42285000D01*
X81000000Y-42285000D02*
X79850000Y-42285000D01*
X81760000Y-37375000D02*
X81760000Y-39975000D01*
X79850000Y-42285000D02*
X79850000Y-42875000D01*
X81760000Y-34475000D02*
X81760000Y-33745000D01*
X73840000Y-39975000D02*
X73840000Y-37375000D01*
X73840000Y-33745000D02*
X73840000Y-34475000D01*
X79850000Y-42875000D02*
X79150000Y-42875000D01*
%TO.C,J2*%
X100080000Y-75020000D02*
X100080000Y-76350000D01*
X97420000Y-73750000D02*
X97420000Y-50830000D01*
X100080000Y-73750000D02*
X100080000Y-50830000D01*
X100080000Y-76350000D02*
X98750000Y-76350000D01*
X100080000Y-73750000D02*
X97420000Y-73750000D01*
X100080000Y-50830000D02*
X97420000Y-50830000D01*
%TO.C,U2*%
X85800000Y-33590000D02*
X91810000Y-33590000D01*
X88050000Y-40410000D02*
X91810000Y-40410000D01*
X91810000Y-40410000D02*
X91810000Y-39150000D01*
X91810000Y-33590000D02*
X91810000Y-34850000D01*
%TO.C,U1*%
X84810000Y-50845000D02*
G75*
G03*
X86810000Y-50845000I1000000J0D01*
G01*
X88460000Y-50845000D02*
X86810000Y-50845000D01*
X88460000Y-76365000D02*
X88460000Y-50845000D01*
X90950000Y-76425000D02*
X90950000Y-50785000D01*
X80670000Y-76425000D02*
X90950000Y-76425000D01*
X84810000Y-50845000D02*
X83160000Y-50845000D01*
X90950000Y-50785000D02*
X80670000Y-50785000D01*
X83160000Y-76365000D02*
X88460000Y-76365000D01*
X83160000Y-50845000D02*
X83160000Y-76365000D01*
X80670000Y-50785000D02*
X80670000Y-76425000D01*
%TO.C,SW1*%
X97514214Y-46200000D02*
G75*
G03*
X97514214Y-46200000I-1414214J0D01*
G01*
X94050000Y-43080000D02*
X98450000Y-43080000D01*
X99220000Y-45150000D02*
X99220000Y-47350000D01*
X93450000Y-49320000D02*
X98650000Y-49320000D01*
X92980000Y-47350000D02*
X92980000Y-45150000D01*
%TO.C,R3*%
X83645276Y-48977500D02*
X84154724Y-48977500D01*
X83645276Y-50022500D02*
X84154724Y-50022500D01*
%TO.C,R2*%
X73022500Y-48154724D02*
X73022500Y-47645276D01*
X71977500Y-48154724D02*
X71977500Y-47645276D01*
%TO.C,R1*%
X78045276Y-49322500D02*
X78554724Y-49322500D01*
X78045276Y-48277500D02*
X78554724Y-48277500D01*
%TO.C,J1*%
X71670000Y-76365000D02*
X74330000Y-76365000D01*
X71670000Y-53445000D02*
X74330000Y-53445000D01*
X71670000Y-50845000D02*
X73000000Y-50845000D01*
X71670000Y-53445000D02*
X71670000Y-76365000D01*
X74330000Y-53445000D02*
X74330000Y-76365000D01*
X71670000Y-52175000D02*
X71670000Y-50845000D01*
%TO.C,D2*%
X74965000Y-47100000D02*
X74965000Y-49560000D01*
X76435000Y-49560000D02*
X76435000Y-47100000D01*
X74965000Y-49560000D02*
X76435000Y-49560000D01*
%TO.C,D1*%
X73365000Y-49560000D02*
X74835000Y-49560000D01*
X74835000Y-49560000D02*
X74835000Y-47100000D01*
X73365000Y-47100000D02*
X73365000Y-49560000D01*
%TO.C,C4*%
X88046267Y-48990000D02*
X87753733Y-48990000D01*
X88046267Y-50010000D02*
X87753733Y-50010000D01*
%TO.C,C3*%
X91853733Y-42010000D02*
X92146267Y-42010000D01*
X91853733Y-40990000D02*
X92146267Y-40990000D01*
%TO.C,C2*%
X87746267Y-40990000D02*
X87453733Y-40990000D01*
X87746267Y-42010000D02*
X87453733Y-42010000D01*
%TO.C,C1*%
X78446267Y-46590000D02*
X78153733Y-46590000D01*
X78446267Y-47610000D02*
X78153733Y-47610000D01*
%TD*%
M02*
